<svg width="80" height="80" viewBox="0 0 80 80" fill="none" xmlns="http://www.w3.org/2000/svg">
<circle cx="40" cy="40" r="40" fill="white"/>
<g clip-path="url(#clip0_345_191)">
<path d="M52 64C51.8 64 51.6 63.96 51.412 63.88C50.948 63.682 40 58.914 40 49.108V41.072C40 40.43 40.408 39.86 41.018 39.652L51.518 36.08C51.83 35.974 52.17 35.974 52.482 36.08L62.982 39.652C63.592 39.86 64 40.43 64 41.072V49.108C64 58.914 53.052 63.682 52.588 63.882C52.4 63.96 52.2 64 52 64ZM43 42.146V49.106C43 55.772 49.912 59.78 52 60.836C54.088 59.78 61 55.772 61 49.106V42.146L52 39.084L43 42.146Z" fill="#70B52D"/>
<path d="M51.5 54.9999C51.104 54.9999 50.72 54.8439 50.44 54.5599L46.44 50.5599C45.854 49.9739 45.854 49.0239 46.44 48.4379C47.026 47.8519 47.976 47.8519 48.562 48.4379L51.34 51.2159L56.3 44.5999C56.792 43.9379 57.736 43.8019 58.4 44.3019C59.062 44.7979 59.196 45.7379 58.698 46.4019L52.698 54.4019C52.438 54.7499 52.04 54.9659 51.604 54.9979C51.57 54.9979 51.536 54.9999 51.5 54.9999Z" fill="#70B52D"/>
<path d="M37.18 58H21.5C18.466 58 16 55.534 16 52.5V21.5C16 18.466 18.466 16 21.5 16H44.5C47.534 16 50 18.466 50 21.5V32.36C50 33.188 49.328 33.86 48.5 33.86C47.672 33.86 47 33.188 47 32.36V21.5C47 20.122 45.878 19 44.5 19H21.5C20.122 19 19 20.122 19 21.5V52.5C19 53.878 20.122 55 21.5 55H37.18C38.008 55 38.68 55.672 38.68 56.5C38.68 57.328 38.008 58 37.18 58Z" fill="#70B52D"/>
<path d="M42.5 35H23.5C22.672 35 22 34.328 22 33.5C22 32.672 22.672 32 23.5 32H42.5C43.328 32 44 32.672 44 33.5C44 34.328 43.328 35 42.5 35Z" fill="#70B52D"/>
<path d="M34.5 43H23.5C22.672 43 22 42.328 22 41.5C22 40.672 22.672 40 23.5 40H34.5C35.328 40 36 40.672 36 41.5C36 42.328 35.328 43 34.5 43Z" fill="#70B52D"/>
<path d="M32.5 27H23.5C22.672 27 22 26.328 22 25.5C22 24.672 22.672 24 23.5 24H32.5C33.328 24 34 24.672 34 25.5C34 26.328 33.328 27 32.5 27Z" fill="#70B52D"/>
</g>
<defs>
<clipPath id="clip0_345_191">
<rect width="48" height="48" fill="white" transform="translate(16 16)"/>
</clipPath>
</defs>
</svg>
