<svg width="80" height="80" viewBox="0 0 80 80" fill="none" xmlns="http://www.w3.org/2000/svg">
<circle cx="40" cy="40" r="40" fill="white"/>
<g clip-path="url(#clip0_345_159)">
<mask id="mask0_345_159" style="mask-type:luminance" maskUnits="userSpaceOnUse" x="16" y="18" width="48" height="48">
<path d="M16 18H64V66H16V18Z" fill="white"/>
</mask>
<g mask="url(#mask0_345_159)">
<path fill-rule="evenodd" clip-rule="evenodd" d="M39.1162 61.086C39.6043 61.5742 40.3958 61.5742 40.8839 61.086L58.241 43.729C58.3976 43.5724 58.5491 43.4127 58.6956 43.25H62.5938C63.2841 43.25 63.8438 42.6904 63.8438 42C63.8438 41.3096 63.2841 40.75 62.5938 40.75H60.4427C62.9187 36.064 62.1848 30.1258 58.241 26.1821C53.3955 21.3367 45.5395 21.3367 40.6941 26.1821L40 26.8762L39.306 26.1821C34.4606 21.3367 26.6046 21.3367 21.7591 26.1821C17.8153 30.1258 17.0814 36.064 19.5574 40.75H17.4062C16.7159 40.75 16.1562 41.3096 16.1562 42C16.1562 42.6904 16.7159 43.25 17.4062 43.25H21.3045C21.451 43.4127 21.6025 43.5724 21.7591 43.729L39.1162 61.086ZM22.4943 40.75H27.9192L31.5321 32.1478C31.5652 32.0676 31.6067 31.9907 31.656 31.9185C31.7058 31.8457 31.7625 31.7793 31.8249 31.7199C31.8662 31.6806 31.91 31.6443 31.9559 31.6112C32.019 31.5658 32.086 31.5265 32.1559 31.4936C32.3133 31.4196 32.4788 31.3812 32.6429 31.3755C32.8071 31.3695 32.9748 31.396 33.1371 31.4586C33.2273 31.4934 33.3136 31.5385 33.394 31.5935C33.4664 31.643 33.5325 31.6994 33.5917 31.7614C33.6331 31.8049 33.6712 31.8511 33.7058 31.8997C33.7435 31.9527 33.7769 32.0085 33.8058 32.0664L39.8799 44.0547L44.6222 35.7745C44.6741 35.6795 44.7387 35.5906 44.8154 35.5106C44.9203 35.4008 45.0427 35.313 45.1756 35.2491C45.3405 35.1692 45.5164 35.1288 45.6913 35.1251C45.8651 35.1211 46.0416 35.1534 46.209 35.225C46.3456 35.2831 46.4727 35.3658 46.583 35.4715C46.6631 35.548 46.7315 35.6339 46.7875 35.7264L49.9692 40.75H57.5058C60.3047 36.8773 59.9605 31.4371 56.4732 27.9499L57.3571 27.066L56.4732 27.9499C52.6041 24.0808 46.331 24.0808 42.4618 27.9499L40.8839 29.5278C40.3958 30.016 39.6043 30.016 39.1162 29.5278L37.5383 27.9499C33.6691 24.0808 27.396 24.0808 23.5269 27.9499L22.6491 27.0721L23.5269 27.9499C20.0396 31.4371 19.6954 36.8773 22.4943 40.75ZM48.2866 42.7572C48.2606 42.7231 48.2363 42.6876 48.2139 42.6509L45.7726 38.7962L40.9059 47.2935C40.845 47.4036 40.7671 47.5053 40.6737 47.5939C40.4318 47.824 40.1085 47.9454 39.7806 47.9373C39.4527 47.9287 39.136 47.7909 38.9061 47.5487C38.8173 47.4554 38.7447 47.35 38.6895 47.2368L32.7937 35.6002L29.9137 42.4574C29.8866 42.5262 29.8536 42.5921 29.8153 42.6543C29.627 42.9603 29.3105 43.1789 28.9407 43.2355C28.8685 43.2468 28.795 43.2517 28.7211 43.25H24.8157L40 58.4344L55.1844 43.25H49.3025C49.2606 43.2507 49.2188 43.2492 49.1772 43.2457C48.9975 43.2309 48.8285 43.1781 48.6784 43.0953C48.5291 43.0133 48.3949 42.8998 48.2866 42.7572Z" fill="#70B52D"/>
</g>
</g>
<defs>
<clipPath id="clip0_345_159">
<rect width="48" height="48" fill="white" transform="translate(16 16)"/>
</clipPath>
</defs>
</svg>
