<svg width="168" height="54" viewBox="0 0 168 54" fill="none" xmlns="http://www.w3.org/2000/svg">
<path d="M167 48.3833C163.724 48.1131 160.444 48.0203 157.16 48.1047C157.104 48.1068 157.048 48.095 156.995 48.0701C156.943 48.0453 156.895 48.0079 156.855 47.9601C156.815 47.9123 156.783 47.8552 156.761 47.7921C156.74 47.7291 156.729 47.6614 156.73 47.5931L156.78 44.3668C156.782 44.2342 156.827 44.1079 156.905 44.0151C156.983 43.9223 157.088 43.8704 157.197 43.8704L165.869 43.8451C165.979 43.8437 166.085 43.79 166.163 43.6953C166.241 43.6005 166.285 43.4725 166.286 43.3386L166.319 38.5268C166.32 38.4599 166.31 38.3935 166.289 38.3315C166.268 38.2694 166.237 38.213 166.197 38.1654C166.158 38.1179 166.112 38.0801 166.06 38.0543C166.009 38.0285 165.954 38.0153 165.898 38.0153L157.114 38.0811C157.058 38.0811 157.003 38.0677 156.952 38.0417C156.9 38.0157 156.853 37.9775 156.814 37.9295C156.775 37.8815 156.744 37.8245 156.723 37.7618C156.702 37.6992 156.692 37.6321 156.692 37.5645L156.713 36.1362C156.715 36.0036 156.76 35.8774 156.838 35.7846C156.916 35.6917 157.021 35.6398 157.131 35.6398L165.981 35.6145C166.037 35.6138 166.091 35.5999 166.142 35.5736C166.193 35.5473 166.239 35.509 166.278 35.4611C166.317 35.4131 166.348 35.3563 166.368 35.294C166.389 35.2317 166.399 35.165 166.399 35.0978L166.357 30.904C166.356 30.7697 166.311 30.6414 166.233 30.5474C166.155 30.4534 166.049 30.4013 165.94 30.4026L151.127 30.5495C151.017 30.5508 150.912 30.6048 150.835 30.6996C150.757 30.7945 150.714 30.9225 150.714 31.056V52.7442C150.714 52.8785 150.758 53.0074 150.836 53.1024C150.914 53.1974 151.02 53.2507 151.131 53.2507L166.996 53.2608" stroke="#2065AC" stroke-width="0.834979"/>
<path d="M0 53.3267L5.84903 53.2304C5.95939 53.2278 6.0645 53.1732 6.14178 53.0785C6.21905 52.9838 6.26234 52.8565 6.26234 52.7239V46.8891C6.26234 46.7556 6.30575 46.6275 6.38314 46.5327C6.46054 46.4379 6.56566 46.3839 6.67566 46.3826C8.2983 46.3724 9.90285 46.1833 11.4893 45.8153C13.0716 45.4506 14.6539 44.544 15.4304 42.9536C17.0419 39.6512 17.0544 33.2896 13.6561 31.2332C12.3577 30.4482 10.3454 30.2962 8.87165 30.3063C5.91583 30.33 2.95861 30.3215 0 30.281" stroke="#2065AC" stroke-width="0.834979"/>
<path d="M85.853 17.9277L84.7049 19.5232C84.6668 19.5758 84.6382 19.6377 84.6209 19.7049C84.6036 19.7721 84.5981 19.843 84.6047 19.9132L84.8719 22.623C84.8844 22.7491 84.9352 22.8649 85.014 22.9474C85.0929 23.03 85.1942 23.0732 85.2978 23.0687C90.3577 22.8796 94.104 20.4366 96.5366 15.7396C98.7827 11.404 99.7011 6.60244 98.6699 1.58305C98.5141 0.830054 98.3039 0.806417 98.0395 1.51214C97.5692 2.77838 96.8372 3.78463 95.8435 4.53087C93.2802 6.45049 90.2534 7.56478 87.8027 9.20583C86.5335 10.0568 82.7552 13.5972 83.0517 15.8308C83.1658 16.6817 83.5165 17.4043 84.1037 17.9986C84.1755 18.0713 84.2648 18.1133 84.3578 18.1179C84.4508 18.1225 84.542 18.0894 84.6172 18.024L85.4063 17.3351C86.9844 15.9541 87.1333 16.1516 85.853 17.9277Z" stroke="#70B52D" stroke-width="0.834979"/>
<path d="M78.9184 20.1208C78.7055 19.8979 78.5593 19.2293 79.0812 19.67C80.5786 20.9295 82.0022 22.2075 83.3521 23.5042C83.803 23.9397 84.0284 23.8081 84.0284 23.1091C84.0284 19.962 83.1281 17.5072 81.3273 15.7446C80.7623 15.1908 79.4319 14.4024 77.3361 13.3793C75.0482 12.2616 72.8495 10.9093 70.7398 9.32223C70.6791 9.27677 70.6099 9.25068 70.5388 9.24646C70.4676 9.24224 70.3968 9.26001 70.3332 9.2981C70.2696 9.33619 70.2152 9.39332 70.1753 9.46404C70.1354 9.53476 70.1112 9.61672 70.1052 9.7021C69.9493 11.7754 70.0537 14.0563 70.4183 16.5449C71.3743 23.0584 75.0482 24.1474 80.175 26.1734C80.8486 26.4402 81.4289 26.7322 81.916 27.0496C82.3501 27.3366 82.7774 27.6405 83.1976 27.9613C83.9241 28.5151 84.1273 28.3091 83.8072 27.3434C83.6931 26.9956 83.572 26.6394 83.444 26.2747C82.6883 24.1221 80.3838 21.6453 78.9184 20.1208Z" stroke="#70B52D" stroke-width="0.834979"/>
<path d="M83.2512 30.3117L79.857 28.1895C79.7938 28.1508 79.7235 28.1323 79.6527 28.1356C79.5819 28.139 79.513 28.1642 79.4525 28.2087C79.3919 28.2533 79.3417 28.3159 79.3066 28.3904C79.2715 28.465 79.2526 28.5493 79.2516 28.6352L79.0596 52.7191C79.059 52.7861 79.0694 52.8525 79.0902 52.9145C79.1109 52.9766 79.1416 53.033 79.1804 53.0806C79.2192 53.1281 79.2654 53.1659 79.3163 53.1917C79.3673 53.2174 79.4219 53.2307 79.4771 53.2307H83.6019C83.7126 53.2307 83.8188 53.1773 83.8971 53.0824C83.9754 52.9874 84.0194 52.8585 84.0194 52.7242L84.0235 32.3377C84.0235 31.3112 83.7661 30.6358 83.2512 30.3117Z" stroke="#2065AC" stroke-width="0.834979"/>
<path d="M69.8582 42.5739C69.858 42.6249 69.8443 42.6743 69.8192 42.7151C69.7941 42.7559 69.7589 42.7859 69.7188 42.8006C69.6786 42.8154 69.6356 42.8141 69.5961 42.797C69.5565 42.7799 69.5226 42.7479 69.4991 42.7056L62.7108 30.494C62.6925 30.4623 62.6681 30.4365 62.6397 30.4189C62.6113 30.4012 62.5798 30.3922 62.548 30.3927L57.2959 30.2964C57.2698 30.2958 57.2438 30.3014 57.2196 30.3131C57.1953 30.3247 57.1731 30.3422 57.1545 30.3644C57.1358 30.3865 57.121 30.413 57.1109 30.4422C57.1007 30.4714 57.0955 30.5028 57.0955 30.5345L57.083 52.9723C57.083 53.0346 57.1031 53.0944 57.139 53.1389C57.1749 53.1834 57.2237 53.2091 57.2751 53.2104L62.5605 53.2864C62.6125 53.2864 62.6624 53.2613 62.6992 53.2166C62.736 53.172 62.7567 53.1114 62.7567 53.0483L62.6523 41.5002C62.6516 41.4488 62.6646 41.3986 62.6894 41.3569C62.7142 41.3153 62.7494 41.2845 62.7897 41.2691C62.8301 41.2537 62.8735 41.2546 62.9135 41.2716C62.9534 41.2886 62.9877 41.3208 63.0114 41.3634L69.687 53.1851C69.7049 53.2177 69.7291 53.2444 69.7575 53.263C69.7859 53.2815 69.8176 53.2913 69.8498 53.2914L75.2689 53.2155C75.3202 53.2141 75.369 53.1885 75.4049 53.144C75.4408 53.0995 75.4609 53.0397 75.4609 52.9774V30.6763C75.4609 30.6132 75.4402 30.5526 75.4034 30.508C75.3666 30.4633 75.3167 30.4383 75.2647 30.4383H70.0085C69.9564 30.4383 69.9065 30.4633 69.8697 30.508C69.8329 30.5526 69.8123 30.6132 69.8123 30.6763L69.8582 42.5739Z" stroke="#2065AC" stroke-width="0.834979"/>
<path d="M34.8604 47.897C34.8604 47.8599 34.8543 47.8233 34.8425 47.7892C34.8307 47.755 34.8134 47.7241 34.7917 47.6982C34.7699 47.6722 34.7441 47.6518 34.7157 47.6381C34.6874 47.6244 34.6571 47.6177 34.6266 47.6184L25.7007 47.7805C25.6702 47.7811 25.6399 47.7744 25.6115 47.7607C25.5832 47.747 25.5574 47.7266 25.5356 47.7007C25.5138 47.6747 25.4965 47.6438 25.4847 47.6097C25.4729 47.5755 25.4669 47.5389 25.4669 47.5019V30.7166C25.4669 30.6427 25.4427 30.5718 25.3996 30.5196C25.3566 30.4673 25.2982 30.438 25.2373 30.438H19.8516C19.7907 30.438 19.7323 30.4673 19.6893 30.5196C19.6462 30.5718 19.622 30.6427 19.622 30.7166V52.9518C19.622 53.0257 19.6462 53.0965 19.6893 53.1488C19.7323 53.201 19.7907 53.2304 19.8516 53.2304H34.6308C34.6917 53.2304 34.7501 53.201 34.7931 53.1488C34.8362 53.0965 34.8604 53.0257 34.8604 52.9518V47.897Z" stroke="#2065AC" stroke-width="0.834979"/>
<path d="M43.4644 47.7602L43.5438 43.9463C43.5459 43.8137 43.5909 43.6875 43.6689 43.5947C43.747 43.5018 43.852 43.4499 43.9612 43.4499L52.2484 43.5056C52.3036 43.5056 52.3582 43.4924 52.4091 43.4666C52.4601 43.4408 52.5063 43.4031 52.5451 43.3555C52.5839 43.3079 52.6146 43.2515 52.6353 43.1894C52.6561 43.1274 52.6665 43.061 52.6659 42.9941L52.6367 38.8256C52.6356 38.6939 52.5923 38.5678 52.5159 38.4742C52.4395 38.3806 52.3361 38.3268 52.2275 38.3242C49.8172 38.2735 47.3986 38.2667 44.9716 38.3039C43.6481 38.3191 42.5501 37.7923 43.4227 35.8879C43.4579 35.8098 43.5103 35.7446 43.5741 35.6992C43.638 35.6537 43.7112 35.6297 43.7859 35.6296H53.1251C53.2359 35.6296 53.3421 35.5762 53.4204 35.4812C53.4986 35.3862 53.5426 35.2574 53.5426 35.1231V30.9445C53.5426 30.8102 53.4986 30.6813 53.4204 30.5863C53.3421 30.4914 53.2359 30.438 53.1251 30.438H38.0955C37.9848 30.438 37.8786 30.4914 37.8003 30.5863C37.722 30.6813 37.678 30.8102 37.678 30.9445C37.678 37.5053 37.678 44.0661 37.678 50.627C37.678 50.8363 37.646 51.2196 37.582 51.7767C37.5486 52.0739 37.5347 52.3879 37.5403 52.7188C37.5435 52.8518 37.5889 52.978 37.6669 53.0707C37.7448 53.1634 37.8492 53.2152 37.9577 53.2152L53.3339 53.2506C53.4446 53.2506 53.5508 53.1973 53.6291 53.1023C53.7074 53.0073 53.7514 52.8785 53.7514 52.7441V48.8036C53.7514 48.6701 53.7075 48.5421 53.6293 48.4472C53.5512 48.3524 53.445 48.2984 53.3339 48.2971L43.8819 48.2768C43.826 48.2768 43.7707 48.2634 43.7192 48.2372C43.6677 48.2111 43.6211 48.1728 43.5822 48.1246C43.5433 48.0764 43.5128 48.0193 43.4925 47.9567C43.4723 47.8941 43.4628 47.8273 43.4644 47.7602Z" stroke="#2065AC" stroke-width="0.834979"/>
<path d="M98.3853 35.8271C98.3853 35.8012 98.3895 35.7755 98.3977 35.7515C98.4059 35.7276 98.4179 35.7058 98.433 35.6874C98.4481 35.6691 98.4661 35.6546 98.4858 35.6446C98.5056 35.6347 98.5267 35.6296 98.5481 35.6296H104.314C104.357 35.6296 104.398 35.6088 104.429 35.5717C104.459 35.5347 104.476 35.4844 104.476 35.4321L104.472 30.7824C104.472 30.7565 104.468 30.7308 104.46 30.7068C104.452 30.6828 104.44 30.6611 104.425 30.6427C104.409 30.6244 104.392 30.6098 104.372 30.5999C104.352 30.59 104.331 30.5849 104.309 30.5849L86.6872 30.438C86.6441 30.438 86.6026 30.4588 86.5721 30.4958C86.5416 30.5329 86.5244 30.5831 86.5244 30.6355V35.4321C86.5244 35.4844 86.5416 35.5347 86.5721 35.5717C86.6026 35.6088 86.6441 35.6296 86.6872 35.6296H92.411C92.4328 35.6296 92.4543 35.6348 92.4743 35.6451C92.4943 35.6553 92.5125 35.6703 92.5276 35.6892C92.5428 35.7081 92.5547 35.7305 92.5627 35.755C92.5706 35.7796 92.5744 35.8058 92.5738 35.8322L92.3776 53.0126C92.3776 53.0641 92.3942 53.1136 92.4238 53.1505C92.4535 53.1874 92.4938 53.2088 92.5363 53.2101L98.3644 53.281C98.3865 53.2817 98.4085 53.2769 98.429 53.267C98.4495 53.2571 98.4682 53.2422 98.4838 53.2232C98.4994 53.2043 98.5117 53.1817 98.5199 53.1568C98.5281 53.1319 98.532 53.1052 98.5314 53.0784L98.3853 35.8271Z" stroke="#2065AC" stroke-width="0.834979"/>
<path d="M121.594 53.0025C124.788 51.5691 125.76 47.7602 125.76 44.0223C125.76 39.6765 125.772 35.3172 125.794 30.9445C125.794 30.8102 125.75 30.6813 125.672 30.5863C125.593 30.4914 125.487 30.438 125.376 30.438H120.35C120.239 30.438 120.133 30.4914 120.055 30.5863C119.976 30.6813 119.932 30.8102 119.932 30.9445C119.927 35.0843 119.922 39.219 119.92 43.3486C119.917 44.8917 119.806 45.9672 119.586 46.575C118.642 49.1987 115.119 49.4418 113.904 47.2183C113.525 46.526 113.339 45.4236 113.344 43.9108C113.355 39.6394 113.354 35.3426 113.34 31.0205C113.339 30.8865 113.295 30.7585 113.217 30.6638C113.139 30.5691 113.033 30.5153 112.923 30.514L107.925 30.4836C107.813 30.4836 107.706 30.5369 107.627 30.6319C107.548 30.7269 107.504 30.8557 107.504 30.9901C107.501 35.3763 107.502 39.7795 107.508 44.1995C107.511 46.1816 107.704 47.6707 108.088 48.6668C109.115 51.3462 111.207 53.3773 113.766 53.3621C115.929 53.3519 119.69 53.8534 121.594 53.0025Z" stroke="#2065AC" stroke-width="0.834979"/>
<path d="M142.828 52.8862C144.283 52.248 145.387 51.2367 146.138 49.8523C146.401 49.3711 146.523 48.6519 146.99 48.1707C147.073 48.0865 147.125 47.9683 147.136 47.8415C147.491 43.906 147.838 38.6232 146.502 35.2854C144.686 30.7523 141.575 30.5446 137.43 30.5699C135.122 30.5868 132.807 30.5564 130.483 30.4787C130.427 30.4767 130.371 30.4882 130.319 30.5125C130.267 30.5368 130.219 30.5734 130.179 30.6201C130.139 30.6669 130.107 30.7229 130.085 30.7847C130.064 30.8466 130.053 30.913 130.053 30.9802L130.04 52.7342C130.04 52.8686 130.084 52.9974 130.162 53.0924C130.241 53.1874 130.347 53.2407 130.458 53.2407L141.529 53.2103C141.897 53.2103 142.33 53.1023 142.828 52.8862Z" stroke="#2065AC" stroke-width="0.834979"/>
<path d="M9.75256 40.3703C11.0997 38.2464 10.9466 36.6915 9.29332 35.7055C8.88975 35.4658 7.9657 35.4641 6.52119 35.7004C6.4211 35.7153 6.32892 35.7744 6.26203 35.8668C6.19513 35.9591 6.15812 36.0783 6.15797 36.2019V40.0968C6.15797 40.1638 6.16891 40.23 6.19015 40.2918C6.21139 40.3536 6.24252 40.4097 6.28173 40.4568C6.32094 40.5039 6.36745 40.5411 6.41859 40.5662C6.46972 40.5914 6.52446 40.604 6.57964 40.6033L9.42692 40.5679C9.4896 40.5662 9.55128 40.5476 9.60756 40.5134C9.66385 40.4793 9.71336 40.4304 9.75256 40.3703Z" stroke="#2065AC" stroke-width="0.834979"/>
<path d="M135.817 36.3083L135.901 47.7653C135.901 47.8354 135.914 47.9047 135.937 47.9687C135.961 48.0327 135.995 48.0901 136.038 48.1372C136.08 48.1844 136.131 48.2202 136.186 48.2425C136.24 48.2648 136.298 48.273 136.356 48.2667L140.176 47.8463C140.242 47.8402 140.305 47.815 140.361 47.7726C140.417 47.7303 140.464 47.6722 140.497 47.6032C141.95 44.6402 142.639 38.6737 139.829 36.4299C138.75 35.5688 137.515 35.3629 136.126 35.812C136.037 35.8412 135.958 35.9059 135.902 35.9958C135.846 36.0857 135.816 36.1957 135.817 36.3083Z" stroke="#2065AC" stroke-width="0.834979"/>
<path d="M85.4063 17.3351L84.6172 18.024C84.542 18.0894 84.4508 18.1225 84.3578 18.1179C84.2648 18.1133 84.1755 18.0713 84.1037 17.9986C83.5165 17.4043 83.1658 16.6817 83.0517 15.8308C82.7552 13.5972 86.5335 10.0568 87.8027 9.20583C90.2534 7.56478 93.2802 6.45049 95.8435 4.53087C96.8372 3.78463 97.5692 2.77838 98.0395 1.51214C98.3039 0.806417 98.5141 0.830054 98.6699 1.58305C99.7011 6.60244 98.7827 11.404 96.5366 15.7396C94.104 20.4366 90.3577 22.8796 85.2978 23.0687C85.1942 23.0732 85.0929 23.03 85.014 22.9474C84.9352 22.8649 84.8844 22.7491 84.8719 22.623L84.6047 19.9132C84.5981 19.843 84.6036 19.7721 84.6209 19.7049C84.6382 19.6377 84.6668 19.5758 84.7049 19.5232L85.853 17.9277C87.1333 16.1516 86.9844 15.9541 85.4063 17.3351Z" fill="#70B52D"/>
<path d="M78.9184 20.1208C80.3838 21.6453 82.6883 24.1221 83.444 26.2747C83.572 26.6394 83.6931 26.9956 83.8072 27.3434C84.1273 28.3091 83.9241 28.5151 83.1976 27.9613C82.7774 27.6405 82.3501 27.3366 81.916 27.0496C81.4289 26.7322 80.8486 26.4401 80.175 26.1734C75.0482 24.1474 71.3743 23.0584 70.4183 16.5449C70.0537 14.0563 69.9493 11.7754 70.1052 9.7021C70.1112 9.61672 70.1354 9.53476 70.1753 9.46404C70.2152 9.39332 70.2696 9.33619 70.3332 9.2981C70.3968 9.26001 70.4676 9.24224 70.5388 9.24646C70.6099 9.25068 70.6791 9.27677 70.7398 9.32223C72.8495 10.9093 75.0482 12.2616 77.3361 13.3793C79.4319 14.4024 80.7623 15.1908 81.3273 15.7446C83.1281 17.5072 84.0284 19.962 84.0284 23.1091C84.0284 23.8081 83.803 23.9397 83.3521 23.5042C82.0022 22.2075 80.5786 20.9295 79.0812 19.67C78.5593 19.2293 78.7055 19.8979 78.9184 20.1208Z" fill="#70B52D"/>
<path d="M83.2512 30.3117C83.7661 30.6358 84.0235 31.3112 84.0235 32.3377L84.0194 52.7242C84.0194 52.8585 83.9754 52.9874 83.8971 53.0824C83.8188 53.1773 83.7126 53.2307 83.6019 53.2307H79.4771C79.4219 53.2307 79.3673 53.2174 79.3163 53.1917C79.2654 53.1659 79.2192 53.1281 79.1804 53.0806C79.1416 53.033 79.1109 52.9766 79.0902 52.9145C79.0694 52.8525 79.059 52.7861 79.0596 52.7191L79.2516 28.6352C79.2526 28.5493 79.2715 28.465 79.3066 28.3904C79.3417 28.3159 79.3919 28.2533 79.4525 28.2087C79.513 28.1642 79.5819 28.139 79.6527 28.1356C79.7235 28.1323 79.7938 28.1508 79.857 28.1895L83.2512 30.3117Z" fill="#2065AC"/>
<path d="M0 30.281C2.95861 30.3215 5.91583 30.33 8.87165 30.3063C10.3454 30.2962 12.3577 30.4482 13.6561 31.2332C17.0544 33.2896 17.0419 39.6512 15.4304 42.9536C14.6539 44.544 13.0716 45.4506 11.4893 45.8153C9.90285 46.1833 8.2983 46.3724 6.67566 46.3826C6.56566 46.3839 6.46054 46.4379 6.38314 46.5327C6.30575 46.6275 6.26234 46.7556 6.26234 46.8891V52.7239C6.26234 52.8565 6.21905 52.9838 6.14178 53.0785C6.0645 53.1732 5.95939 53.2278 5.84903 53.2304L0 53.3267V30.281ZM9.75256 40.3704C11.0997 38.2465 10.9466 36.6916 9.29332 35.7056C8.88974 35.4658 7.9657 35.4642 6.52119 35.7005C6.42109 35.7154 6.32892 35.7745 6.26202 35.8669C6.19513 35.9592 6.15812 36.0784 6.15797 36.202V40.0969C6.15797 40.1639 6.1689 40.2301 6.19014 40.2919C6.21139 40.3537 6.24251 40.4098 6.28172 40.4569C6.32093 40.504 6.36745 40.5412 6.41859 40.5663C6.46972 40.5915 6.52446 40.6041 6.57964 40.6034L9.42691 40.568C9.48959 40.5663 9.55127 40.5477 9.60756 40.5135C9.66385 40.4794 9.71335 40.4305 9.75256 40.3704Z" fill="#2065AC"/>
<path d="M69.8582 42.5739L69.8123 30.6763C69.8123 30.6132 69.8329 30.5526 69.8697 30.508C69.9065 30.4633 69.9564 30.4383 70.0085 30.4383H75.2647C75.3167 30.4383 75.3666 30.4633 75.4034 30.508C75.4402 30.5526 75.4609 30.6132 75.4609 30.6763V52.9774C75.4609 53.0397 75.4408 53.0995 75.4049 53.144C75.369 53.1885 75.3202 53.2141 75.2689 53.2155L69.8498 53.2914C69.8176 53.2913 69.7859 53.2815 69.7575 53.263C69.7291 53.2444 69.7049 53.2177 69.687 53.1851L63.0114 41.3634C62.9877 41.3208 62.9534 41.2886 62.9135 41.2716C62.8735 41.2546 62.8301 41.2537 62.7897 41.2691C62.7494 41.2845 62.7142 41.3153 62.6894 41.3569C62.6646 41.3986 62.6516 41.4488 62.6523 41.5002L62.7567 53.0483C62.7567 53.1114 62.736 53.172 62.6992 53.2166C62.6624 53.2613 62.6125 53.2864 62.5605 53.2864L57.2751 53.2104C57.2237 53.2091 57.1749 53.1834 57.139 53.1389C57.1031 53.0944 57.083 53.0346 57.083 52.9723L57.0955 30.5345C57.0955 30.5028 57.1007 30.4714 57.1109 30.4422C57.121 30.413 57.1358 30.3865 57.1545 30.3644C57.1731 30.3422 57.1953 30.3247 57.2196 30.3131C57.2438 30.3014 57.2698 30.2958 57.2959 30.2964L62.548 30.3927C62.5798 30.3922 62.6113 30.4012 62.6397 30.4189C62.6681 30.4365 62.6925 30.4623 62.7108 30.494L69.4991 42.7056C69.5226 42.7479 69.5565 42.7799 69.5961 42.797C69.6356 42.8141 69.6786 42.8154 69.7188 42.8006C69.7589 42.7859 69.7941 42.7559 69.8192 42.7151C69.8443 42.6743 69.858 42.6249 69.8582 42.5739Z" fill="#2065AC"/>
<path d="M34.8604 47.8972V52.952C34.8604 53.0259 34.8362 53.0968 34.7931 53.149C34.7501 53.2013 34.6917 53.2306 34.6308 53.2306H19.8516C19.7907 53.2306 19.7323 53.2013 19.6893 53.149C19.6462 53.0968 19.622 53.0259 19.622 52.952V30.7168C19.622 30.6429 19.6462 30.5721 19.6893 30.5198C19.7323 30.4676 19.7907 30.4382 19.8516 30.4382H25.2373C25.2982 30.4382 25.3566 30.4676 25.3996 30.5198C25.4427 30.5721 25.4669 30.6429 25.4669 30.7168V47.5021C25.4669 47.5391 25.4729 47.5758 25.4847 47.6099C25.4965 47.6441 25.5138 47.675 25.5356 47.7009C25.5574 47.7269 25.5832 47.7473 25.6115 47.761C25.6399 47.7747 25.6702 47.7814 25.7007 47.7807L34.6266 47.6186C34.6571 47.618 34.6874 47.6247 34.7157 47.6384C34.7441 47.6521 34.7699 47.6725 34.7917 47.6984C34.8134 47.7243 34.8307 47.7553 34.8425 47.7894C34.8543 47.8235 34.8604 47.8602 34.8604 47.8972Z" fill="#2065AC"/>
<path d="M43.8819 48.2771L53.3339 48.2973C53.445 48.2987 53.5512 48.3526 53.6293 48.4475C53.7075 48.5423 53.7514 48.6704 53.7514 48.8038V52.7444C53.7514 52.8787 53.7074 53.0075 53.6291 53.1025C53.5508 53.1975 53.4446 53.2509 53.3339 53.2509L37.9577 53.2154C37.8492 53.2154 37.7448 53.1636 37.6669 53.0709C37.5889 52.9783 37.5435 52.852 37.5403 52.7191C37.5347 52.3881 37.5486 52.0741 37.582 51.777C37.646 51.2198 37.678 50.8366 37.678 50.6272C37.678 44.0664 37.678 37.5056 37.678 30.9447C37.678 30.8104 37.722 30.6816 37.8003 30.5866C37.8786 30.4916 37.9848 30.4382 38.0955 30.4382H53.1251C53.2359 30.4382 53.3421 30.4916 53.4204 30.5866C53.4986 30.6816 53.5426 30.8104 53.5426 30.9447V35.1233C53.5426 35.2577 53.4986 35.3865 53.4204 35.4815C53.3421 35.5765 53.2359 35.6298 53.1251 35.6298H43.7859C43.7112 35.6299 43.638 35.654 43.5741 35.6994C43.5103 35.7448 43.4579 35.81 43.4227 35.8881C42.5501 37.7926 43.6481 38.3193 44.9716 38.3041C47.3986 38.267 49.8172 38.2737 52.2275 38.3244C52.3361 38.327 52.4395 38.3809 52.5159 38.4745C52.5923 38.5681 52.6356 38.6941 52.6367 38.8258L52.6659 42.9943C52.6665 43.0612 52.6561 43.1276 52.6353 43.1897C52.6146 43.2517 52.5839 43.3082 52.5451 43.3557C52.5063 43.4033 52.4601 43.4411 52.4091 43.4668C52.3582 43.4926 52.3036 43.5059 52.2484 43.5059L43.9612 43.4501C43.852 43.4501 43.747 43.5021 43.6689 43.5949C43.5909 43.6877 43.5459 43.8139 43.5438 43.9465L43.4644 47.7604C43.4628 47.8275 43.4723 47.8944 43.4925 47.957C43.5128 48.0196 43.5433 48.0766 43.5822 48.1248C43.6211 48.173 43.6677 48.2113 43.7192 48.2375C43.7707 48.2636 43.826 48.2771 43.8819 48.2771Z" fill="#2065AC"/>
<path d="M98.3853 35.8274L98.5314 53.0787C98.532 53.1055 98.5281 53.1321 98.5199 53.157C98.5117 53.1819 98.4994 53.2045 98.4838 53.2235C98.4682 53.2424 98.4495 53.2573 98.429 53.2673C98.4085 53.2772 98.3865 53.282 98.3644 53.2813L92.5363 53.2104C92.4938 53.209 92.4535 53.1876 92.4238 53.1507C92.3942 53.1138 92.3776 53.0643 92.3776 53.0128L92.5738 35.8324C92.5744 35.8061 92.5706 35.7798 92.5627 35.7553C92.5547 35.7307 92.5428 35.7083 92.5276 35.6895C92.5125 35.6706 92.4943 35.6556 92.4743 35.6453C92.4543 35.6351 92.4328 35.6298 92.411 35.6298H86.6872C86.6441 35.6298 86.6026 35.609 86.5721 35.572C86.5416 35.5349 86.5244 35.4847 86.5244 35.4323V30.6358C86.5244 30.5834 86.5416 30.5331 86.5721 30.4961C86.6026 30.459 86.6441 30.4382 86.6872 30.4382L104.309 30.5851C104.331 30.5851 104.352 30.5902 104.372 30.6002C104.392 30.6101 104.409 30.6246 104.425 30.643C104.44 30.6613 104.452 30.6831 104.46 30.7071C104.468 30.731 104.472 30.7567 104.472 30.7826L104.476 35.4323C104.476 35.4847 104.459 35.5349 104.429 35.572C104.398 35.609 104.357 35.6298 104.314 35.6298H98.5481C98.5267 35.6298 98.5056 35.6349 98.4858 35.6449C98.4661 35.6548 98.4481 35.6693 98.433 35.6877C98.4179 35.706 98.4059 35.7278 98.3977 35.7518C98.3895 35.7757 98.3853 35.8014 98.3853 35.8274Z" fill="#2065AC"/>
<path d="M125.76 44.0225C125.76 47.7605 124.788 51.5693 121.594 53.0027C119.69 53.8536 115.929 53.3522 113.766 53.3623C111.207 53.3775 109.115 51.3465 108.088 48.6671C107.704 47.671 107.511 46.1819 107.508 44.1998C107.502 39.7797 107.501 35.3766 107.504 30.9903C107.504 30.856 107.548 30.7272 107.627 30.6322C107.706 30.5372 107.813 30.4838 107.925 30.4838L112.923 30.5142C113.033 30.5155 113.139 30.5693 113.217 30.664C113.295 30.7587 113.339 30.8868 113.34 31.0207C113.354 35.3428 113.355 39.6396 113.344 43.9111C113.339 45.4238 113.525 46.5263 113.904 47.2185C115.119 49.442 118.642 49.1989 119.586 46.5753C119.806 45.9675 119.917 44.892 119.92 43.3489C119.922 39.2192 119.927 35.0845 119.932 30.9447C119.932 30.8104 119.976 30.6816 120.055 30.5866C120.133 30.4916 120.239 30.4382 120.35 30.4382H125.376C125.487 30.4382 125.593 30.4916 125.672 30.5866C125.75 30.6816 125.794 30.8104 125.794 30.9447C125.772 35.3175 125.76 39.6768 125.76 44.0225Z" fill="#2065AC"/>
<path d="M142.828 52.8862C142.33 53.1023 141.897 53.2103 141.529 53.2103L130.458 53.2407C130.347 53.2407 130.241 53.1874 130.162 53.0924C130.084 52.9974 130.04 52.8686 130.04 52.7342L130.053 30.9802C130.053 30.913 130.064 30.8466 130.085 30.7847C130.107 30.7229 130.139 30.6669 130.179 30.6201C130.219 30.5734 130.267 30.5368 130.319 30.5125C130.371 30.4882 130.427 30.4767 130.483 30.4787C132.807 30.5564 135.122 30.5868 137.43 30.5699C141.575 30.5446 144.686 30.7523 146.502 35.2854C147.838 38.6232 147.491 43.906 147.136 47.8415C147.125 47.9683 147.073 48.0865 146.99 48.1707C146.523 48.6519 146.401 49.3711 146.138 49.8523C145.387 51.2367 144.283 52.248 142.828 52.8862ZM135.818 36.3085L135.902 47.7655C135.902 47.8356 135.914 47.9049 135.938 47.9689C135.961 48.0329 135.996 48.0903 136.038 48.1374C136.081 48.1846 136.132 48.2204 136.186 48.2427C136.241 48.265 136.299 48.2732 136.357 48.2669L140.177 47.8465C140.242 47.8405 140.306 47.8152 140.362 47.7728C140.418 47.7305 140.465 47.6724 140.498 47.6034C141.951 44.6404 142.64 38.6739 139.83 36.4301C138.75 35.569 137.516 35.3631 136.127 35.8122C136.037 35.8414 135.958 35.9061 135.902 35.996C135.846 36.0859 135.817 36.1959 135.818 36.3085Z" fill="#2065AC"/>
<path d="M167 48.3835L166.996 53.2611L151.131 53.251C151.02 53.251 150.914 53.1976 150.836 53.1026C150.758 53.0076 150.714 52.8788 150.714 52.7445V31.0562C150.714 30.9228 150.757 30.7947 150.835 30.6999C150.912 30.605 151.017 30.5511 151.127 30.5497L165.94 30.4029C166.049 30.4015 166.155 30.4536 166.233 30.5476C166.311 30.6417 166.356 30.77 166.357 30.9043L166.399 35.0981C166.399 35.1653 166.389 35.2319 166.368 35.2942C166.348 35.3566 166.317 35.4133 166.278 35.4613C166.239 35.5093 166.193 35.5475 166.142 35.5738C166.091 35.6002 166.037 35.6141 165.981 35.6147L157.131 35.64C157.021 35.64 156.916 35.692 156.838 35.7848C156.76 35.8776 156.715 36.0038 156.713 36.1364L156.692 37.5647C156.692 37.6323 156.702 37.6994 156.723 37.7621C156.744 37.8247 156.775 37.8817 156.814 37.9297C156.853 37.9778 156.9 38.0159 156.952 38.0419C157.003 38.068 157.058 38.0814 157.114 38.0814L165.898 38.0155C165.954 38.0155 166.009 38.0288 166.06 38.0546C166.112 38.0803 166.158 38.1181 166.197 38.1657C166.237 38.2132 166.268 38.2697 166.289 38.3317C166.31 38.3937 166.32 38.4601 166.319 38.5271L166.286 43.3388C166.285 43.4727 166.241 43.6008 166.163 43.6955C166.085 43.7902 165.979 43.844 165.869 43.8453L157.197 43.8706C157.088 43.8706 156.983 43.9226 156.905 44.0154C156.827 44.1082 156.782 44.2344 156.78 44.367L156.73 47.5934C156.729 47.6616 156.74 47.7293 156.761 47.7924C156.783 47.8554 156.815 47.9125 156.855 47.9603C156.895 48.0081 156.943 48.0455 156.995 48.0704C157.048 48.0952 157.104 48.107 157.16 48.105C160.444 48.0205 163.724 48.1134 167 48.3835Z" fill="#2065AC"/>
</svg>
