<svg width="132" height="42" viewBox="0 0 132 42" fill="none" xmlns="http://www.w3.org/2000/svg">
<path d="M131 37.1688C128.43 36.9569 125.857 36.8841 123.281 36.9503C123.237 36.9519 123.193 36.9427 123.152 36.9232C123.111 36.9037 123.073 36.8743 123.042 36.8368C123.01 36.7994 122.985 36.7546 122.969 36.7051C122.952 36.6556 122.943 36.6025 122.944 36.549L122.983 34.0181C122.985 33.9141 123.02 33.8151 123.081 33.7423C123.142 33.6695 123.225 33.6287 123.31 33.6288L130.112 33.6089C130.199 33.6079 130.282 33.5657 130.343 33.4914C130.404 33.4171 130.439 33.3166 130.44 33.2116L130.466 29.4371C130.467 29.3846 130.458 29.3325 130.442 29.2839C130.425 29.2352 130.401 29.1909 130.37 29.1536C130.34 29.1163 130.303 29.0867 130.263 29.0665C130.222 29.0463 130.179 29.0358 130.135 29.0358L123.245 29.0875C123.201 29.0875 123.158 29.077 123.118 29.0566C123.077 29.0362 123.041 29.0062 123.01 28.9686C122.979 28.9309 122.955 28.8862 122.938 28.837C122.922 28.7879 122.914 28.7353 122.914 28.6822L122.931 27.5618C122.932 27.4578 122.968 27.3588 123.029 27.286C123.09 27.2132 123.172 27.1724 123.258 27.1724L130.201 27.1526C130.244 27.1521 130.287 27.1412 130.327 27.1205C130.367 27.0999 130.403 27.0699 130.434 27.0322C130.464 26.9946 130.488 26.9501 130.504 26.9012C130.521 26.8523 130.529 26.8 130.528 26.7473L130.496 23.4576C130.495 23.3522 130.46 23.2516 130.398 23.1778C130.337 23.104 130.254 23.0632 130.168 23.0642L118.549 23.1795C118.462 23.1805 118.38 23.2228 118.319 23.2972C118.259 23.3716 118.224 23.4721 118.224 23.5768V40.5897C118.224 40.6951 118.259 40.7961 118.32 40.8706C118.382 40.9451 118.465 40.987 118.552 40.987L130.997 40.9949" stroke="white" stroke-width="0.654984"/>
<path d="M0 41.0467L4.58816 40.9712C4.67473 40.9691 4.75718 40.9264 4.8178 40.8521C4.87842 40.7778 4.91238 40.6779 4.91238 40.5739V35.9969C4.91237 35.8922 4.94643 35.7917 5.00714 35.7173C5.06785 35.6429 5.15031 35.6006 5.23659 35.5996C6.50945 35.5916 7.76811 35.4433 9.01257 35.1546C10.2538 34.8685 11.495 34.1573 12.1041 32.9098C13.3682 30.3193 13.378 25.329 10.7123 23.7159C9.69376 23.1001 8.11525 22.9809 6.9592 22.9889C4.64056 23.0074 2.32083 23.0008 0 22.969" stroke="white" stroke-width="0.654984"/>
<path d="M65.3056 22.9929L62.6431 21.3282C62.5935 21.2978 62.5383 21.2833 62.4828 21.286C62.4273 21.2886 62.3733 21.3083 62.3258 21.3433C62.2783 21.3783 62.2389 21.4273 62.2114 21.4858C62.1838 21.5443 62.169 21.6104 62.1682 21.6778L62.0176 40.57C62.0172 40.6225 62.0253 40.6746 62.0416 40.7233C62.0578 40.7719 62.0819 40.8162 62.1124 40.8535C62.1428 40.8908 62.1791 40.9205 62.219 40.9407C62.2589 40.9609 62.3018 40.9713 62.3451 40.9713H65.5807C65.6676 40.9713 65.7509 40.9294 65.8123 40.8549C65.8737 40.7804 65.9082 40.6794 65.9082 40.574L65.9115 24.5821C65.9115 23.7769 65.7095 23.2472 65.3056 22.9929Z" stroke="white" stroke-width="0.654984"/>
<path d="M54.7996 32.6119C54.7994 32.6518 54.7887 32.6906 54.769 32.7226C54.7493 32.7546 54.7217 32.7781 54.6902 32.7897C54.6587 32.8012 54.625 32.8002 54.5939 32.7868C54.5629 32.7734 54.5363 32.7483 54.5179 32.7152L49.1929 23.136C49.1785 23.1111 49.1594 23.0909 49.1372 23.0771C49.1149 23.0632 49.0902 23.0561 49.0652 23.0565L44.9453 22.981C44.9249 22.9805 44.9045 22.9849 44.8854 22.9941C44.8664 23.0032 44.849 23.0169 44.8344 23.0343C44.8197 23.0517 44.8081 23.0724 44.8002 23.0953C44.7922 23.1183 44.7881 23.1429 44.7881 23.1677L44.7783 40.7687C44.7783 40.8175 44.7941 40.8644 44.8222 40.8993C44.8504 40.9342 44.8887 40.9544 44.929 40.9554L49.075 41.015C49.1158 41.015 49.155 40.9953 49.1839 40.9603C49.2127 40.9253 49.2289 40.8778 49.2289 40.8283L49.1471 31.7695C49.1465 31.7293 49.1567 31.6899 49.1761 31.6572C49.1956 31.6245 49.2232 31.6004 49.2549 31.5883C49.2865 31.5762 49.3206 31.5769 49.3519 31.5902C49.3832 31.6036 49.4102 31.6288 49.4287 31.6623L54.6653 40.9355C54.6793 40.9611 54.6983 40.9821 54.7206 40.9967C54.7428 41.0112 54.7677 41.0189 54.793 41.019L59.0439 40.9594C59.0841 40.9583 59.1224 40.9382 59.1506 40.9033C59.1788 40.8684 59.1945 40.8215 59.1945 40.7726V23.279C59.1945 23.2295 59.1783 23.182 59.1494 23.1469C59.1206 23.1119 59.0814 23.0922 59.0406 23.0922H54.9175C54.8766 23.0922 54.8375 23.1119 54.8086 23.1469C54.7798 23.182 54.7635 23.2295 54.7635 23.279L54.7996 32.6119Z" stroke="white" stroke-width="0.654984"/>
<path d="M27.346 36.7876C27.346 36.7586 27.3413 36.7299 27.332 36.7031C27.3228 36.6763 27.3092 36.652 27.2921 36.6317C27.275 36.6114 27.2548 36.5953 27.2326 36.5846C27.2103 36.5738 27.1866 36.5686 27.1626 36.5691L20.1609 36.6963C20.1369 36.6968 20.1132 36.6915 20.0909 36.6808C20.0687 36.67 20.0484 36.654 20.0314 36.6337C20.0143 36.6133 20.0007 36.5891 19.9915 36.5623C19.9822 36.5355 19.9775 36.5068 19.9775 36.4777V23.3108C19.9775 23.2529 19.9585 23.1973 19.9247 23.1563C19.8909 23.1153 19.8451 23.0923 19.7973 23.0923H15.5727C15.5249 23.0923 15.4791 23.1153 15.4453 23.1563C15.4116 23.1973 15.3926 23.2529 15.3926 23.3108V40.7528C15.3926 40.8108 15.4116 40.8664 15.4453 40.9073C15.4791 40.9483 15.5249 40.9713 15.5727 40.9713H27.1659C27.2137 40.9713 27.2595 40.9483 27.2933 40.9073C27.3271 40.8664 27.346 40.8108 27.346 40.7528V36.7876Z" stroke="white" stroke-width="0.654984"/>
<path d="M34.0952 36.6801L34.1574 33.6884C34.1591 33.5844 34.1944 33.4853 34.2556 33.4125C34.3168 33.3397 34.3992 33.299 34.4849 33.299L40.9856 33.3427C41.0289 33.3427 41.0718 33.3323 41.1117 33.3121C41.1517 33.2919 41.1879 33.2622 41.2184 33.2249C41.2488 33.1876 41.2729 33.1433 41.2891 33.0947C41.3054 33.046 41.3135 32.9939 41.3131 32.9414L41.2902 29.6715C41.2893 29.5682 41.2554 29.4693 41.1955 29.3959C41.1355 29.3225 41.0544 29.2803 40.9692 29.2782C39.0785 29.2385 37.1813 29.2332 35.2774 29.2623C34.2393 29.2742 33.378 28.861 34.0624 27.3671C34.0901 27.3058 34.1311 27.2547 34.1813 27.2191C34.2314 27.1834 34.2887 27.1646 34.3474 27.1645H41.6733C41.7602 27.1645 41.8435 27.1226 41.9049 27.0481C41.9663 26.9736 42.0008 26.8726 42.0008 26.7672V23.4894C42.0008 23.384 41.9663 23.2829 41.9049 23.2084C41.8435 23.1339 41.7602 23.092 41.6733 23.092H29.8836C29.7968 23.092 29.7135 23.1339 29.6521 23.2084C29.5907 23.2829 29.5562 23.384 29.5562 23.4894C29.5562 28.6359 29.5562 33.7824 29.5562 38.9289C29.5562 39.0931 29.531 39.3938 29.4808 39.8308C29.4546 40.0639 29.4437 40.3102 29.4481 40.5698C29.4506 40.6741 29.4863 40.7731 29.5474 40.8458C29.6085 40.9185 29.6904 40.9592 29.7756 40.9592L41.8371 40.987C41.924 40.987 42.0073 40.9451 42.0687 40.8706C42.1301 40.7961 42.1646 40.695 42.1646 40.5897V37.4986C42.1646 37.3939 42.1302 37.2934 42.0689 37.219C42.0075 37.1446 41.9242 37.1023 41.8371 37.1013L34.4227 37.0854C34.3788 37.0854 34.3354 37.0748 34.295 37.0543C34.2547 37.0338 34.2181 37.0037 34.1876 36.9659C34.157 36.9282 34.1331 36.8834 34.1172 36.8343C34.1014 36.7852 34.0939 36.7328 34.0952 36.6801Z" stroke="white" stroke-width="0.654984"/>
<path d="M77.1771 27.3197C77.1771 27.2993 77.1804 27.2792 77.1868 27.2604C77.1932 27.2416 77.2026 27.2245 77.2145 27.2101C77.2264 27.1957 77.2404 27.1843 77.2559 27.1765C77.2714 27.1687 77.288 27.1647 77.3048 27.1647H81.8275C81.8613 27.1647 81.8938 27.1484 81.9178 27.1194C81.9417 27.0903 81.9552 27.0509 81.9552 27.0098L81.9519 23.3625C81.9519 23.3421 81.9486 23.322 81.9422 23.3032C81.9358 23.2844 81.9264 23.2673 81.9145 23.2529C81.9027 23.2385 81.8886 23.2271 81.8731 23.2193C81.8576 23.2115 81.841 23.2075 81.8242 23.2075L68.0008 23.0923C67.9669 23.0923 67.9344 23.1086 67.9105 23.1377C67.8865 23.1667 67.873 23.2061 67.873 23.2472V27.0098C67.873 27.0509 67.8865 27.0903 67.9105 27.1194C67.9344 27.1484 67.9669 27.1647 68.0008 27.1647H72.4907C72.5077 27.1647 72.5246 27.1689 72.5403 27.1769C72.556 27.1849 72.5703 27.1967 72.5822 27.2115C72.5941 27.2263 72.6034 27.2439 72.6096 27.2631C72.6159 27.2824 72.6188 27.303 72.6184 27.3237L72.4645 40.8005C72.4645 40.8409 72.4775 40.8797 72.5007 40.9087C72.524 40.9376 72.5556 40.9544 72.5889 40.9554L77.1607 41.0111C77.178 41.0116 77.1953 41.0079 77.2114 41.0001C77.2275 40.9923 77.2421 40.9806 77.2543 40.9657C77.2666 40.9509 77.2762 40.9331 77.2827 40.9136C77.2891 40.8941 77.2922 40.8732 77.2917 40.8521L77.1771 27.3197Z" stroke="white" stroke-width="0.654984"/>
<path d="M95.3821 40.7923C97.8874 39.6679 98.6504 36.6801 98.6504 33.748C98.6504 30.339 98.6592 26.9195 98.6766 23.4894C98.6766 23.384 98.6421 23.2829 98.5807 23.2084C98.5193 23.1339 98.436 23.092 98.3491 23.092H94.4061C94.3193 23.092 94.236 23.1339 94.1746 23.2084C94.1132 23.2829 94.0786 23.384 94.0786 23.4894C94.0743 26.7367 94.071 29.9801 94.0688 33.2195C94.0666 34.43 93.9793 35.2736 93.8068 35.7504C93.0667 37.8085 90.3027 37.9992 89.3497 36.255C89.0527 35.712 88.9065 34.8472 88.9108 33.6606C88.9196 30.3099 88.9185 26.9393 88.9076 23.5489C88.9067 23.4439 88.8719 23.3434 88.8107 23.2692C88.7495 23.1949 88.6667 23.1527 88.5801 23.1516L84.66 23.1278C84.5723 23.1278 84.4881 23.1697 84.4261 23.2442C84.3641 23.3187 84.3292 23.4197 84.3292 23.5251C84.327 26.9658 84.3281 30.4198 84.3325 33.887C84.3347 35.4418 84.4864 36.6099 84.7877 37.3913C85.5933 39.4931 87.2341 41.0863 89.2416 41.0744C90.938 41.0665 93.8887 41.4598 95.3821 40.7923Z" stroke="white" stroke-width="0.654984"/>
<path d="M112.038 40.7011C113.18 40.2004 114.045 39.4071 114.635 38.3212C114.841 37.9437 114.936 37.3795 115.303 37.0021C115.368 36.936 115.409 36.8433 115.418 36.7438C115.696 33.6567 115.968 29.5127 114.92 26.8945C113.495 23.3385 111.055 23.1756 107.803 23.1955C105.993 23.2087 104.177 23.1849 102.354 23.124C102.31 23.1224 102.266 23.1314 102.226 23.1504C102.185 23.1695 102.147 23.1982 102.116 23.2349C102.085 23.2716 102.06 23.3155 102.042 23.364C102.025 23.4125 102.017 23.4646 102.017 23.5173L102.007 40.5819C102.007 40.6872 102.041 40.7883 102.103 40.8628C102.164 40.9373 102.247 40.9792 102.334 40.9792L111.019 40.9553C111.308 40.9553 111.647 40.8706 112.038 40.7011Z" stroke="white" stroke-width="0.654984"/>
<path d="M7.64978 30.8833C8.70649 29.2173 8.58641 27.9975 7.28954 27.2241C6.97297 27.036 6.24812 27.0347 5.115 27.2201C5.03648 27.2317 4.96418 27.2781 4.9117 27.3506C4.85922 27.423 4.83019 27.5165 4.83008 27.6134V30.6688C4.83008 30.7213 4.83865 30.7733 4.85532 30.8217C4.87198 30.8702 4.8964 30.9142 4.92715 30.9511C4.95791 30.9881 4.9944 31.0173 5.03451 31.037C5.07463 31.0567 5.11756 31.0666 5.16084 31.0661L7.39434 31.0383C7.44351 31.0369 7.49189 31.0224 7.53604 30.9956C7.5802 30.9688 7.61903 30.9305 7.64978 30.8833Z" stroke="white" stroke-width="0.654984"/>
<path d="M106.54 27.697L106.606 36.6842C106.606 36.7392 106.616 36.7935 106.634 36.8437C106.652 36.8939 106.679 36.9389 106.713 36.9759C106.746 37.0129 106.786 37.041 106.829 37.0585C106.872 37.076 106.917 37.0825 106.963 37.0775L109.959 36.7477C110.011 36.743 110.061 36.7231 110.104 36.6899C110.148 36.6567 110.185 36.6111 110.211 36.557C111.351 34.2327 111.891 29.5524 109.687 27.7923C108.84 27.1169 107.872 26.9553 106.782 27.3076C106.712 27.3306 106.65 27.3813 106.606 27.4518C106.562 27.5224 106.539 27.6086 106.54 27.697Z" stroke="white" stroke-width="0.654984"/>
<path d="M66.995 12.8138L66.3761 13.3541C66.317 13.4055 66.2454 13.4314 66.1725 13.4278C66.0996 13.4242 66.0295 13.3913 65.9732 13.3343C65.5126 12.8681 65.2375 12.3012 65.148 11.6338C64.9154 9.88161 67.8792 7.1044 68.8748 6.43691C70.7972 5.14962 73.1715 4.27553 75.1823 2.76972C75.9617 2.18435 76.5359 1.39502 76.9049 0.401736C77.1123 -0.151852 77.2772 -0.133311 77.3994 0.45736C78.2083 4.39473 77.4878 8.16125 75.7259 11.5622C73.8178 15.2466 70.8791 17.163 66.9099 17.3113C66.8286 17.3149 66.7492 17.281 66.6873 17.2162C66.6254 17.1515 66.5856 17.0606 66.5758 16.9617L66.3662 14.8361C66.3611 14.7811 66.3654 14.7254 66.3789 14.6727C66.3925 14.62 66.4149 14.5715 66.4448 14.5302L67.3454 13.2786C68.3497 11.8854 68.2329 11.7304 66.995 12.8138Z" fill="white"/>
<path d="M61.9058 14.9989C63.0553 16.1948 64.863 18.1376 65.4558 19.8262C65.5562 20.1123 65.6512 20.3917 65.7407 20.6645C65.9918 21.4221 65.8324 21.5837 65.2626 21.1493C64.9329 20.8976 64.5978 20.6592 64.2572 20.4341C63.8751 20.1851 63.4199 19.956 62.8915 19.7468C58.8699 18.1575 55.988 17.3033 55.238 12.1939C54.952 10.2417 54.8702 8.45249 54.9924 6.82616C54.9972 6.75919 55.0161 6.69489 55.0474 6.63942C55.0787 6.58394 55.1214 6.53913 55.1713 6.50925C55.2212 6.47937 55.2767 6.46543 55.3325 6.46874C55.3884 6.47205 55.4427 6.49251 55.4902 6.52818C57.1451 7.77309 58.8699 8.83392 60.6646 9.71065C62.3086 10.5132 63.3522 11.1317 63.7954 11.5661C65.208 12.9487 65.9143 14.8744 65.9143 17.343C65.9143 17.8913 65.7374 17.9946 65.3837 17.6529C64.3248 16.6358 63.2081 15.6333 62.0335 14.6453C61.6241 14.2996 61.7388 14.8241 61.9058 14.9989Z" fill="white"/>
<path d="M65.3056 22.9929C65.7095 23.2472 65.9115 23.7769 65.9115 24.5821L65.9082 40.574C65.9082 40.6794 65.8737 40.7804 65.8123 40.8549C65.7509 40.9294 65.6676 40.9713 65.5807 40.9713H62.3451C62.3018 40.9713 62.2589 40.9609 62.219 40.9407C62.1791 40.9205 62.1428 40.8908 62.1124 40.8535C62.0819 40.8162 62.0578 40.7719 62.0416 40.7233C62.0253 40.6746 62.0172 40.6225 62.0176 40.57L62.1682 21.6778C62.169 21.6104 62.1838 21.5443 62.2114 21.4858C62.2389 21.4273 62.2783 21.3783 62.3258 21.3433C62.3733 21.3083 62.4273 21.2886 62.4828 21.286C62.5383 21.2833 62.5935 21.2978 62.6431 21.3282L65.3056 22.9929Z" fill="white"/>
<path d="M0 22.969C2.32083 23.0008 4.64056 23.0074 6.9592 22.9889C8.11525 22.9809 9.69376 23.1001 10.7123 23.7159C13.378 25.329 13.3682 30.3193 12.1041 32.9098C11.495 34.1573 10.2538 34.8685 9.01257 35.1546C7.76811 35.4433 6.50945 35.5916 5.23659 35.5996C5.15031 35.6006 5.06785 35.6429 5.00714 35.7173C4.94643 35.7917 4.91237 35.8922 4.91238 35.9969V40.5739C4.91238 40.6779 4.87842 40.7778 4.8178 40.8521C4.75718 40.9264 4.67473 40.9691 4.58816 40.9712L0 41.0467V22.969ZM7.65021 30.8835C8.70691 29.2174 8.58683 27.9976 7.28997 27.2242C6.97339 27.0361 6.24854 27.0348 5.11542 27.2202C5.0369 27.2319 4.9646 27.2783 4.91213 27.3507C4.85965 27.4232 4.83062 27.5167 4.8305 27.6136V30.6689C4.8305 30.7214 4.83908 30.7734 4.85574 30.8219C4.8724 30.8703 4.89682 30.9143 4.92758 30.9513C4.95834 30.9882 4.99483 31.0174 5.03494 31.0371C5.07505 31.0569 5.11799 31.0668 5.16127 31.0662L7.39476 31.0384C7.44393 31.0371 7.49231 31.0225 7.53647 30.9957C7.58062 30.9689 7.61946 30.9306 7.65021 30.8835Z" fill="white"/>
<path d="M54.7996 32.6119L54.7635 23.279C54.7635 23.2295 54.7798 23.182 54.8086 23.1469C54.8375 23.1119 54.8766 23.0922 54.9175 23.0922H59.0406C59.0814 23.0922 59.1206 23.1119 59.1494 23.1469C59.1783 23.182 59.1945 23.2295 59.1945 23.279V40.7726C59.1945 40.8215 59.1788 40.8684 59.1506 40.9033C59.1224 40.9382 59.0841 40.9583 59.0439 40.9594L54.793 41.019C54.7677 41.0189 54.7428 41.0112 54.7206 40.9967C54.6983 40.9821 54.6793 40.9611 54.6653 40.9355L49.4287 31.6623C49.4102 31.6288 49.3832 31.6036 49.3519 31.5902C49.3206 31.5769 49.2865 31.5762 49.2549 31.5883C49.2232 31.6004 49.1956 31.6245 49.1761 31.6572C49.1567 31.6899 49.1465 31.7293 49.1471 31.7695L49.2289 40.8283C49.2289 40.8778 49.2127 40.9253 49.1839 40.9603C49.155 40.9953 49.1158 41.015 49.075 41.015L44.929 40.9554C44.8887 40.9544 44.8504 40.9342 44.8222 40.8993C44.7941 40.8644 44.7783 40.8175 44.7783 40.7687L44.7881 23.1677C44.7881 23.1429 44.7922 23.1183 44.8002 23.0953C44.8081 23.0724 44.8197 23.0517 44.8344 23.0343C44.849 23.0169 44.8664 23.0032 44.8854 22.9941C44.9045 22.9849 44.9249 22.9805 44.9453 22.981L49.0652 23.0565C49.0902 23.0561 49.1149 23.0632 49.1372 23.0771C49.1594 23.0909 49.1785 23.1111 49.1929 23.136L54.5179 32.7152C54.5363 32.7483 54.5629 32.7734 54.5939 32.7868C54.625 32.8002 54.6587 32.8012 54.6902 32.7897C54.7217 32.7781 54.7493 32.7546 54.769 32.7226C54.7887 32.6906 54.7994 32.6518 54.7996 32.6119Z" fill="white"/>
<path d="M27.346 36.7876V40.7528C27.346 40.8108 27.3271 40.8664 27.2933 40.9073C27.2595 40.9483 27.2137 40.9713 27.1659 40.9713H15.5727C15.5249 40.9713 15.4791 40.9483 15.4453 40.9073C15.4116 40.8664 15.3926 40.8108 15.3926 40.7528V23.3108C15.3926 23.2529 15.4116 23.1973 15.4453 23.1563C15.4791 23.1153 15.5249 23.0923 15.5727 23.0923H19.7973C19.8451 23.0923 19.8909 23.1153 19.9247 23.1563C19.9585 23.1973 19.9775 23.2529 19.9775 23.3108V36.4777C19.9775 36.5068 19.9822 36.5355 19.9915 36.5623C20.0007 36.5891 20.0143 36.6133 20.0314 36.6337C20.0484 36.654 20.0687 36.67 20.0909 36.6808C20.1132 36.6915 20.1369 36.6968 20.1609 36.6963L27.1626 36.5691C27.1866 36.5686 27.2103 36.5738 27.2326 36.5846C27.2548 36.5953 27.275 36.6114 27.2921 36.6317C27.3092 36.652 27.3228 36.6763 27.332 36.7031C27.3413 36.7299 27.346 36.7586 27.346 36.7876Z" fill="white"/>
<path d="M34.4227 37.0856L41.8371 37.1015C41.9242 37.1026 42.0075 37.1449 42.0689 37.2193C42.1302 37.2937 42.1646 37.3941 42.1646 37.4988V40.5899C42.1646 40.6953 42.1301 40.7963 42.0687 40.8709C42.0073 40.9454 41.924 40.9872 41.8371 40.9872L29.7756 40.9594C29.6904 40.9594 29.6085 40.9188 29.5474 40.8461C29.4863 40.7734 29.4506 40.6744 29.4481 40.5701C29.4437 40.3105 29.4546 40.0641 29.4808 39.8311C29.531 39.394 29.5562 39.0934 29.5562 38.9292C29.5562 33.7826 29.5562 28.6361 29.5562 23.4896C29.5562 23.3842 29.5907 23.2832 29.6521 23.2087C29.7135 23.1341 29.7968 23.0923 29.8836 23.0923H41.6733C41.7602 23.0923 41.8435 23.1341 41.9049 23.2087C41.9663 23.2832 42.0008 23.3842 42.0008 23.4896V26.7674C42.0008 26.8728 41.9663 26.9739 41.9049 27.0484C41.8435 27.1229 41.7602 27.1647 41.6733 27.1647H34.3474C34.2887 27.1648 34.2314 27.1837 34.1813 27.2193C34.1311 27.255 34.0901 27.3061 34.0624 27.3674C33.378 28.8613 34.2393 29.2745 35.2774 29.2625C37.1813 29.2334 39.0785 29.2387 40.9692 29.2784C41.0544 29.2805 41.1355 29.3227 41.1955 29.3962C41.2554 29.4696 41.2893 29.5685 41.2902 29.6718L41.3131 32.9417C41.3135 32.9942 41.3054 33.0463 41.2891 33.0949C41.2729 33.1436 41.2488 33.1879 41.2184 33.2252C41.1879 33.2625 41.1517 33.2921 41.1117 33.3123C41.0718 33.3325 41.0289 33.3429 40.9856 33.3429L34.4849 33.2992C34.3992 33.2992 34.3168 33.34 34.2556 33.4128C34.1944 33.4856 34.1591 33.5846 34.1574 33.6886L34.0952 36.6804C34.0939 36.733 34.1014 36.7854 34.1172 36.8345C34.1331 36.8836 34.157 36.9284 34.1876 36.9662C34.2181 37.004 34.2547 37.034 34.295 37.0546C34.3354 37.0751 34.3788 37.0856 34.4227 37.0856Z" fill="white"/>
<path d="M77.1771 27.3197L77.2917 40.8521C77.2922 40.8732 77.2891 40.8941 77.2827 40.9136C77.2762 40.9331 77.2666 40.9509 77.2543 40.9657C77.2421 40.9806 77.2275 40.9923 77.2114 41.0001C77.1953 41.0079 77.178 41.0116 77.1607 41.0111L72.5889 40.9554C72.5556 40.9544 72.524 40.9376 72.5007 40.9087C72.4775 40.8797 72.4645 40.8409 72.4645 40.8005L72.6184 27.3237C72.6188 27.303 72.6159 27.2824 72.6096 27.2631C72.6034 27.2439 72.5941 27.2263 72.5822 27.2115C72.5703 27.1967 72.556 27.1849 72.5403 27.1769C72.5246 27.1689 72.5077 27.1647 72.4907 27.1647H68.0008C67.9669 27.1647 67.9344 27.1484 67.9105 27.1194C67.8865 27.0903 67.873 27.0509 67.873 27.0098V23.2472C67.873 23.2061 67.8865 23.1667 67.9105 23.1377C67.9344 23.1086 67.9669 23.0923 68.0008 23.0923L81.8242 23.2075C81.841 23.2075 81.8576 23.2115 81.8731 23.2193C81.8886 23.2271 81.9027 23.2385 81.9145 23.2529C81.9264 23.2673 81.9358 23.2844 81.9422 23.3032C81.9486 23.322 81.9519 23.3421 81.9519 23.3625L81.9552 27.0098C81.9552 27.0509 81.9417 27.0903 81.9178 27.1194C81.8938 27.1484 81.8613 27.1647 81.8275 27.1647H77.3048C77.288 27.1647 77.2714 27.1687 77.2559 27.1765C77.2404 27.1843 77.2264 27.1957 77.2145 27.2101C77.2026 27.2245 77.1932 27.2416 77.1868 27.2604C77.1804 27.2792 77.1771 27.2993 77.1771 27.3197Z" fill="white"/>
<path d="M98.6504 33.7482C98.6504 36.6804 97.8874 39.6682 95.3821 40.7926C93.8887 41.46 90.938 41.0667 89.2416 41.0746C87.2341 41.0866 85.5933 39.4934 84.7877 37.3916C84.4864 36.6102 84.3347 35.4421 84.3325 33.8873C84.3281 30.4201 84.327 26.9661 84.3292 23.5254C84.3292 23.42 84.3641 23.3189 84.4261 23.2444C84.4881 23.1699 84.5723 23.128 84.66 23.128L88.5801 23.1519C88.6667 23.1529 88.7495 23.1951 88.8107 23.2694C88.8719 23.3437 88.9067 23.4441 88.9076 23.5492C88.9185 26.9396 88.9196 30.3101 88.9108 33.6608C88.9065 34.8474 89.0527 35.7123 89.3497 36.2553C90.3027 37.9995 93.0667 37.8087 93.8068 35.7507C93.9793 35.2739 94.0666 34.4303 94.0688 33.2198C94.071 29.9804 94.0743 26.737 94.0786 23.4896C94.0786 23.3842 94.1132 23.2832 94.1746 23.2087C94.236 23.1341 94.3193 23.0923 94.4061 23.0923H98.3491C98.436 23.0923 98.5193 23.1341 98.5807 23.2087C98.6421 23.2832 98.6766 23.3842 98.6766 23.4896C98.6592 26.9197 98.6504 30.3393 98.6504 33.7482Z" fill="white"/>
<path d="M112.038 40.7011C111.647 40.8706 111.308 40.9553 111.019 40.9553L102.334 40.9792C102.247 40.9792 102.164 40.9373 102.103 40.8628C102.041 40.7883 102.007 40.6872 102.007 40.5819L102.017 23.5173C102.017 23.4646 102.025 23.4125 102.042 23.364C102.06 23.3155 102.085 23.2716 102.116 23.2349C102.147 23.1982 102.185 23.1695 102.226 23.1504C102.266 23.1314 102.31 23.1224 102.354 23.124C104.177 23.1849 105.993 23.2087 107.803 23.1955C111.055 23.1756 113.495 23.3385 114.92 26.8945C115.968 29.5127 115.696 33.6567 115.418 36.7438C115.409 36.8433 115.368 36.936 115.303 37.0021C114.936 37.3795 114.841 37.9437 114.635 38.3212C114.045 39.4071 113.18 40.2004 112.038 40.7011ZM106.539 27.697L106.605 36.6842C106.605 36.7392 106.615 36.7935 106.633 36.8438C106.652 36.894 106.679 36.939 106.712 36.976C106.746 37.0129 106.785 37.0411 106.828 37.0586C106.871 37.076 106.917 37.0825 106.962 37.0776L109.958 36.7478C110.01 36.743 110.06 36.7232 110.104 36.69C110.148 36.6568 110.184 36.6112 110.211 36.5571C111.35 34.2328 111.891 29.5525 109.687 27.7924C108.839 27.1169 107.871 26.9554 106.782 27.3077C106.711 27.3306 106.649 27.3814 106.605 27.4519C106.562 27.5224 106.538 27.6087 106.539 27.697Z" fill="white"/>
<path d="M131 37.1691L130.997 40.9952L118.552 40.9872C118.465 40.9872 118.382 40.9454 118.32 40.8709C118.259 40.7964 118.224 40.6953 118.224 40.5899V23.577C118.224 23.4723 118.259 23.3719 118.319 23.2975C118.38 23.2231 118.462 23.1807 118.549 23.1797L130.168 23.0645C130.254 23.0634 130.337 23.1043 130.398 23.178C130.46 23.2518 130.495 23.3524 130.496 23.4578L130.528 26.7476C130.529 26.8003 130.521 26.8525 130.504 26.9014C130.488 26.9503 130.464 26.9948 130.434 27.0325C130.403 27.0701 130.367 27.1001 130.327 27.1208C130.287 27.1414 130.244 27.1523 130.201 27.1528L123.258 27.1727C123.172 27.1727 123.09 27.2134 123.029 27.2862C122.968 27.359 122.932 27.4581 122.931 27.5621L122.914 28.6825C122.914 28.7355 122.922 28.7881 122.938 28.8373C122.955 28.8864 122.979 28.9311 123.01 28.9688C123.041 29.0065 123.077 29.0364 123.118 29.0568C123.158 29.0772 123.201 29.0877 123.245 29.0877L130.135 29.0361C130.179 29.0361 130.222 29.0465 130.263 29.0667C130.303 29.0869 130.34 29.1166 130.37 29.1539C130.401 29.1912 130.425 29.2355 130.442 29.2841C130.458 29.3328 130.467 29.3849 130.466 29.4374L130.44 33.2118C130.439 33.3169 130.404 33.4173 130.343 33.4916C130.282 33.5659 130.199 33.6081 130.112 33.6091L123.31 33.629C123.225 33.629 123.142 33.6698 123.081 33.7426C123.02 33.8154 122.985 33.9144 122.983 34.0184L122.944 36.5493C122.943 36.6028 122.952 36.6559 122.969 36.7053C122.985 36.7548 123.01 36.7996 123.042 36.8371C123.073 36.8746 123.111 36.9039 123.152 36.9234C123.193 36.9429 123.237 36.9522 123.281 36.9505C125.857 36.8843 128.43 36.9572 131 37.1691Z" fill="white"/>
</svg>
