<svg width="132" height="43" viewBox="0 0 132 43" fill="none" xmlns="http://www.w3.org/2000/svg">
<path d="M131 38.1688C128.43 37.9569 125.857 37.8841 123.281 37.9503C123.237 37.9519 123.193 37.9427 123.152 37.9232C123.111 37.9037 123.073 37.8743 123.042 37.8368C123.01 37.7994 122.985 37.7546 122.969 37.7051C122.952 37.6556 122.943 37.6025 122.944 37.549L122.983 35.0181C122.985 34.9141 123.02 34.8151 123.081 34.7423C123.142 34.6695 123.225 34.6287 123.31 34.6288L130.112 34.6089C130.199 34.6079 130.282 34.5657 130.343 34.4914C130.404 34.4171 130.439 34.3166 130.44 34.2116L130.466 30.4371C130.467 30.3846 130.458 30.3325 130.442 30.2839C130.426 30.2352 130.401 30.1909 130.37 30.1536C130.34 30.1163 130.303 30.0867 130.263 30.0665C130.222 30.0463 130.179 30.0358 130.135 30.0358L123.245 30.0875C123.201 30.0875 123.158 30.077 123.118 30.0566C123.077 30.0362 123.041 30.0062 123.01 29.9686C122.979 29.9309 122.955 29.8862 122.938 29.837C122.922 29.7879 122.914 29.7353 122.914 29.6822L122.931 28.5618C122.932 28.4578 122.968 28.3588 123.029 28.286C123.09 28.2132 123.172 28.1724 123.258 28.1724L130.201 28.1526C130.244 28.1521 130.287 28.1412 130.327 28.1205C130.367 28.0999 130.403 28.0699 130.434 28.0322C130.464 27.9946 130.488 27.9501 130.504 27.9012C130.521 27.8523 130.529 27.8 130.528 27.7473L130.496 24.4576C130.495 24.3522 130.46 24.2516 130.398 24.1778C130.337 24.104 130.254 24.0632 130.168 24.0642L118.549 24.1795C118.462 24.1805 118.38 24.2228 118.319 24.2972C118.259 24.3716 118.225 24.4721 118.225 24.5768V41.5897C118.225 41.6951 118.259 41.7961 118.32 41.8706C118.382 41.9451 118.465 41.987 118.552 41.987L130.997 41.9949" stroke="white" stroke-width="0.654984"/>
<path d="M0 42.0467L4.58816 41.9712C4.67473 41.9691 4.75718 41.9264 4.8178 41.8521C4.87842 41.7778 4.91238 41.6779 4.91238 41.5739V36.9969C4.91237 36.8922 4.94643 36.7917 5.00714 36.7173C5.06785 36.6429 5.15031 36.6006 5.23659 36.5996C6.50945 36.5916 7.76811 36.4433 9.01257 36.1546C10.2538 35.8685 11.495 35.1573 12.1041 33.9098C13.3682 31.3193 13.378 26.329 10.7123 24.7159C9.69376 24.1001 8.11525 23.9809 6.9592 23.9889C4.64056 24.0074 2.32083 24.0008 0 23.969" stroke="white" stroke-width="0.654984"/>
<path d="M67.3454 14.2786L66.4448 15.5302C66.4149 15.5715 66.3925 15.62 66.3789 15.6727C66.3654 15.7254 66.3611 15.7811 66.3662 15.8361L66.5758 17.9617C66.5856 18.0606 66.6254 18.1515 66.6873 18.2162C66.7492 18.281 66.8286 18.3149 66.9099 18.3114C70.8791 18.163 73.8178 16.2466 75.7259 12.5622C77.4878 9.16125 78.2083 5.39473 77.3994 1.45736C77.2772 0.866689 77.1123 0.848148 76.9049 1.40174C76.5359 2.39502 75.9617 3.18435 75.1823 3.76972C73.1715 5.27553 70.7972 6.14962 68.8748 7.43691C67.8792 8.1044 64.9154 10.8816 65.148 12.6338C65.2375 13.3012 65.5126 13.8681 65.9732 14.3343C66.0295 14.3913 66.0996 14.4242 66.1725 14.4278C66.2454 14.4314 66.317 14.4055 66.3761 14.3541L66.995 13.8138C68.2329 12.7304 68.3497 12.8854 67.3454 14.2786Z" stroke="#70B52D" stroke-width="0.654984"/>
<path d="M61.9058 15.9989C61.7388 15.8241 61.6241 15.2996 62.0335 15.6453C63.2081 16.6333 64.3248 17.6358 65.3837 18.6529C65.7374 18.9946 65.9143 18.8913 65.9143 18.343C65.9143 15.8744 65.208 13.9487 63.7954 12.5661C63.3522 12.1317 62.3086 11.5132 60.6646 10.7107C58.8699 9.83392 57.1451 8.77309 55.4902 7.52818C55.4427 7.49251 55.3884 7.47205 55.3325 7.46874C55.2767 7.46543 55.2212 7.47937 55.1713 7.50925C55.1214 7.53913 55.0787 7.58394 55.0474 7.63942C55.0161 7.69489 54.9972 7.75919 54.9924 7.82616C54.8702 9.45249 54.952 11.2417 55.238 13.1939C55.988 18.3033 58.8699 19.1575 62.8915 20.7468C63.4199 20.956 63.8751 21.1851 64.2572 21.4341C64.5978 21.6592 64.9329 21.8976 65.2626 22.1493C65.8324 22.5837 65.9918 22.4221 65.7407 21.6645C65.6512 21.3917 65.5562 21.1123 65.4558 20.8262C64.863 19.1376 63.0553 17.1948 61.9058 15.9989Z" stroke="#70B52D" stroke-width="0.654984"/>
<path d="M65.3056 23.9929L62.6431 22.3282C62.5935 22.2978 62.5383 22.2833 62.4828 22.286C62.4273 22.2886 62.3733 22.3083 62.3258 22.3433C62.2783 22.3783 62.2389 22.4273 62.2114 22.4858C62.1838 22.5443 62.169 22.6104 62.1682 22.6778L62.0176 41.57C62.0172 41.6225 62.0253 41.6746 62.0416 41.7233C62.0578 41.7719 62.0819 41.8162 62.1124 41.8535C62.1428 41.8908 62.1791 41.9205 62.219 41.9407C62.2589 41.9609 62.3018 41.9713 62.3451 41.9713H65.5807C65.6676 41.9713 65.7509 41.9294 65.8123 41.8549C65.8737 41.7804 65.9082 41.6794 65.9082 41.574L65.9115 25.5821C65.9115 24.7769 65.7095 24.2472 65.3056 23.9929Z" stroke="white" stroke-width="0.654984"/>
<path d="M54.7996 33.6119C54.7994 33.6518 54.7887 33.6906 54.769 33.7226C54.7493 33.7546 54.7217 33.7781 54.6902 33.7897C54.6587 33.8012 54.625 33.8002 54.5939 33.7868C54.5629 33.7734 54.5363 33.7483 54.5179 33.7152L49.1929 24.136C49.1785 24.1111 49.1594 24.0909 49.1372 24.0771C49.1149 24.0632 49.0902 24.0561 49.0652 24.0565L44.9453 23.981C44.9249 23.9805 44.9045 23.9849 44.8854 23.9941C44.8664 24.0032 44.849 24.0169 44.8344 24.0343C44.8197 24.0517 44.8081 24.0724 44.8002 24.0953C44.7922 24.1183 44.7881 24.1429 44.7881 24.1677L44.7783 41.7687C44.7783 41.8175 44.7941 41.8644 44.8222 41.8993C44.8504 41.9342 44.8887 41.9544 44.929 41.9554L49.075 42.015C49.1158 42.015 49.155 41.9953 49.1839 41.9603C49.2127 41.9253 49.2289 41.8778 49.2289 41.8283L49.1471 32.7695C49.1465 32.7293 49.1567 32.6899 49.1761 32.6572C49.1956 32.6245 49.2232 32.6004 49.2549 32.5883C49.2865 32.5762 49.3206 32.5769 49.3519 32.5902C49.3832 32.6036 49.4102 32.6288 49.4287 32.6623L54.6653 41.9355C54.6793 41.9611 54.6983 41.9821 54.7206 41.9967C54.7428 42.0112 54.7677 42.0189 54.793 42.019L59.0439 41.9594C59.0841 41.9583 59.1224 41.9382 59.1506 41.9033C59.1788 41.8684 59.1945 41.8215 59.1945 41.7726V24.279C59.1945 24.2295 59.1783 24.182 59.1494 24.1469C59.1206 24.1119 59.0814 24.0922 59.0406 24.0922H54.9175C54.8766 24.0922 54.8375 24.1119 54.8086 24.1469C54.7798 24.182 54.7635 24.2295 54.7635 24.279L54.7996 33.6119Z" stroke="white" stroke-width="0.654984"/>
<path d="M27.346 37.7876C27.346 37.7586 27.3413 37.7299 27.332 37.7031C27.3228 37.6763 27.3092 37.652 27.2921 37.6317C27.275 37.6114 27.2548 37.5953 27.2326 37.5846C27.2103 37.5738 27.1866 37.5686 27.1626 37.5691L20.1609 37.6963C20.1369 37.6968 20.1132 37.6915 20.0909 37.6808C20.0687 37.67 20.0484 37.654 20.0314 37.6337C20.0143 37.6133 20.0007 37.5891 19.9915 37.5623C19.9822 37.5355 19.9775 37.5068 19.9775 37.4777V24.3108C19.9775 24.2529 19.9585 24.1973 19.9247 24.1563C19.8909 24.1153 19.8451 24.0923 19.7973 24.0923H15.5727C15.5249 24.0923 15.4791 24.1153 15.4453 24.1563C15.4116 24.1973 15.3926 24.2529 15.3926 24.3108V41.7528C15.3926 41.8108 15.4116 41.8664 15.4453 41.9073C15.4791 41.9483 15.5249 41.9713 15.5727 41.9713H27.1659C27.2137 41.9713 27.2595 41.9483 27.2933 41.9073C27.3271 41.8664 27.346 41.8108 27.346 41.7528V37.7876Z" stroke="white" stroke-width="0.654984"/>
<path d="M34.0952 37.6801L34.1574 34.6884C34.1591 34.5844 34.1944 34.4853 34.2556 34.4125C34.3168 34.3397 34.3992 34.299 34.4849 34.299L40.9856 34.3427C41.0289 34.3427 41.0718 34.3323 41.1117 34.3121C41.1517 34.2919 41.1879 34.2622 41.2184 34.2249C41.2488 34.1876 41.2729 34.1433 41.2891 34.0947C41.3054 34.046 41.3135 33.9939 41.3131 33.9414L41.2902 30.6715C41.2893 30.5682 41.2554 30.4693 41.1955 30.3959C41.1355 30.3225 41.0544 30.2803 40.9692 30.2782C39.0785 30.2385 37.1813 30.2332 35.2774 30.2623C34.2393 30.2742 33.378 29.861 34.0624 28.3671C34.0901 28.3058 34.1311 28.2547 34.1813 28.2191C34.2314 28.1834 34.2887 28.1646 34.3474 28.1645H41.6733C41.7602 28.1645 41.8435 28.1226 41.9049 28.0481C41.9663 27.9736 42.0008 27.8726 42.0008 27.7672V24.4894C42.0008 24.384 41.9663 24.2829 41.9049 24.2084C41.8435 24.1339 41.7602 24.092 41.6733 24.092H29.8836C29.7968 24.092 29.7135 24.1339 29.6521 24.2084C29.5907 24.2829 29.5562 24.384 29.5562 24.4894C29.5562 29.6359 29.5562 34.7824 29.5562 39.9289C29.5562 40.0931 29.531 40.3938 29.4808 40.8308C29.4546 41.0639 29.4437 41.3102 29.4481 41.5698C29.4506 41.6741 29.4863 41.7731 29.5474 41.8458C29.6085 41.9185 29.6904 41.9592 29.7756 41.9592L41.8371 41.987C41.924 41.987 42.0073 41.9451 42.0687 41.8706C42.1301 41.7961 42.1646 41.695 42.1646 41.5897V38.4986C42.1646 38.3939 42.1302 38.2934 42.0689 38.219C42.0075 38.1446 41.9242 38.1023 41.8371 38.1013L34.4227 38.0854C34.3788 38.0854 34.3354 38.0748 34.295 38.0543C34.2547 38.0338 34.2181 38.0037 34.1876 37.9659C34.157 37.9282 34.1331 37.8834 34.1172 37.8343C34.1014 37.7852 34.0939 37.7328 34.0952 37.6801Z" stroke="white" stroke-width="0.654984"/>
<path d="M77.1771 28.3197C77.1771 28.2993 77.1804 28.2792 77.1868 28.2604C77.1932 28.2416 77.2026 28.2245 77.2145 28.2101C77.2264 28.1957 77.2404 28.1843 77.2559 28.1765C77.2714 28.1687 77.288 28.1647 77.3048 28.1647H81.8275C81.8613 28.1647 81.8938 28.1484 81.9178 28.1194C81.9417 28.0903 81.9552 28.0509 81.9552 28.0098L81.9519 24.3625C81.9519 24.3421 81.9486 24.322 81.9422 24.3032C81.9358 24.2844 81.9264 24.2673 81.9145 24.2529C81.9027 24.2385 81.8886 24.2271 81.8731 24.2193C81.8576 24.2115 81.841 24.2075 81.8242 24.2075L68.0008 24.0923C67.9669 24.0923 67.9344 24.1086 67.9105 24.1377C67.8865 24.1667 67.873 24.2061 67.873 24.2472V28.0098C67.873 28.0509 67.8865 28.0903 67.9105 28.1194C67.9344 28.1484 67.9669 28.1647 68.0008 28.1647H72.4907C72.5077 28.1647 72.5246 28.1689 72.5403 28.1769C72.556 28.1849 72.5703 28.1967 72.5822 28.2115C72.5941 28.2263 72.6034 28.2439 72.6096 28.2631C72.6159 28.2824 72.6188 28.303 72.6184 28.3237L72.4645 41.8005C72.4645 41.8409 72.4775 41.8797 72.5007 41.9087C72.524 41.9376 72.5556 41.9544 72.5889 41.9554L77.1607 42.0111C77.178 42.0116 77.1953 42.0079 77.2114 42.0001C77.2275 41.9923 77.2421 41.9806 77.2543 41.9657C77.2666 41.9509 77.2762 41.9331 77.2827 41.9136C77.2891 41.8941 77.2922 41.8732 77.2917 41.8521L77.1771 28.3197Z" stroke="white" stroke-width="0.654984"/>
<path d="M95.382 41.7923C97.8873 40.6679 98.6504 37.6801 98.6504 34.748C98.6504 31.339 98.6591 27.9195 98.6766 24.4894C98.6766 24.384 98.6421 24.2829 98.5807 24.2084C98.5192 24.1339 98.4359 24.092 98.3491 24.092H94.4061C94.3192 24.092 94.2359 24.1339 94.1745 24.2084C94.1131 24.2829 94.0786 24.384 94.0786 24.4894C94.0742 27.7367 94.0709 30.9801 94.0688 34.2195C94.0666 35.43 93.9792 36.2736 93.8068 36.7504C93.0666 38.8085 90.3026 38.9992 89.3496 37.255C89.0527 36.712 88.9064 35.8472 88.9108 34.6606C88.9195 31.3099 88.9184 27.9393 88.9075 24.5489C88.9066 24.4439 88.8719 24.3434 88.8106 24.2692C88.7494 24.1949 88.6666 24.1527 88.58 24.1516L84.6599 24.1278C84.5722 24.1278 84.4881 24.1697 84.426 24.2442C84.364 24.3187 84.3292 24.4197 84.3292 24.5251C84.327 27.9658 84.3281 31.4198 84.3324 34.887C84.3346 36.4418 84.4863 37.6099 84.7876 38.3913C85.5933 40.4931 87.234 42.0863 89.2415 42.0744C90.9379 42.0665 93.8886 42.4598 95.382 41.7923Z" stroke="white" stroke-width="0.654984"/>
<path d="M112.038 41.7011C113.18 41.2004 114.045 40.4071 114.635 39.3212C114.841 38.9437 114.936 38.3795 115.303 38.0021C115.368 37.936 115.409 37.8433 115.418 37.7438C115.696 34.6567 115.968 30.5127 114.92 27.8945C113.495 24.3385 111.055 24.1756 107.803 24.1955C105.993 24.2087 104.177 24.1849 102.354 24.124C102.31 24.1224 102.266 24.1314 102.226 24.1504C102.185 24.1695 102.147 24.1982 102.116 24.2349C102.085 24.2716 102.06 24.3155 102.042 24.364C102.025 24.4125 102.017 24.4646 102.017 24.5173L102.007 41.5819C102.007 41.6872 102.041 41.7883 102.103 41.8628C102.164 41.9373 102.247 41.9792 102.334 41.9792L111.019 41.9553C111.308 41.9553 111.647 41.8706 112.038 41.7011Z" stroke="white" stroke-width="0.654984"/>
<path d="M7.64978 31.8833C8.70649 30.2173 8.58641 28.9975 7.28954 28.2241C6.97297 28.036 6.24812 28.0347 5.115 28.2201C5.03648 28.2317 4.96418 28.2781 4.9117 28.3506C4.85922 28.423 4.83019 28.5165 4.83008 28.6134V31.6688C4.83008 31.7213 4.83865 31.7733 4.85532 31.8217C4.87198 31.8702 4.8964 31.9142 4.92715 31.9511C4.95791 31.9881 4.9944 32.0173 5.03451 32.037C5.07463 32.0567 5.11756 32.0666 5.16084 32.0661L7.39434 32.0383C7.44351 32.0369 7.49189 32.0224 7.53604 31.9956C7.5802 31.9688 7.61903 31.9305 7.64978 31.8833Z" stroke="white" stroke-width="0.654984"/>
<path d="M106.54 28.697L106.606 37.6842C106.606 37.7392 106.616 37.7935 106.634 37.8437C106.652 37.8939 106.679 37.9389 106.713 37.9759C106.746 38.0129 106.786 38.041 106.829 38.0585C106.872 38.076 106.917 38.0825 106.963 38.0775L109.959 37.7477C110.011 37.743 110.061 37.7231 110.104 37.6899C110.148 37.6567 110.185 37.6111 110.211 37.557C111.351 35.2327 111.891 30.5524 109.687 28.7923C108.84 28.1169 107.872 27.9553 106.782 28.3076C106.712 28.3306 106.65 28.3813 106.606 28.4518C106.562 28.5224 106.539 28.6086 106.54 28.697Z" stroke="white" stroke-width="0.654984"/>
<path d="M66.995 13.8138L66.3761 14.3541C66.317 14.4055 66.2454 14.4314 66.1725 14.4278C66.0996 14.4242 66.0295 14.3913 65.9732 14.3343C65.5126 13.8681 65.2375 13.3012 65.148 12.6338C64.9154 10.8816 67.8792 8.1044 68.8748 7.43691C70.7972 6.14962 73.1715 5.27553 75.1823 3.76972C75.9617 3.18435 76.5359 2.39502 76.9049 1.40174C77.1123 0.848148 77.2772 0.866689 77.3994 1.45736C78.2083 5.39473 77.4878 9.16125 75.7259 12.5622C73.8178 16.2466 70.8791 18.163 66.9099 18.3113C66.8286 18.3149 66.7492 18.281 66.6873 18.2162C66.6254 18.1515 66.5856 18.0606 66.5758 17.9617L66.3662 15.8361C66.3611 15.7811 66.3654 15.7254 66.3789 15.6727C66.3925 15.62 66.4149 15.5715 66.4448 15.5302L67.3454 14.2786C68.3497 12.8854 68.2329 12.7304 66.995 13.8138Z" fill="#70B52D"/>
<path d="M61.9058 15.9989C63.0553 17.1948 64.863 19.1376 65.4558 20.8262C65.5562 21.1123 65.6512 21.3917 65.7407 21.6645C65.9918 22.4221 65.8324 22.5837 65.2626 22.1493C64.9329 21.8976 64.5978 21.6592 64.2572 21.4341C63.8751 21.1851 63.4199 20.956 62.8915 20.7468C58.8699 19.1575 55.988 18.3033 55.238 13.1939C54.952 11.2417 54.8702 9.45249 54.9924 7.82616C54.9972 7.75919 55.0161 7.69489 55.0474 7.63942C55.0787 7.58394 55.1214 7.53913 55.1713 7.50925C55.2212 7.47937 55.2767 7.46543 55.3325 7.46874C55.3884 7.47205 55.4427 7.49251 55.4902 7.52818C57.1451 8.77309 58.8699 9.83392 60.6646 10.7107C62.3086 11.5132 63.3522 12.1317 63.7954 12.5661C65.208 13.9487 65.9143 15.8744 65.9143 18.343C65.9143 18.8913 65.7374 18.9946 65.3837 18.6529C64.3248 17.6358 63.2081 16.6333 62.0335 15.6453C61.6241 15.2996 61.7388 15.8241 61.9058 15.9989Z" fill="#70B52D"/>
<path d="M65.3056 23.9929C65.7095 24.2472 65.9115 24.7769 65.9115 25.5821L65.9082 41.574C65.9082 41.6794 65.8737 41.7804 65.8123 41.8549C65.7509 41.9294 65.6676 41.9713 65.5807 41.9713H62.3451C62.3018 41.9713 62.2589 41.9609 62.219 41.9407C62.1791 41.9205 62.1428 41.8908 62.1124 41.8535C62.0819 41.8162 62.0578 41.7719 62.0416 41.7233C62.0253 41.6746 62.0172 41.6225 62.0176 41.57L62.1682 22.6778C62.169 22.6104 62.1838 22.5443 62.2114 22.4858C62.2389 22.4273 62.2783 22.3783 62.3258 22.3433C62.3733 22.3083 62.4273 22.2886 62.4828 22.286C62.5383 22.2833 62.5935 22.2978 62.6431 22.3282L65.3056 23.9929Z" fill="white"/>
<path d="M0 23.969C2.32083 24.0008 4.64056 24.0074 6.9592 23.9889C8.11525 23.9809 9.69376 24.1001 10.7123 24.7159C13.378 26.329 13.3682 31.3193 12.1041 33.9098C11.495 35.1573 10.2538 35.8685 9.01257 36.1546C7.76811 36.4433 6.50945 36.5916 5.23659 36.5996C5.15031 36.6006 5.06785 36.6429 5.00714 36.7173C4.94643 36.7917 4.91237 36.8922 4.91238 36.9969V41.5739C4.91238 41.6779 4.87842 41.7778 4.8178 41.8521C4.75718 41.9264 4.67473 41.9691 4.58816 41.9712L0 42.0467V23.969ZM7.65021 31.8835C8.70691 30.2174 8.58683 28.9976 7.28997 28.2242C6.97339 28.0361 6.24854 28.0348 5.11542 28.2202C5.0369 28.2319 4.9646 28.2783 4.91213 28.3507C4.85965 28.4232 4.83062 28.5167 4.8305 28.6136V31.6689C4.8305 31.7214 4.83908 31.7734 4.85574 31.8219C4.8724 31.8703 4.89682 31.9143 4.92758 31.9513C4.95834 31.9882 4.99483 32.0174 5.03494 32.0371C5.07505 32.0569 5.11799 32.0668 5.16127 32.0662L7.39476 32.0384C7.44393 32.0371 7.49231 32.0225 7.53647 31.9957C7.58062 31.9689 7.61946 31.9306 7.65021 31.8835Z" fill="white"/>
<path d="M54.7996 33.6119L54.7635 24.279C54.7635 24.2295 54.7798 24.182 54.8086 24.1469C54.8375 24.1119 54.8766 24.0922 54.9175 24.0922H59.0406C59.0814 24.0922 59.1206 24.1119 59.1494 24.1469C59.1783 24.182 59.1945 24.2295 59.1945 24.279V41.7726C59.1945 41.8215 59.1788 41.8684 59.1506 41.9033C59.1224 41.9382 59.0841 41.9583 59.0439 41.9594L54.793 42.019C54.7677 42.0189 54.7428 42.0112 54.7206 41.9967C54.6983 41.9821 54.6793 41.9611 54.6653 41.9355L49.4287 32.6623C49.4102 32.6288 49.3832 32.6036 49.3519 32.5902C49.3206 32.5769 49.2865 32.5762 49.2549 32.5883C49.2232 32.6004 49.1956 32.6245 49.1761 32.6572C49.1567 32.6899 49.1465 32.7293 49.1471 32.7695L49.2289 41.8283C49.2289 41.8778 49.2127 41.9253 49.1839 41.9603C49.155 41.9953 49.1158 42.015 49.075 42.015L44.929 41.9554C44.8887 41.9544 44.8504 41.9342 44.8222 41.8993C44.7941 41.8644 44.7783 41.8175 44.7783 41.7687L44.7881 24.1677C44.7881 24.1429 44.7922 24.1183 44.8002 24.0953C44.8081 24.0724 44.8197 24.0517 44.8344 24.0343C44.849 24.0169 44.8664 24.0032 44.8854 23.9941C44.9045 23.9849 44.9249 23.9805 44.9453 23.981L49.0652 24.0565C49.0902 24.0561 49.1149 24.0632 49.1372 24.0771C49.1594 24.0909 49.1785 24.1111 49.1929 24.136L54.5179 33.7152C54.5363 33.7483 54.5629 33.7734 54.5939 33.7868C54.625 33.8002 54.6587 33.8012 54.6902 33.7897C54.7217 33.7781 54.7493 33.7546 54.769 33.7226C54.7887 33.6906 54.7994 33.6518 54.7996 33.6119Z" fill="white"/>
<path d="M27.346 37.7876V41.7528C27.346 41.8108 27.3271 41.8664 27.2933 41.9073C27.2595 41.9483 27.2137 41.9713 27.1659 41.9713H15.5727C15.5249 41.9713 15.4791 41.9483 15.4453 41.9073C15.4116 41.8664 15.3926 41.8108 15.3926 41.7528V24.3108C15.3926 24.2529 15.4116 24.1973 15.4453 24.1563C15.4791 24.1153 15.5249 24.0923 15.5727 24.0923H19.7973C19.8451 24.0923 19.8909 24.1153 19.9247 24.1563C19.9585 24.1973 19.9775 24.2529 19.9775 24.3108V37.4777C19.9775 37.5068 19.9822 37.5355 19.9915 37.5623C20.0007 37.5891 20.0143 37.6133 20.0314 37.6337C20.0484 37.654 20.0687 37.67 20.0909 37.6808C20.1132 37.6915 20.1369 37.6968 20.1609 37.6963L27.1626 37.5691C27.1866 37.5686 27.2103 37.5738 27.2326 37.5846C27.2548 37.5953 27.275 37.6114 27.2921 37.6317C27.3092 37.652 27.3228 37.6763 27.332 37.7031C27.3413 37.7299 27.346 37.7586 27.346 37.7876Z" fill="white"/>
<path d="M34.4227 38.0856L41.8371 38.1015C41.9242 38.1026 42.0075 38.1449 42.0689 38.2193C42.1302 38.2937 42.1646 38.3941 42.1646 38.4988V41.5899C42.1646 41.6953 42.1301 41.7963 42.0687 41.8709C42.0073 41.9454 41.924 41.9872 41.8371 41.9872L29.7756 41.9594C29.6904 41.9594 29.6085 41.9188 29.5474 41.8461C29.4863 41.7734 29.4506 41.6744 29.4481 41.5701C29.4437 41.3105 29.4546 41.0641 29.4808 40.8311C29.531 40.394 29.5562 40.0934 29.5562 39.9292C29.5562 34.7826 29.5562 29.6361 29.5562 24.4896C29.5562 24.3842 29.5907 24.2832 29.6521 24.2087C29.7135 24.1341 29.7968 24.0923 29.8836 24.0923H41.6733C41.7602 24.0923 41.8435 24.1341 41.9049 24.2087C41.9663 24.2832 42.0008 24.3842 42.0008 24.4896V27.7674C42.0008 27.8728 41.9663 27.9739 41.9049 28.0484C41.8435 28.1229 41.7602 28.1647 41.6733 28.1647H34.3474C34.2887 28.1648 34.2314 28.1837 34.1813 28.2193C34.1311 28.255 34.0901 28.3061 34.0624 28.3674C33.378 29.8613 34.2393 30.2745 35.2774 30.2625C37.1813 30.2334 39.0785 30.2387 40.9692 30.2784C41.0544 30.2805 41.1355 30.3227 41.1955 30.3962C41.2554 30.4696 41.2893 30.5685 41.2902 30.6718L41.3131 33.9417C41.3135 33.9942 41.3054 34.0463 41.2891 34.0949C41.2729 34.1436 41.2488 34.1879 41.2184 34.2252C41.1879 34.2625 41.1517 34.2921 41.1117 34.3123C41.0718 34.3325 41.0289 34.3429 40.9856 34.3429L34.4849 34.2992C34.3992 34.2992 34.3168 34.34 34.2556 34.4128C34.1944 34.4856 34.1591 34.5846 34.1574 34.6886L34.0952 37.6804C34.0939 37.733 34.1014 37.7854 34.1172 37.8345C34.1331 37.8836 34.157 37.9284 34.1876 37.9662C34.2181 38.004 34.2547 38.034 34.295 38.0546C34.3354 38.0751 34.3788 38.0856 34.4227 38.0856Z" fill="white"/>
<path d="M77.1771 28.3197L77.2917 41.8521C77.2922 41.8732 77.2891 41.8941 77.2827 41.9136C77.2762 41.9331 77.2666 41.9509 77.2543 41.9657C77.2421 41.9806 77.2275 41.9923 77.2114 42.0001C77.1953 42.0079 77.178 42.0116 77.1607 42.0111L72.5889 41.9554C72.5556 41.9544 72.524 41.9376 72.5007 41.9087C72.4775 41.8797 72.4645 41.8409 72.4645 41.8005L72.6184 28.3237C72.6188 28.303 72.6159 28.2824 72.6096 28.2631C72.6034 28.2439 72.5941 28.2263 72.5822 28.2115C72.5703 28.1967 72.556 28.1849 72.5403 28.1769C72.5246 28.1689 72.5077 28.1647 72.4907 28.1647H68.0008C67.9669 28.1647 67.9344 28.1484 67.9105 28.1194C67.8865 28.0903 67.873 28.0509 67.873 28.0098V24.2472C67.873 24.2061 67.8865 24.1667 67.9105 24.1377C67.9344 24.1086 67.9669 24.0923 68.0008 24.0923L81.8242 24.2075C81.841 24.2075 81.8576 24.2115 81.8731 24.2193C81.8886 24.2271 81.9027 24.2385 81.9145 24.2529C81.9264 24.2673 81.9358 24.2844 81.9422 24.3032C81.9486 24.322 81.9519 24.3421 81.9519 24.3625L81.9552 28.0098C81.9552 28.0509 81.9417 28.0903 81.9178 28.1194C81.8938 28.1484 81.8613 28.1647 81.8275 28.1647H77.3048C77.288 28.1647 77.2714 28.1687 77.2559 28.1765C77.2404 28.1843 77.2264 28.1957 77.2145 28.2101C77.2026 28.2245 77.1932 28.2416 77.1868 28.2604C77.1804 28.2792 77.1771 28.2993 77.1771 28.3197Z" fill="white"/>
<path d="M98.6504 34.7482C98.6504 37.6804 97.8873 40.6682 95.382 41.7926C93.8886 42.46 90.9379 42.0667 89.2415 42.0746C87.234 42.0866 85.5933 40.4934 84.7876 38.3916C84.4863 37.6102 84.3346 36.4421 84.3324 34.8873C84.3281 31.4201 84.327 27.9661 84.3292 24.5254C84.3292 24.42 84.364 24.3189 84.426 24.2444C84.4881 24.1699 84.5722 24.128 84.6599 24.128L88.58 24.1519C88.6666 24.1529 88.7494 24.1951 88.8106 24.2694C88.8719 24.3437 88.9066 24.4441 88.9075 24.5492C88.9184 27.9396 88.9195 31.3101 88.9108 34.6608C88.9064 35.8474 89.0527 36.7123 89.3496 37.2553C90.3026 38.9995 93.0666 38.8087 93.8068 36.7507C93.9792 36.2739 94.0666 35.4303 94.0688 34.2198C94.0709 30.9804 94.0742 27.737 94.0786 24.4896C94.0786 24.3842 94.1131 24.2832 94.1745 24.2087C94.2359 24.1341 94.3192 24.0923 94.4061 24.0923H98.3491C98.4359 24.0923 98.5192 24.1341 98.5807 24.2087C98.6421 24.2832 98.6766 24.3842 98.6766 24.4896C98.6591 27.9197 98.6504 31.3393 98.6504 34.7482Z" fill="white"/>
<path d="M112.038 41.7011C111.647 41.8706 111.308 41.9553 111.019 41.9553L102.334 41.9792C102.247 41.9792 102.164 41.9373 102.103 41.8628C102.041 41.7883 102.007 41.6872 102.007 41.5819L102.017 24.5173C102.017 24.4646 102.025 24.4125 102.042 24.364C102.06 24.3155 102.085 24.2716 102.116 24.2349C102.147 24.1982 102.185 24.1695 102.226 24.1504C102.266 24.1314 102.31 24.1224 102.354 24.124C104.177 24.1849 105.993 24.2087 107.803 24.1955C111.055 24.1756 113.495 24.3385 114.92 27.8945C115.968 30.5127 115.696 34.6567 115.418 37.7438C115.409 37.8433 115.368 37.936 115.303 38.0021C114.936 38.3795 114.841 38.9437 114.635 39.3212C114.045 40.4071 113.18 41.2004 112.038 41.7011ZM106.539 28.697L106.605 37.6842C106.605 37.7392 106.615 37.7935 106.633 37.8438C106.652 37.894 106.679 37.939 106.712 37.976C106.746 38.0129 106.785 38.0411 106.828 38.0586C106.871 38.076 106.917 38.0825 106.962 38.0776L109.958 37.7478C110.01 37.743 110.06 37.7232 110.104 37.69C110.148 37.6568 110.184 37.6112 110.211 37.5571C111.35 35.2328 111.891 30.5525 109.687 28.7924C108.839 28.1169 107.871 27.9554 106.782 28.3077C106.711 28.3306 106.649 28.3814 106.605 28.4519C106.562 28.5224 106.538 28.6087 106.539 28.697Z" fill="white"/>
<path d="M131 38.1691L130.997 41.9952L118.552 41.9872C118.465 41.9872 118.382 41.9454 118.32 41.8709C118.259 41.7964 118.225 41.6953 118.225 41.5899V24.577C118.225 24.4723 118.259 24.3719 118.319 24.2975C118.38 24.2231 118.462 24.1807 118.549 24.1797L130.168 24.0645C130.254 24.0634 130.337 24.1043 130.398 24.178C130.46 24.2518 130.495 24.3524 130.496 24.4578L130.528 27.7476C130.529 27.8003 130.521 27.8525 130.504 27.9014C130.488 27.9503 130.464 27.9948 130.434 28.0325C130.403 28.0701 130.367 28.1001 130.327 28.1208C130.287 28.1414 130.244 28.1523 130.201 28.1528L123.258 28.1727C123.172 28.1727 123.09 28.2134 123.029 28.2862C122.968 28.359 122.932 28.4581 122.931 28.5621L122.914 29.6825C122.914 29.7355 122.922 29.7881 122.938 29.8373C122.955 29.8864 122.979 29.9311 123.01 29.9688C123.041 30.0065 123.077 30.0364 123.118 30.0568C123.158 30.0772 123.201 30.0877 123.245 30.0877L130.135 30.0361C130.179 30.0361 130.222 30.0465 130.263 30.0667C130.303 30.0869 130.34 30.1166 130.37 30.1539C130.401 30.1912 130.426 30.2355 130.442 30.2841C130.458 30.3328 130.467 30.3849 130.466 30.4374L130.44 34.2118C130.439 34.3169 130.404 34.4173 130.343 34.4916C130.282 34.5659 130.199 34.6081 130.112 34.6091L123.31 34.629C123.225 34.629 123.142 34.6698 123.081 34.7426C123.02 34.8154 122.985 34.9144 122.983 35.0184L122.944 37.5493C122.943 37.6028 122.952 37.6559 122.969 37.7053C122.985 37.7548 123.01 37.7996 123.042 37.8371C123.073 37.8746 123.111 37.9039 123.152 37.9234C123.193 37.9429 123.237 37.9522 123.281 37.9505C125.857 37.8843 128.43 37.9572 131 38.1691Z" fill="white"/>
</svg>
