<svg width="80" height="80" viewBox="0 0 80 80" fill="none" xmlns="http://www.w3.org/2000/svg">
<path d="M68.0472 19.4924C60.5369 15.1059 50.5761 12.6899 40 12.6899C32.6889 12.6899 25.5052 13.8084 19.2252 15.9243C18.6133 16.1304 18.2844 16.7937 18.4906 17.4054C18.6967 18.0171 19.36 18.3459 19.9719 18.1401C26.0141 16.1042 32.9397 15.0281 40 15.0281C50.168 15.0281 59.71 17.3306 66.868 21.5115C73.8284 25.5771 77.6619 30.9142 77.6619 36.5396C77.6619 36.7568 77.6481 37.5037 77.6403 37.7201C77.445 43.1217 75.883 47.7002 73.123 50.9604C69.8627 54.8117 64.9344 56.9248 58.4748 57.2409C57.83 57.2724 57.3328 57.8209 57.3644 58.4657C57.3959 59.1106 57.9408 59.6077 58.5892 59.5763C65.7217 59.2273 71.212 56.8368 74.9077 52.4713C75.9248 51.2696 76.7969 49.917 77.5173 48.432C77.0911 52.4909 75.2945 56.3228 72.433 59.2592C69.4878 62.2815 65.5516 64.2179 61.3497 64.7115C59.8753 64.8848 58.3233 64.9726 56.7372 64.9726C54.6264 64.9726 52.3798 64.8203 50.06 64.5199C42.4592 63.5356 37.3692 58.8128 33.6525 55.3645C30.6358 52.5656 28.6916 50.8499 26.8161 50.8499C26.6619 50.8499 26.5073 50.8596 26.3444 50.8798C23.9608 51.1709 21.637 51.3185 19.4373 51.3185C16.7325 51.3187 13.5833 50.8618 10.33 49.9974C5.88328 48.8162 2.70391 44.9184 2.36766 40.3628C2.41047 40.4101 2.45484 40.4568 2.49875 40.5038C2.51672 40.5231 2.53437 40.5424 2.5525 40.5617C2.65578 40.6707 2.76234 40.7782 2.87172 40.8848C2.89562 40.9081 2.91984 40.9312 2.94406 40.9543C3.05781 41.0632 3.17359 41.1713 3.29359 41.2778C3.43219 41.4004 3.57453 41.5209 3.72031 41.639C8.22141 45.2821 16.1572 46.7146 25.6427 45.5779C25.6877 45.5726 25.7322 45.5681 25.7773 45.5626C25.8859 45.5493 25.9931 45.5398 26.1002 45.5307C26.3945 45.5059 26.6839 45.4953 26.9675 45.501C30.7073 45.5774 33.5686 48.2321 36.8333 51.2612C40.447 54.6142 44.5431 58.4148 50.6603 59.207C50.6613 59.2071 50.662 59.207 50.663 59.2071C51.4283 59.3063 52.1916 59.3888 52.9316 59.4523C53.5758 59.506 54.1411 59.0306 54.1962 58.3873C54.2514 57.744 53.7747 57.1779 53.1314 57.1226C52.4241 57.0618 51.6938 56.9831 50.9606 56.8881C46.8152 56.3512 43.7017 54.2192 40.8791 51.7734C40.0414 51.0476 39.2292 50.2946 38.4234 49.547C35.1652 46.5237 32.0588 43.6423 27.912 43.2131C27.1441 43.1335 26.3405 43.1382 25.4938 43.2417C25.2259 43.2743 24.9597 43.3045 24.6947 43.3331C24.6555 43.3373 24.6164 43.3413 24.5772 43.3456C20.3622 43.7899 16.52 43.7029 13.2434 43.119C13.1902 43.1093 13.1373 43.0995 13.0847 43.0895C13.0127 43.0762 12.9419 43.062 12.8703 43.0482C8.77578 42.2434 6.38453 40.7845 5.16406 39.7978C5.05516 39.7087 4.94734 39.619 4.84328 39.527C3.20422 38.076 2.33797 36.3363 2.33797 34.4963C2.33797 29.1634 6.94406 23.9312 14.975 20.1413C15.5589 19.8657 15.8089 19.169 15.5333 18.5851C15.2577 18.0012 14.5606 17.751 13.977 18.027C5.09453 22.2185 0 28.2213 0 34.4962V39.5612C0 45.5143 4.00094 50.7349 9.72969 52.257C13.1759 53.1726 16.533 53.6565 19.4375 53.6563C21.7314 53.6563 24.1506 53.5029 26.6286 53.2002C26.6967 53.1918 26.7581 53.1878 26.8161 53.1878C27.8692 53.1878 30.0969 55.2546 32.0622 57.0781C36.0102 60.741 41.417 65.7578 49.7595 66.8382C52.1786 67.1515 54.5263 67.3104 56.7372 67.3104C58.4142 67.3104 60.0578 67.2173 61.6225 67.0335C66.3553 66.4774 70.7892 64.2959 74.1075 60.8907C77.4356 57.4754 79.4867 52.9853 79.8833 48.247L79.8981 48.0624C79.9003 48.0353 79.9014 48.0078 79.9017 47.9803L79.978 37.7709C79.9794 37.5513 80 36.7718 80 36.5396C80 30.0487 75.7552 23.9945 68.0472 19.4924Z" fill="#70B52D"/>
<path d="M65.5315 23.7993C58.7728 19.8518 49.7056 17.6777 39.9999 17.6777C30.4751 17.6777 21.1274 19.7712 14.354 23.421C8.40166 26.6282 4.98792 30.6649 4.98792 34.496C4.98792 35.5043 5.48416 37.0098 7.84854 38.4557C10.5093 40.0827 14.6248 40.9787 19.4371 40.9785C21.2468 40.9785 23.1764 40.8549 25.1721 40.611C25.7218 40.544 26.2749 40.5099 26.8159 40.5099C32.5796 40.5099 36.6417 44.2788 40.2257 47.6043C43.5893 50.7251 46.7662 53.6727 51.3009 54.2598C53.2103 54.5071 55.0393 54.6326 56.7371 54.6326C63.2392 54.6326 68.0696 52.8234 71.0945 49.2551C74.3323 45.4359 75.012 40.2323 75.012 36.5395C75.012 30.2724 69.0721 25.8676 65.5315 23.7993ZM69.311 47.7434C66.7509 50.7634 62.5204 52.2945 56.7371 52.2945C55.1395 52.2945 53.4115 52.1755 51.6012 51.9412C47.8082 51.4499 44.8976 48.7493 41.8159 45.8902C37.9167 42.2726 33.4971 38.172 26.8159 38.172C26.1806 38.172 25.5323 38.2118 24.8889 38.2904C22.9867 38.5227 21.1524 38.6405 19.4373 38.6405C15.0493 38.6407 11.367 37.8666 9.06854 36.4612C7.99385 35.804 7.3262 35.0512 7.3262 34.4963C7.3262 31.6391 10.4442 28.1841 15.4631 25.4798C21.9065 22.0073 30.8499 20.016 39.9999 20.016C49.2974 20.016 57.9459 22.0766 64.3521 25.8187C71.5928 30.0476 72.6739 34.3509 72.6739 36.5396C72.6739 39.841 72.0904 44.4646 69.311 47.7434Z" fill="#70B52D"/>
<path d="M19.9414 26.0012C16.91 26.0012 14.4436 28.4675 14.4436 31.499C14.4438 34.5303 16.91 36.9967 19.9414 36.9967C22.973 36.9967 25.4392 34.5304 25.4392 31.499C25.4392 28.4673 22.973 26.0012 19.9414 26.0012ZM19.9414 34.6584C18.1992 34.6584 16.7817 33.2411 16.7817 31.4989C16.7817 29.7567 18.1992 28.3392 19.9414 28.3392C21.6838 28.3392 23.1011 29.7567 23.1011 31.4989C23.1011 33.2411 21.6836 34.6584 19.9414 34.6584Z" fill="#70B52D"/>
</svg>
