<svg width="80" height="80" viewBox="0 0 80 80" fill="none" xmlns="http://www.w3.org/2000/svg">
<path d="M59.1223 17.5C58.9598 17.5 58.7978 17.5023 58.6483 17.5063C52.3948 17.6111 48.1359 19.7658 45 22.5736V13.75C45 13.5179 44.9353 13.2903 44.8133 13.0929C44.6913 12.8954 44.5167 12.7358 44.3091 12.632C43.7703 12.3627 38.9667 10 36.25 10C34.6011 10 32.5175 10.3242 30.5027 10.6377C28.5328 10.9441 26.4934 11.2605 25.0092 11.25C23.6992 11.2405 21.6342 10.9364 19.6375 10.6423C17.4925 10.3266 15.2744 10 13.75 10C11.0333 10 6.22985 12.3627 5.69094 12.632C5.48333 12.7358 5.30872 12.8954 5.18669 13.0929C5.06465 13.2903 5.00001 13.5179 5 13.75V33.75C5.00001 33.963 5.05447 34.1725 5.1582 34.3586C5.26194 34.5447 5.41152 34.7012 5.59273 34.8132C5.77394 34.9252 5.98078 34.9891 6.1936 34.9987C6.40643 35.0083 6.61818 34.9634 6.80875 34.8681C8.1275 34.2094 11.9448 32.5 13.75 32.5C15.0914 32.5 17.2173 32.8125 19.2733 33.1158C21.4506 33.4364 23.5077 33.7391 24.9908 33.75C26.6822 33.7644 28.8189 33.4295 30.8869 33.108C32.808 32.8091 34.7944 32.5 36.25 32.5C36.6273 32.5102 37.0026 32.5601 37.3695 32.6486C36.6094 33.7569 35.8805 34.673 35.1173 35.258C33.1297 36.7812 29.7708 37.5366 25.1203 37.5016C25.0213 37.5016 24.9364 37.5002 24.867 37.5002C20.8045 37.5002 17.5 40.8647 17.5 45.0002V50.0002C17.4893 50.9756 17.6938 51.9414 18.0989 52.8288C18.504 53.7162 19.0997 54.5033 19.8438 55.1342C18.7868 55.3378 17.7859 55.766 16.9087 56.3898C16.0314 57.0136 15.2984 57.8185 14.7591 58.75H12.1184L8.6875 54.9005L8.66578 54.8767C8.33846 54.5215 7.94107 54.238 7.49868 54.0441C7.05628 53.8501 6.5785 53.75 6.09547 53.75C5.61244 53.75 5.13466 53.8501 4.69226 54.0441C4.24987 54.238 3.85248 54.5215 3.52516 54.8767C2.87923 55.584 2.51688 56.5046 2.50751 57.4624C2.49814 58.4202 2.8424 59.3478 3.47438 60.0675L5.30281 62.5L3.47469 64.9323C2.84269 65.6521 2.49843 66.5797 2.50783 67.5376C2.51723 68.4954 2.87963 69.416 3.52563 70.1233C3.85295 70.4785 4.25034 70.762 4.69273 70.9559C5.13512 71.1499 5.61291 71.25 6.09594 71.25C6.57897 71.25 7.05675 71.1499 7.49914 70.9559C7.94154 70.762 8.33893 70.4785 8.66625 70.1233L8.68797 70.0995L12.1186 66.25H14.7592C15.4173 67.3893 16.3634 68.3356 17.5027 68.9938C18.6419 69.652 19.9343 69.999 21.25 70C23.8158 70 26.8502 71.528 30.0625 73.1455C34.1164 75.1866 38.7109 77.5 43.75 77.5C45.9347 77.4996 48.0929 77.0221 50.0739 76.1009C52.0548 75.1796 53.8107 73.8368 55.2187 72.1664C56.6267 70.4959 57.6529 68.5381 58.2255 66.4298C58.7981 64.3215 58.9034 62.1135 58.5339 59.9603C70.4511 59.4472 77.5 53.9375 77.5 45V36.25C77.5 25.9113 69.2558 17.5 59.1223 17.5ZM11.5581 63.75C11.3819 63.75 11.2077 63.7873 11.0468 63.8594C10.886 63.9314 10.7423 64.0367 10.625 64.1683L6.83406 68.4219C6.74001 68.5259 6.62504 68.6089 6.49667 68.6654C6.3683 68.7219 6.22945 68.7507 6.0892 68.7498C5.94894 68.7489 5.81046 68.7184 5.68283 68.6602C5.5552 68.6021 5.4413 68.5176 5.34859 68.4123C5.12444 68.1613 5.00055 67.8365 5.00055 67.4999C5.00055 67.1634 5.12444 66.8386 5.34859 66.5875C5.37974 66.5544 5.40901 66.5195 5.43625 66.4831L7.86563 63.2511C8.02842 63.0345 8.11645 62.7709 8.11645 62.5C8.11645 62.2291 8.02842 61.9655 7.86563 61.7489L5.43625 58.5167C5.40901 58.4803 5.37974 58.4455 5.34859 58.4123C5.12444 58.1613 5.00055 57.8365 5.00055 57.4999C5.00055 57.1634 5.12444 56.8386 5.34859 56.5875C5.4413 56.4823 5.5552 56.3978 5.68283 56.3396C5.81046 56.2815 5.94894 56.251 6.0892 56.2501C6.22945 56.2492 6.3683 56.2779 6.49667 56.3344C6.62504 56.3909 6.74001 56.4739 6.83406 56.578L10.625 60.8317C10.7423 60.9633 10.886 61.0686 11.0468 61.1406C11.2077 61.2127 11.3819 61.25 11.5581 61.25H13.8561C13.7146 62.0773 13.7146 62.9227 13.8561 63.75H11.5581ZM7.5 22.0361C9.16 21.2631 12.1981 20 13.75 20C15.0914 20 17.2173 20.3125 19.2733 20.6158C21.4506 20.9364 23.5077 21.2391 24.9908 21.25C26.6822 21.2606 28.8189 20.9295 30.8869 20.608C32.808 20.3091 34.7944 20 36.25 20C37.8019 20 40.84 21.2631 42.5 22.0361V24.2933C40.7148 23.5177 38.033 22.5 36.25 22.5C34.6011 22.5 32.5175 22.8242 30.5027 23.1377C28.5328 23.4441 26.4934 23.7634 25.0092 23.75C23.6992 23.7405 21.6342 23.4364 19.6375 23.1423C17.4925 22.8266 15.2744 22.5 13.75 22.5C11.967 22.5 9.28516 23.5177 7.5 24.2934V22.0361ZM13.75 12.5C15.0914 12.5 17.2173 12.8125 19.2733 13.1158C21.4506 13.4364 23.5077 13.7391 24.9908 13.75C26.6822 13.7644 28.8189 13.4295 30.8869 13.108C32.808 12.8091 34.7944 12.5 36.25 12.5C37.8016 12.5 40.8397 13.763 42.5 14.5359V19.2933C40.7148 18.5177 38.033 17.5 36.25 17.5C34.6011 17.5 32.5175 17.8242 30.5027 18.1377C28.5328 18.4441 26.4934 18.7641 25.0092 18.75C23.6992 18.7405 21.6342 18.4364 19.6375 18.1423C17.4925 17.8266 15.2744 17.5 13.75 17.5C11.967 17.5 9.28516 18.5177 7.5 19.2934V14.5359C9.16031 13.763 12.1984 12.5 13.75 12.5ZM30.5027 30.6377C28.5328 30.9441 26.4934 31.2627 25.0092 31.25C23.6992 31.2405 21.6342 30.9364 19.6375 30.6423C17.4925 30.3266 15.2744 30 13.75 30C11.967 30 9.28516 31.0177 7.5 31.7933V27.0361C9.16 26.2631 12.1981 25 13.75 25C15.0914 25 17.2173 25.3125 19.2733 25.6158C21.4506 25.9364 23.5077 26.2391 24.9908 26.25C26.6822 26.2638 28.8189 25.9297 30.8869 25.608C32.808 25.3091 34.7944 25 36.25 25C37.5077 25 39.7416 25.8297 41.4272 26.5558C40.4439 27.8789 39.5939 29.2083 38.8108 30.4372C37.7847 30.1444 36.9431 29.9997 36.25 29.9997C34.6011 30 32.5175 30.3242 30.5027 30.6377ZM24.867 40C24.9313 40 25.0098 40 25.1014 40.0012C30.3128 40.0375 34.198 39.1117 36.6377 37.2422C38.2031 36.0427 39.4411 34.0995 40.8747 31.8497C44.1872 26.6506 48.3106 20.18 58.7017 20.0059C58.8414 20.0024 58.9815 20.0005 59.122 20.0003C67.8773 20 75 27.2897 75 36.25C75 40.7255 73.2931 44.7969 70.1937 47.7142C66.8677 50.8452 62.1931 52.5 56.6756 52.5H54.9198C53.5154 50.9266 51.7943 49.6678 49.8694 48.8061C47.9444 47.9444 45.859 47.4993 43.75 47.5C39.1562 47.5 34.9333 49.4219 31.1519 51.308C29.1914 50.9798 27.2333 50.5642 25.1764 50.0389C20.6719 48.8884 20 46.388 20 45C20 42.243 22.1833 40 24.867 40ZM23.7889 54.5947C22.0444 53.9105 20.143 52.6259 20.0077 50.2687C21.1639 51.2375 22.6952 51.9853 24.5572 52.4611C25.5395 52.712 26.4998 52.9377 27.4497 53.1427C26.2694 53.7218 25.0453 54.2073 23.7889 54.5947ZM43.75 75C39.3048 75 35.1781 72.9219 31.1875 70.9127C27.7019 69.1577 24.4097 67.5 21.25 67.5C19.9239 67.5 18.6521 66.9732 17.7145 66.0355C16.7768 65.0979 16.25 63.8261 16.25 62.5C16.25 61.1739 16.7768 59.9021 17.7145 58.9645C18.6521 58.0268 19.9239 57.5 21.25 57.5C24.4097 57.5 27.7019 55.8423 31.1875 54.0873C35.1781 52.0781 39.3048 50 43.75 50C47.0652 50 50.2446 51.317 52.5888 53.6612C54.933 56.0054 56.25 59.1848 56.25 62.5C56.25 65.8152 54.933 68.9946 52.5888 71.3388C50.2446 73.683 47.0652 75 43.75 75ZM57.8858 57.4825C57.5793 56.6216 57.1944 55.7906 56.7361 55C62.8767 54.9877 68.1212 53.0989 71.908 49.5352C73.1089 48.4052 74.1441 47.1111 74.9828 45.6914C74.6162 52.9352 68.4502 57.1839 57.8858 57.4825Z" fill="#70B52D"/>
<path d="M61.25 45C62.9806 45 64.6723 44.4868 66.1112 43.5254C67.5502 42.5639 68.6717 41.1973 69.3339 39.5985C69.9962 37.9996 70.1695 36.2403 69.8319 34.543C69.4943 32.8456 68.6609 31.2865 67.4372 30.0628C66.2135 28.8391 64.6544 28.0058 62.957 27.6681C61.2597 27.3305 59.5004 27.5038 57.9015 28.1661C56.3027 28.8283 54.9361 29.9498 53.9746 31.3888C53.0132 32.8277 52.5 34.5194 52.5 36.25C52.5026 38.5698 53.4253 40.7939 55.0657 42.4343C56.7061 44.0747 58.9302 44.9974 61.25 45ZM61.25 30C62.4861 30 63.6945 30.3666 64.7223 31.0533C65.7501 31.7401 66.5512 32.7162 67.0242 33.8582C67.4973 35.0003 67.6211 36.2569 67.3799 37.4693C67.1388 38.6817 66.5435 39.7953 65.6694 40.6694C64.7953 41.5435 63.6817 42.1388 62.4693 42.3799C61.2569 42.6211 60.0003 42.4973 58.8582 42.0243C57.7162 41.5512 56.7401 40.7501 56.0533 39.7223C55.3666 38.6945 55 37.4861 55 36.25C55.0019 34.593 55.6609 33.0043 56.8326 31.8326C58.0043 30.6609 59.593 30.0019 61.25 30Z" fill="#70B52D"/>
</svg>
