<svg width="80" height="80" viewBox="0 0 80 80" fill="none" xmlns="http://www.w3.org/2000/svg">
<path d="M76.5 66.585C76.089 66.3111 75.7666 65.9233 75.5724 65.4691C75.3781 65.0149 75.3204 64.514 75.4062 64.0275C75.74 62.1425 76.0312 60.115 76.3225 57.6463C76.3417 57.4832 76.3286 57.3179 76.2839 57.1599C76.2393 57.0019 76.1639 56.8542 76.0622 56.7253C75.8567 56.465 75.5562 56.2969 75.2269 56.2581C74.8975 56.2193 74.5662 56.313 74.3059 56.5185C74.0456 56.7239 73.8775 57.0244 73.8387 57.3538C73.5537 59.7725 73.2687 61.755 72.945 63.5925C72.7758 64.5584 72.8919 65.5527 73.2791 66.4536C73.6663 67.3546 74.3078 68.1231 75.125 68.665C75.4721 68.8974 75.7564 69.212 75.9527 69.5808C76.1489 69.9495 76.2511 70.361 76.25 70.7788V72.4588C76.2493 73.1325 75.9814 73.7785 75.505 74.255C75.0285 74.7314 74.3825 74.9993 73.7087 75H56.02C56.168 74.5997 56.2459 74.1768 56.25 73.75C56.25 72.7554 55.8549 71.8016 55.1516 71.0984C54.4484 70.3951 53.4946 70 52.5 70H52.3537L51.8825 66.23C52.0887 66.2375 52.3013 66.25 52.5 66.25C55.9798 66.2537 59.3919 65.2877 62.3534 63.4605C65.3149 61.6332 67.7087 59.017 69.2663 55.9053C70.8239 52.7935 71.4838 49.3093 71.1718 45.8435C70.8598 42.3777 69.5883 39.0673 67.5 36.2838C67.3011 36.0185 67.005 35.8432 66.6768 35.7963C66.3486 35.7494 66.0152 35.8348 65.75 36.0338C65.4848 36.2327 65.3094 36.5288 65.2626 36.857C65.2157 37.1852 65.3011 37.5185 65.5 37.7838C67.6134 40.5817 68.7547 43.9936 68.75 47.5C68.745 51.8083 67.0314 55.9386 63.985 58.985C60.9386 62.0314 56.8082 63.745 52.5 63.75C52.2025 63.75 51.8925 63.7388 51.5675 63.7175L51.1 59.9738C51.5825 60 52.06 60 52.5 60C55.125 60 60 60 60 55C59.998 53.0115 59.2072 51.105 57.8011 49.6989C56.395 48.2928 54.4885 47.502 52.5 47.5C50.7764 47.4964 49.1059 48.0965 47.7787 49.1963C47.3702 48.5359 46.841 47.9583 46.2188 47.4938C46.8708 46.9215 47.3046 46.1412 47.4465 45.2853C47.5885 44.4295 47.4298 43.5509 46.9975 42.7988C46.1913 41.5158 44.9495 40.5665 43.5 40.125C43.1296 40.0094 42.7398 39.9688 42.3535 40.0055C41.9672 40.0422 41.592 40.1555 41.25 40.3388C40.7171 40.7224 40.2995 41.2447 40.0426 41.849C39.7856 42.4532 39.6991 43.1163 39.7925 43.7663C39.2626 43.7847 38.7393 43.8902 38.2437 44.0788C37.7461 43.9078 37.2285 43.8015 36.7038 43.7625C37.5521 40.2076 39.5709 37.041 42.4358 34.7717C45.3007 32.5024 48.8453 31.2621 52.5 31.25C56.0064 31.2453 59.4183 32.3866 62.2162 34.5C62.4815 34.6989 62.8148 34.7843 63.143 34.7374C63.4712 34.6906 63.7673 34.5152 63.9663 34.25C64.1652 33.9848 64.2506 33.6514 64.2037 33.3232C64.1568 32.995 63.9815 32.6989 63.7162 32.5C60.4855 30.0622 56.5473 28.7455 52.5 28.75C48.315 28.7648 44.2546 30.1755 40.962 32.7588C37.6694 35.342 35.3328 38.95 34.3225 43.0113C33.168 41.8806 31.6159 41.2482 30 41.25C28.5382 41.2497 27.1226 41.7624 26 42.6988C25.3764 42.0805 24.6007 41.6378 23.7512 41.4154C22.9017 41.1931 22.0086 41.1989 21.162 41.4325C20.3155 41.666 19.5457 42.1188 18.9303 42.7453C18.315 43.3717 17.8759 44.1495 17.6575 45C16.1918 44.9709 14.762 45.4546 13.6149 46.3675C12.4678 47.2804 11.6756 48.5652 11.375 50H10C9.69538 50.0001 9.40128 50.1114 9.17295 50.313C8.94462 50.5147 8.79777 50.7927 8.76 51.095L6.885 66.095C6.84399 66.4239 6.93524 66.7555 7.1387 67.0171C7.34216 67.2787 7.64117 67.4488 7.97 67.49C8.29825 67.5277 8.62819 67.4351 8.889 67.2323C9.14981 67.0294 9.3207 66.7324 9.365 66.405L11.1038 52.5H47.6463L49.8338 70H6.25C5.25544 70 4.30161 70.3951 3.59835 71.0984C2.89509 71.8016 2.5 72.7554 2.5 73.75C2.5 74.7446 2.89509 75.6984 3.59835 76.4017C4.30161 77.1049 5.25544 77.5 6.25 77.5H36.25C36.5815 77.5 36.8995 77.3683 37.1339 77.1339C37.3683 76.8995 37.5 76.5815 37.5 76.25C37.5 75.9185 37.3683 75.6005 37.1339 75.3661C36.8995 75.1317 36.5815 75 36.25 75H6.25C5.91848 75 5.60054 74.8683 5.36612 74.6339C5.1317 74.3995 5 74.0815 5 73.75C5 73.4185 5.1317 73.1005 5.36612 72.8661C5.60054 72.6317 5.91848 72.5 6.25 72.5H52.5C52.8315 72.5 53.1495 72.6317 53.3839 72.8661C53.6183 73.1005 53.75 73.4185 53.75 73.75C53.75 74.0815 53.6183 74.3995 53.3839 74.6339C53.1495 74.8683 52.8315 75 52.5 75H41.25C40.9185 75 40.6005 75.1317 40.3661 75.3661C40.1317 75.6005 40 75.9185 40 76.25C40 76.5815 40.1317 76.8995 40.3661 77.1339C40.6005 77.3683 40.9185 77.5 41.25 77.5H73.7087C75.0452 77.498 76.3263 76.9663 77.2713 76.0213C78.2162 75.0763 78.748 73.7952 78.75 72.4588V70.7788C78.7505 69.9483 78.5453 69.1306 78.1527 68.3988C77.76 67.667 77.1922 67.0438 76.5 66.585ZM57.5 55C57.5 56.845 56.75 57.5 52.5 57.5C51.955 57.5 51.365 57.48 50.7837 57.4413L49.99 51.095C49.9714 50.9877 49.9381 50.8834 49.8912 50.785C50.6686 50.2807 51.5735 50.0084 52.5 50C53.8261 50 55.0979 50.5268 56.0355 51.4645C56.9732 52.4022 57.5 53.6739 57.5 55ZM42.5 42.51C42.875 42.3475 44.3225 43.16 44.8338 44.0475C44.9978 44.3343 45.0417 44.6744 44.9557 44.9934C44.8697 45.3125 44.6609 45.5845 44.375 45.75C44.2745 45.8017 44.1665 45.8376 44.055 45.8563C43.6132 45.2323 43.0331 44.7189 42.36 44.3563C42.1835 43.744 42.2332 43.0887 42.5 42.51ZM17.5 47.5C17.821 47.5058 18.14 47.5532 18.4487 47.6413C18.6385 47.6915 18.8375 47.6964 19.0295 47.6555C19.2215 47.6145 19.4012 47.5289 19.554 47.4056C19.7067 47.2823 19.8283 47.1247 19.9088 46.9457C19.9894 46.7666 20.0266 46.5711 20.0175 46.375C20.0188 46.3327 20.0129 46.2904 20 46.25C20 45.587 20.2634 44.9511 20.7322 44.4822C21.2011 44.0134 21.837 43.75 22.5 43.75C22.974 43.7503 23.438 43.8865 23.8368 44.1427C24.2357 44.3988 24.5526 44.7641 24.75 45.195C24.8434 45.3942 24.9877 45.5652 25.1683 45.6907C25.349 45.8162 25.5595 45.8919 25.7787 45.91C25.9978 45.9292 26.218 45.8897 26.4168 45.7957C26.6156 45.7017 26.7858 45.5565 26.91 45.375C27.2797 44.8331 27.7858 44.3984 28.3772 44.1146C28.9686 43.8309 29.6245 43.7082 30.2785 43.7589C30.9325 43.8096 31.5615 44.0319 32.1021 44.4035C32.6427 44.775 33.0758 45.2826 33.3575 45.875C33.4935 46.1562 33.7298 46.3763 34.0199 46.4919C34.31 46.6076 34.6329 46.6105 34.925 46.5C35.3786 46.3186 35.8644 46.2317 36.3527 46.2446C36.8411 46.2575 37.3216 46.3699 37.765 46.575C37.9368 46.6511 38.1236 46.6875 38.3115 46.6814C38.4993 46.6754 38.6834 46.627 38.85 46.54C39.1709 46.3708 39.5252 46.2743 39.8876 46.2574C40.25 46.2405 40.6117 46.3037 40.947 46.4423C41.2822 46.581 41.5829 46.7917 41.8275 47.0596C42.0722 47.3276 42.2548 47.6461 42.3625 47.9925C42.4295 48.2019 42.5505 48.3899 42.7133 48.5376C42.8762 48.6853 43.0751 48.7875 43.29 48.8338C44.0537 49.0048 44.7437 49.413 45.2612 50H13.98C14.2376 49.2714 14.714 48.6401 15.3441 48.1926C15.9742 47.7451 16.7272 47.5032 17.5 47.5Z" fill="#70B52D"/>
<path d="M28.1251 37.4563C28.105 37.7878 28.2175 38.1137 28.4377 38.3623C28.658 38.6109 28.9679 38.7618 29.2995 38.7819C29.631 38.8019 29.9569 38.6895 30.2055 38.4692C30.4541 38.249 30.605 37.939 30.6251 37.6075C30.8456 33.8408 31.2628 30.0882 31.8751 26.365L32.3088 23.75H72.6913L73.1276 26.365C74.5521 34.9692 74.9503 43.712 74.3138 52.41C74.3016 52.574 74.3218 52.7387 74.3733 52.8948C74.4248 53.051 74.5066 53.1954 74.614 53.3199C74.7214 53.4444 74.8523 53.5464 74.9992 53.6202C75.1461 53.694 75.3061 53.7381 75.4701 53.75H75.5613C75.8778 53.7508 76.1829 53.6316 76.4149 53.4163C76.6469 53.201 76.7886 52.9057 76.8113 52.59C77.4628 43.695 77.0558 34.754 75.5988 25.955L75.0388 22.6025L75.7888 20.3312C76.0393 19.5798 76.1077 18.7796 75.9884 17.9966C75.869 17.2135 75.5653 16.47 75.1023 15.8274C74.6393 15.1847 74.0303 14.6612 73.3253 14.3C72.6204 13.9389 71.8397 13.7503 71.0476 13.75H33.5676C32.7153 13.7499 31.877 13.9677 31.1326 14.3827C30.3881 14.7978 29.7621 15.3962 29.3139 16.1212C28.8658 16.8463 28.6105 17.6738 28.5722 18.5253C28.5339 19.3768 28.7139 20.2239 29.0951 20.9862L29.9501 22.6962L29.4076 25.955C28.78 29.7638 28.352 33.6028 28.1251 37.4563ZM31.4401 17.435C31.6628 17.0717 31.9753 16.7719 32.3475 16.5643C32.7196 16.3568 33.139 16.2485 33.5651 16.25H71.0476C71.4439 16.2495 71.8347 16.3433 72.1877 16.5235C72.5407 16.7038 72.8457 16.9654 73.0777 17.2867C73.3097 17.6081 73.4619 17.98 73.5219 18.3718C73.5819 18.7635 73.5478 19.164 73.4226 19.54L72.8488 21.25H71.2501V20C71.2501 19.6685 71.1184 19.3505 70.884 19.1161C70.6496 18.8817 70.3316 18.75 70.0001 18.75C69.6686 18.75 69.3506 18.8817 69.1162 19.1161C68.8818 19.3505 68.7501 19.6685 68.7501 20V21.25H66.2501V20C66.2501 19.6685 66.1184 19.3505 65.884 19.1161C65.6496 18.8817 65.3316 18.75 65.0001 18.75C64.6686 18.75 64.3506 18.8817 64.1162 19.1161C63.8818 19.3505 63.7501 19.6685 63.7501 20V21.25H61.2501V20C61.2501 19.6685 61.1184 19.3505 60.884 19.1161C60.6496 18.8817 60.3316 18.75 60.0001 18.75C59.6686 18.75 59.3506 18.8817 59.1162 19.1161C58.8818 19.3505 58.7501 19.6685 58.7501 20V21.25H56.2501V20C56.2501 19.6685 56.1184 19.3505 55.884 19.1161C55.6496 18.8817 55.3316 18.75 55.0001 18.75C54.6686 18.75 54.3506 18.8817 54.1162 19.1161C53.8818 19.3505 53.7501 19.6685 53.7501 20V21.25H51.2501V20C51.2501 19.6685 51.1184 19.3505 50.884 19.1161C50.6496 18.8817 50.3316 18.75 50.0001 18.75C49.6686 18.75 49.3506 18.8817 49.1162 19.1161C48.8818 19.3505 48.7501 19.6685 48.7501 20V21.25H46.2501V20C46.2501 19.6685 46.1184 19.3505 45.884 19.1161C45.6496 18.8817 45.3316 18.75 45.0001 18.75C44.6686 18.75 44.3506 18.8817 44.1162 19.1161C43.8818 19.3505 43.7501 19.6685 43.7501 20V21.25H41.2501V20C41.2501 19.6685 41.1184 19.3505 40.884 19.1161C40.6496 18.8817 40.3316 18.75 40.0001 18.75C39.6686 18.75 39.3506 18.8817 39.1162 19.1161C38.8818 19.3505 38.7501 19.6685 38.7501 20V21.25H36.2501V20C36.2501 19.6685 36.1184 19.3505 35.884 19.1161C35.6496 18.8817 35.3316 18.75 35.0001 18.75C34.6686 18.75 34.3506 18.8817 34.1162 19.1161C33.8818 19.3505 33.7501 19.6685 33.7501 20V21.25H32.0226L31.3313 19.875C31.1353 19.494 31.0423 19.0684 31.0616 18.6404C31.0809 18.2123 31.2105 17.7968 31.4401 17.435Z" fill="#70B52D"/>
<path d="M48.75 41.25C48.75 42.2446 49.1451 43.1984 49.8484 43.9016C50.5516 44.6049 51.5054 45 52.5 45C53.4946 45 54.4484 44.6049 55.1516 43.9016C55.8549 43.1984 56.25 42.2446 56.25 41.25C56.25 39.2587 54.75 36.25 52.5 36.25C50.25 36.25 48.75 39.2587 48.75 41.25ZM53.75 41.25C53.75 41.5815 53.6183 41.8995 53.3839 42.1339C53.1495 42.3683 52.8315 42.5 52.5 42.5C52.1685 42.5 51.8505 42.3683 51.6161 42.1339C51.3817 41.8995 51.25 41.5815 51.25 41.25C51.25 40.225 52.1 38.805 52.5 38.75C52.9 38.805 53.75 40.225 53.75 41.25Z" fill="#70B52D"/>
<path d="M63.5226 40.3424C62.974 40.0813 62.366 39.9702 61.7604 40.0202C61.1549 40.0703 60.5734 40.2798 60.0751 40.6274C59.1388 41.1467 58.3479 41.8929 57.7751 42.7974C57.4463 43.367 57.273 44.0131 57.2727 44.6708C57.2724 45.3286 57.4451 45.9748 57.7735 46.5447C58.1019 47.1146 58.5744 47.5881 59.1436 47.9176C59.7128 48.2472 60.3586 48.4213 61.0164 48.4224C61.3462 48.4234 61.6748 48.3814 61.9939 48.2974C62.4703 48.1711 62.9169 47.9514 63.3077 47.651C63.6985 47.3505 64.0256 46.9754 64.2701 46.5474C64.7673 45.5993 65.0183 44.5415 65.0001 43.4712C65.0517 42.8657 64.9421 42.2573 64.6827 41.7078C64.4232 41.1584 64.023 40.6873 63.5226 40.3424ZM62.1051 45.2974C61.9391 45.5843 61.666 45.7935 61.3458 45.8791C61.0256 45.9646 60.6846 45.9195 60.3976 45.7537C60.2553 45.6716 60.1306 45.5623 60.0305 45.4319C59.9305 45.3016 59.8571 45.1528 59.8146 44.9941C59.7721 44.8354 59.7614 44.6699 59.7829 44.507C59.8044 44.3442 59.8578 44.1871 59.9401 44.0449C60.4546 43.2627 61.2474 42.7054 62.1576 42.4862C62.196 42.4852 62.2341 42.4916 62.2701 42.5049C62.447 42.9545 62.5238 43.4371 62.4953 43.9193C62.4668 44.4016 62.3337 44.8718 62.1051 45.2974Z" fill="#70B52D"/>
<path d="M20 63.75C19.9995 64.635 20.312 65.4916 20.8823 66.1683C21.4525 66.8451 22.2437 67.2984 23.1159 67.448C23.9882 67.5977 24.8852 67.434 25.6484 66.986C26.4116 66.538 26.9917 65.8345 27.2863 65H32.7138C32.8867 65.4863 33.1582 65.9316 33.5113 66.3081C33.8643 66.6846 34.2913 66.9842 34.7654 67.1881C35.2395 67.392 35.7507 67.4958 36.2668 67.4931C36.7829 67.4904 37.2929 67.3811 37.7649 67.1722C38.2368 66.9632 38.6606 66.6591 39.0096 66.2789C39.3586 65.8986 39.6253 65.4504 39.7931 64.9623C39.9609 64.4743 40.0262 63.9568 39.9848 63.4423C39.9434 62.9279 39.7962 62.4275 39.5525 61.9725C39.4296 61.7515 39.3651 61.5029 39.3651 61.25C39.3651 60.9971 39.4296 60.7485 39.5525 60.5275C39.7962 60.0725 39.9434 59.5721 39.9848 59.0577C40.0262 58.5432 39.9609 58.0257 39.7931 57.5376C39.6253 57.0496 39.3586 56.6014 39.0096 56.2211C38.6606 55.8409 38.2368 55.5368 37.7649 55.3278C37.2929 55.1189 36.7829 55.0096 36.2668 55.0069C35.7507 55.0041 35.2395 55.108 34.7654 55.3119C34.2913 55.5158 33.8643 55.8154 33.5113 56.1919C33.1582 56.5684 32.8867 57.0137 32.7138 57.5H27.2863C27.1134 57.0138 26.842 56.5684 26.4891 56.1919C26.1362 55.8154 25.7093 55.5158 25.2353 55.3118C24.7613 55.1078 24.2503 55.0038 23.7342 55.0064C23.2182 55.009 22.7082 55.118 22.2362 55.3268C21.7643 55.5355 21.3405 55.8394 20.9914 56.2194C20.6422 56.5995 20.3753 57.0475 20.2073 57.5354C20.0393 58.0234 19.9738 58.5407 20.0149 59.0551C20.056 59.5695 20.2029 60.0699 20.4463 60.525C20.5695 60.7463 20.6342 60.9954 20.6342 61.2487C20.6342 61.5021 20.5695 61.7512 20.4463 61.9725C20.1532 62.5191 19.9999 63.1298 20 63.75ZM22.6475 59.3387C22.5498 59.1579 22.4991 58.9555 22.5 58.75C22.5 58.4185 22.6317 58.1005 22.8661 57.8661C23.1005 57.6317 23.4185 57.5 23.75 57.5C24.0815 57.5 24.3995 57.6317 24.6339 57.8661C24.8683 58.1005 25 58.4185 25 58.75C25 59.0815 25.1317 59.3995 25.3661 59.6339C25.6005 59.8683 25.9185 60 26.25 60H33.75C34.0815 60 34.3995 59.8683 34.6339 59.6339C34.8683 59.3995 35 59.0815 35 58.75C35 58.4185 35.1317 58.1005 35.3661 57.8661C35.6005 57.6317 35.9185 57.5 36.25 57.5C36.5815 57.5 36.8995 57.6317 37.1339 57.8661C37.3683 58.1005 37.5 58.4185 37.5 58.75C37.5008 58.9564 37.4496 59.1597 37.3513 59.3412C37.0302 59.9262 36.8619 60.5827 36.8619 61.25C36.8619 61.9173 37.0302 62.5738 37.3513 63.1587C37.4498 63.3402 37.5009 63.5435 37.5 63.75C37.5 64.0815 37.3683 64.3995 37.1339 64.6339C36.8995 64.8683 36.5815 65 36.25 65C35.9185 65 35.6005 64.8683 35.3661 64.6339C35.1317 64.3995 35 64.0815 35 63.75C35 63.4185 34.8683 63.1005 34.6339 62.8661C34.3995 62.6317 34.0815 62.5 33.75 62.5H26.25C25.9185 62.5 25.6005 62.6317 25.3661 62.8661C25.1317 63.1005 25 63.4185 25 63.75C25 64.0815 24.8683 64.3995 24.6339 64.6339C24.3995 64.8683 24.0815 65 23.75 65C23.4185 65 23.1005 64.8683 22.8661 64.6339C22.6317 64.3995 22.5 64.0815 22.5 63.75C22.4992 63.5436 22.5504 63.3402 22.6488 63.1587C22.9699 62.5733 23.1382 61.9163 23.138 61.2486C23.1377 60.5808 22.969 59.924 22.6475 59.3387Z" fill="#70B52D"/>
</svg>
