<svg width="80" height="80" viewBox="0 0 80 80" fill="none" xmlns="http://www.w3.org/2000/svg">
<path d="M78.3774 28.112H75.9851C74.9965 23.4385 70.2624 19.9028 64.3307 19.5317C62.7069 15.2147 57.781 12.1935 52.0609 12.1935C50.791 12.2057 49.5271 12.3694 48.2961 12.6809C45.6982 10.6498 42.4821 9.56449 39.1808 9.60467C37.0707 9.55023 34.9766 9.98267 33.0619 10.8682C31.1472 11.7538 29.4638 13.0685 28.143 14.7097C21.6762 14.5782 16.1238 18.5072 15.208 23.5807C11.6718 23.8264 8.3762 25.4551 6.03918 28.112H1.6226C1.4095 28.1119 1.19848 28.1537 1.00159 28.235C0.804702 28.3163 0.625805 28.4354 0.475121 28.5856C0.324437 28.7358 0.204919 28.9141 0.123397 29.1104C0.0418736 29.3067 -5.7509e-05 29.517 5.91971e-08 29.7294V35.3305C0.00828338 41.7467 1.92822 48.0158 5.51626 53.3427C9.1043 58.6695 14.1987 62.814 20.1533 65.2504V68.2415C20.1553 69.8744 20.8069 71.4398 21.9653 72.5944C23.1237 73.7489 24.6942 74.3983 26.3323 74.4001H53.6677C55.3058 74.3983 56.8763 73.7489 58.0347 72.5944C59.193 71.4398 59.8447 69.8744 59.8467 68.2415V65.2504C65.8013 62.8141 70.8957 58.6696 74.4837 53.3428C78.0718 48.0159 79.9917 41.7467 80 35.3305V29.7294C80.0001 29.517 79.9581 29.3067 79.8766 29.1104C79.7951 28.9141 79.6756 28.7358 79.5249 28.5856C79.3742 28.4354 79.1953 28.3163 78.9984 28.235C78.8015 28.1537 78.5905 28.1119 78.3774 28.112ZM16.6336 26.7378C16.8498 26.7449 17.0652 26.7084 17.2669 26.6306C17.4687 26.5529 17.6526 26.4353 17.8077 26.2851C17.9628 26.1348 18.086 25.9549 18.1698 25.7562C18.2536 25.5574 18.2963 25.3438 18.2954 25.1282C18.1991 20.8473 23.5551 17.4788 28.9103 17.9695C29.2021 17.9767 29.4906 17.9067 29.7464 17.7667C30.0022 17.6266 30.2162 17.4215 30.3666 17.1722C31.3458 15.7634 32.6689 14.6264 34.211 13.8684C35.753 13.1104 37.4634 12.7563 39.1807 12.8395C41.9617 12.7751 44.6638 13.7634 46.7431 15.6053C46.9632 15.7838 47.2199 15.9121 47.4951 15.9811C49.0071 16.0451 50.4703 15.2816 52.0609 15.4286C56.9867 15.4397 60.8835 18.1585 61.6904 21.8334C61.829 22.1072 62.0425 22.3363 62.3062 22.4942C62.57 22.6522 62.8732 22.7324 63.1808 22.7258C67.6317 22.6755 71.5351 24.9965 72.6215 28.112H11.0671C12.7797 27.2011 14.6926 26.7289 16.6336 26.7378ZM56.6015 68.2415C56.6007 69.0168 56.2913 69.7601 55.7412 70.3082C55.1912 70.8564 54.4455 71.1646 53.6677 71.1652H26.3323C25.5546 71.1646 24.8088 70.8564 24.2588 70.3082C23.7087 69.7601 23.3993 69.0168 23.3985 68.2415V66.3731C26.3388 67.2343 29.3872 67.6741 32.4519 67.6793H47.5481C50.6128 67.6741 53.6611 67.2343 56.6015 66.373V68.2415ZM76.7548 35.3305C76.746 43.0492 73.666 50.4493 68.1906 55.9073C62.7152 61.3653 55.2915 64.4355 47.5481 64.4443H32.4519C14.4923 64.4399 1.61191 48.851 3.24559 31.3468C3.28779 31.353 6.77213 31.3352 6.80957 31.3533C6.83117 31.3325 74.4976 31.355 74.5323 31.347C74.5658 31.356 74.6011 31.356 74.6345 31.347H76.7548L76.7548 35.3305Z" fill="#70B52D"/>
</svg>
