<svg width="80" height="80" viewBox="0 0 80 80" fill="none" xmlns="http://www.w3.org/2000/svg">
<path d="M68.2172 27.8619L65 23.3502V17.5C65 17.1685 64.8683 16.8505 64.6339 16.6161C64.3995 16.3817 64.0815 16.25 63.75 16.25H56.25C55.9185 16.25 55.6005 16.3817 55.3661 16.6161C55.1317 16.8505 55 17.1685 55 17.5V23.3502L51.7841 27.8602C51.432 28.3518 51.1076 28.8628 50.8125 29.3906L52.9952 30.6094C53.2451 30.1621 53.5197 29.7291 53.818 29.3125L57.2677 24.475C57.4186 24.2634 57.4998 24.0099 57.5 23.75V18.75H62.5V23.75C62.5001 24.0102 62.5813 24.264 62.7325 24.4758L66.1856 29.3183C66.8883 30.2986 67.4565 31.3687 67.875 32.5H58.75V35H68.5312C68.6683 35.7634 68.7414 36.5369 68.75 37.3125V37.5H58.75V40H68.75V42.5H58.75V45H68.2645L67.9639 45.9173C67.346 47.7533 67.3453 49.7409 67.962 51.5772L68.4144 52.9572C68.6353 53.6157 68.7487 54.3054 68.75 55H58.75V57.5H68.75V60H58.75V62.5H68.75V65H58.75V67.5H68.75V72.5C68.7493 73.1628 68.4857 73.7983 68.017 74.267C67.5483 74.7357 66.9128 74.9993 66.25 75H63.5377C63.372 75 63.2081 74.9673 63.0552 74.9036C62.9023 74.8399 62.7636 74.7465 62.647 74.6289C61.9364 73.9436 60.9877 73.5606 60.0005 73.5606C59.0132 73.5606 58.0645 73.9436 57.3539 74.6289L59.1216 76.3966C59.356 76.1659 59.6716 76.0367 60.0005 76.0367C60.3293 76.0367 60.645 76.1659 60.8794 76.3966C61.2275 76.7471 61.6417 77.0251 62.098 77.2145C62.5543 77.4039 63.0436 77.5009 63.5377 77.5H66.25C67.5756 77.4985 68.8465 76.9712 69.7839 76.0339C70.7212 75.0965 71.2485 73.8256 71.25 72.5V55C71.2489 54.0389 71.0929 53.0843 70.788 52.1728L70.3356 50.7928C69.8875 49.4658 69.8881 48.0283 70.3375 46.7017L70.7906 45.3198C70.9349 44.867 71.0503 44.4054 71.1361 43.938C71.21 43.4622 71.2481 42.9815 71.25 42.5V37.3125C71.248 36.0129 71.0936 34.718 70.7898 33.4544C70.3025 31.4412 69.4288 29.5419 68.2172 27.8619Z" fill="#70B52D"/>
<path d="M8.75003 30V67.8125C8.75289 70.3809 9.77445 72.8433 11.5906 74.6594C13.4067 76.4756 15.8691 77.4971 18.4375 77.5C20.5356 77.5063 22.578 76.8253 24.2524 75.5609C24.829 75.1289 25.5301 74.8953 26.2507 74.8953C26.9712 74.8953 27.6723 75.1289 28.2489 75.5609C29.8261 76.749 31.7303 77.4236 33.7036 77.4933L33.7964 74.9945C32.3336 74.9439 30.9218 74.4442 29.7528 73.5633C28.742 72.8065 27.5133 72.3976 26.2507 72.3976C24.988 72.3976 23.7593 72.8065 22.7485 73.5633C21.5071 74.5004 19.9929 75.0051 18.4375 75C16.532 74.9978 14.7051 74.2398 13.3577 72.8924C12.0102 71.5449 11.2523 69.718 11.25 67.8125V61.25H33.75V58.75H11.25V33.75H38.75V31.25H11.25V30C11.2444 26.8271 12.2473 23.7345 14.114 21.1689C15.9807 18.6032 18.6145 16.6973 21.6352 15.7262C21.8866 15.645 22.1057 15.4862 22.2611 15.2725C22.4165 15.0589 22.5001 14.8015 22.5 14.5373V11.25H30V14.5373C29.9999 14.8015 30.0836 15.0589 30.239 15.2725C30.3944 15.4862 30.6135 15.645 30.8649 15.7262C33.6991 16.6344 36.1975 18.3683 38.04 20.7056C39.8824 23.043 40.9849 25.8772 41.2061 28.8452L43.6988 28.6548C43.4531 25.3478 42.2689 22.1796 40.2852 19.5222C38.3015 16.8648 35.6007 14.8287 32.5 13.653V11.25H35V8.75H32.5V3.75C32.5 3.41848 32.3683 3.10054 32.1339 2.86612C31.8995 2.6317 31.5815 2.5 31.25 2.5H21.25C20.9185 2.5 20.6006 2.6317 20.3661 2.86612C20.1317 3.10054 20 3.41848 20 3.75V8.75H17.5V11.25H20V13.653C16.6866 14.9129 13.8354 17.1519 11.8257 20.072C9.81604 22.9922 8.74324 26.4551 8.75003 30ZM22.5 5H30V8.75H22.5V5Z" fill="#70B52D"/>
<path d="M19.3079 19.6033L20.6922 21.6846C21.4603 21.1748 22.2947 20.7727 23.1721 20.4896L22.403 18.1104C21.3079 18.4641 20.2664 18.9664 19.3079 19.6033Z" fill="#70B52D"/>
<path d="M16.3112 28.8873C16.5552 26.705 17.5097 24.6634 19.0277 23.0767L17.2247 21.3438C15.3262 23.3287 14.1319 25.8822 13.8257 28.6119L16.3112 28.8873Z" fill="#70B52D"/>
<path d="M16.25 36.25H13.75V38.75H16.25V36.25Z" fill="#70B52D"/>
<path d="M16.25 41.25H13.75V52.5H16.25V41.25Z" fill="#70B52D"/>
<path d="M43.75 43.75H41.25V47.5H43.75V43.75Z" fill="#70B52D"/>
<path d="M46.25 30C43.4461 30 41.25 31.6473 41.25 33.75V37.9784L38.3281 39.4445C37.7029 39.7539 37.1768 40.2323 36.8095 40.8254C36.4422 41.4185 36.2484 42.1027 36.25 42.8003V48.75C36.25 48.9441 36.2951 49.1355 36.3819 49.3091L37.3524 51.25L36.3819 53.1909C36.2951 53.3645 36.25 53.5559 36.25 53.75V56.25C36.25 56.4441 36.2951 56.6355 36.3819 56.8091L37.3524 58.75L36.3819 60.6909C36.2951 60.8645 36.25 61.0559 36.25 61.25V63.75C36.25 63.9441 36.2951 64.1355 36.3819 64.3091L37.3524 66.25L36.3819 68.1909C36.2951 68.3645 36.25 68.5559 36.25 68.75V73.75C36.2515 74.7441 36.6471 75.697 37.35 76.4C38.053 77.1029 39.0059 77.4985 40 77.5H52.5C52.7859 77.4987 53.0707 77.4666 53.3497 77.4042C54.1753 77.2132 54.9117 76.7477 55.4385 76.084C55.9653 75.4202 56.2514 74.5974 56.25 73.75V68.75C56.25 68.5559 56.2049 68.3645 56.1181 68.1909L55.1477 66.25L56.1181 64.3091C56.2049 64.1355 56.25 63.9441 56.25 63.75V61.25C56.25 61.0559 56.2049 60.8645 56.1181 60.6909L55.1477 58.75L56.1181 56.8091C56.2049 56.6355 56.25 56.4441 56.25 56.25V53.75C56.25 53.5559 56.2049 53.3645 56.1181 53.1909L55.1477 51.25L56.1181 49.3091C56.2049 49.1355 56.25 48.9441 56.25 48.75V42.8003C56.2518 42.1029 56.0582 41.419 55.6911 40.8261C55.3239 40.2332 54.798 39.755 54.173 39.4458L51.25 37.9784V33.75C51.25 31.6473 49.0539 30 46.25 30ZM46.25 32.5C47.7759 32.5 48.75 33.2403 48.75 33.75C48.75 34.2597 47.7759 35 46.25 35C44.7241 35 43.75 34.2597 43.75 33.75C43.75 33.2403 44.7241 32.5 46.25 32.5ZM53.0536 41.6809C53.2627 41.7838 53.4388 41.9432 53.5619 42.141C53.685 42.3389 53.7502 42.5673 53.75 42.8003V48.4552L52.9774 50H42.5V52.5H52.9774L53.75 54.0448V55.9552L52.9774 57.5H42.5V60H52.9774L53.75 61.5448V63.4552L52.9774 65H42.5V67.5H52.9774L53.75 69.0448V73.75C53.7483 74.0287 53.6544 74.2989 53.4831 74.5187C53.3118 74.7385 53.0726 74.8954 52.8028 74.9652C52.7034 74.9873 52.6019 74.999 52.5 75H40C39.8071 74.9992 39.6169 74.9539 39.4444 74.8676C39.2718 74.7813 39.1215 74.6564 39.0052 74.5025C38.8391 74.2868 38.7494 74.0222 38.75 73.75V69.0448L39.8681 66.8091C39.9548 66.6355 40 66.4441 40 66.25C40 66.0559 39.9548 65.8645 39.8681 65.6909L38.75 63.4552V61.5448L39.8681 59.3091C39.9548 59.1355 40 58.9441 40 58.75C40 58.5559 39.9548 58.3645 39.8681 58.1909L38.75 55.9552V54.0448L39.8681 51.8091C39.9548 51.6355 40 51.4441 40 51.25C40 51.0559 39.9548 50.8645 39.8681 50.6909L38.75 48.4552V42.8003C38.75 42.567 38.8153 42.3383 38.9386 42.1403C39.0619 41.9422 39.2383 41.7826 39.4477 41.6797L43.0603 39.8672C43.2677 39.7634 43.442 39.6039 43.5639 39.4066C43.6857 39.2092 43.7501 38.9819 43.75 38.75V36.9944C44.5412 37.3281 45.3913 37.5 46.25 37.5C47.1087 37.5 47.9588 37.3281 48.75 36.9944V38.75C48.7499 38.9818 48.8144 39.2091 48.9362 39.4064C49.0581 39.6036 49.2324 39.7631 49.4397 39.8669L53.0536 41.6809Z" fill="#70B52D"/>
</svg>
