<svg width="80" height="80" viewBox="0 0 80 80" fill="none" xmlns="http://www.w3.org/2000/svg">
<path d="M76.2885 56.25L77.4627 51.5531C77.513 51.3519 77.5125 51.1414 77.4611 50.9404C77.4097 50.7395 77.3092 50.5545 77.1685 50.4021C77.0278 50.2497 76.8514 50.1348 76.6552 50.0675C76.459 50.0003 76.2492 49.9829 76.0446 50.017L70.2023 50.9908C69.4145 49.0834 68.162 47.4034 66.559 46.1037C67.9934 42.7739 68.7501 38.96 68.7501 35C68.7501 28.513 66.7485 22.5759 63.1141 18.2825C59.2196 13.6817 53.8204 11.25 47.5001 11.25H30.0001C16.9043 11.25 6.25009 21.9042 6.25009 35C6.24951 38.6305 7.0805 42.2129 8.6793 45.4723C6.31148 46.8596 4.46618 48.9878 3.42833 51.5283C2.39047 54.0687 2.21778 56.8802 2.93693 59.5286C3.65607 62.177 5.22704 64.515 7.40729 66.1817C9.58753 67.8483 12.2558 68.7509 15.0001 68.75H60.0001C64.5131 68.75 68.4115 65.7812 70.2023 61.5092L76.0446 62.483C76.2492 62.5171 76.459 62.4997 76.6552 62.4325C76.8514 62.3652 77.0278 62.2503 77.1685 62.0979C77.3092 61.9455 77.4097 61.7605 77.4611 61.5596C77.5125 61.3586 77.513 61.1481 77.4627 60.9469L76.2885 56.25ZM61.206 19.8977C64.4587 23.7403 66.2501 29.1038 66.2501 35C66.2501 38.4784 65.619 41.822 64.417 44.755C63.7555 44.4397 63.0624 44.1954 62.3495 44.0263C63.296 41.1118 63.7689 38.0643 63.7501 35C63.7501 28.513 61.7484 22.5759 58.1141 18.2825C57.1362 17.1229 56.0302 16.0777 54.8173 15.1667C57.2915 16.2154 59.4813 17.8369 61.206 19.8977ZM51.206 19.8977C54.4587 23.7403 56.2501 29.1038 56.2501 35C56.2725 37.9782 55.7823 40.938 54.801 43.75H52.0863C53.1929 40.9659 53.7576 37.996 53.7501 35C53.747 30.7149 52.5857 26.5104 50.3891 22.8312C48.1924 19.152 45.042 16.1351 41.2713 14.0995C45.1573 14.8158 48.6711 16.8665 51.206 19.8977ZM53.1141 18.2825C52.1362 17.1229 51.0302 16.0777 49.8173 15.1667C52.2916 16.2153 54.4814 17.8368 56.2062 19.8977C59.4587 23.7403 61.2501 29.1038 61.2501 35C61.2725 37.9782 60.7823 40.938 59.801 43.75H57.4398C58.3253 40.9184 58.7673 37.9668 58.7501 35C58.7501 28.513 56.7484 22.5759 53.1141 18.2825ZM8.75009 35C8.75009 23.2827 18.2829 13.75 30.0001 13.75C41.7173 13.75 51.2501 23.2827 51.2501 35C51.2582 38.0178 50.6169 41.002 49.3696 43.75H15.0001C13.6222 43.7498 12.2539 43.9785 10.951 44.4269C9.50258 41.4955 8.74943 38.2697 8.75009 35ZM5.00009 56.25C5.00009 54.2722 5.58658 52.3388 6.68539 50.6943C7.7842 49.0498 9.34599 47.7681 11.1733 47.0112C13.0005 46.2543 15.0112 46.0563 16.951 46.4421C18.8908 46.828 20.6726 47.7804 22.0712 49.1789C23.4697 50.5775 24.4221 52.3593 24.8079 54.2991C25.1938 56.2389 24.9958 58.2496 24.2389 60.0768C23.482 61.9041 22.2003 63.4659 20.5558 64.5647C18.9113 65.6635 16.9779 66.25 15.0001 66.25C12.3488 66.247 9.80702 65.1925 7.93231 63.3178C6.05759 61.4431 5.00306 58.9013 5.00009 56.25ZM60.0001 66.25H22.4915C24.0463 65.0872 25.3085 63.578 26.1779 61.8421C27.0474 60.1062 27.5001 58.1915 27.5001 56.25C27.5001 54.3085 27.0474 52.3938 26.1779 50.6579C25.3085 48.922 24.0463 47.4128 22.4915 46.25H27.5001C30.3012 46.25 35.0001 47.5491 35.0001 56.25C35.0001 56.5815 35.1318 56.8995 35.3662 57.1339C35.6006 57.3683 35.9186 57.5 36.2501 57.5C36.5816 57.5 36.8995 57.3683 37.134 57.1339C37.3684 56.8995 37.5001 56.5815 37.5001 56.25C37.5001 51.8075 36.2946 48.3827 34.1081 46.25H40.0001C42.8012 46.25 47.5001 47.5491 47.5001 56.25C47.5001 56.5815 47.6318 56.8995 47.8662 57.1339C48.1006 57.3683 48.4186 57.5 48.7501 57.5C49.0816 57.5 49.3995 57.3683 49.634 57.1339C49.8684 56.8995 50.0001 56.5815 50.0001 56.25C50.0001 51.8075 48.7946 48.3827 46.608 46.25H51.2501C54.0512 46.25 58.7501 47.5491 58.7501 56.25C58.7501 56.5815 58.8818 56.8995 59.1162 57.1339C59.3506 57.3683 59.6686 57.5 60.0001 57.5C60.3316 57.5 60.6495 57.3683 60.884 57.1339C61.1184 56.8995 61.2501 56.5815 61.2501 56.25C61.2501 51.8075 60.0446 48.3827 57.858 46.25H60.0001C64.8249 46.25 68.7501 50.7359 68.7501 56.25C68.7501 61.7641 64.8249 66.25 60.0001 66.25ZM73.7874 56.5531L74.5749 59.7036L70.9516 59.0997C71.3496 57.2207 71.3496 55.2793 70.9516 53.4003L74.5749 52.7964L73.7874 55.9469C73.7376 56.1459 73.7376 56.3541 73.7874 56.5531Z" fill="#70B52D"/>
<path d="M12.5 55C11.7583 55 11.0333 55.2199 10.4166 55.632C9.79993 56.044 9.31928 56.6297 9.03545 57.3149C8.75162 58.0002 8.67736 58.7542 8.82206 59.4816C8.96675 60.209 9.3239 60.8772 9.84835 61.4016C10.3728 61.9261 11.041 62.2833 11.7684 62.4279C12.4958 62.5726 13.2498 62.4984 13.9351 62.2145C14.6203 61.9307 15.206 61.4501 15.618 60.8334C16.0301 60.2167 16.25 59.4917 16.25 58.75C16.2489 57.7558 15.8534 56.8026 15.1504 56.0996C14.4474 55.3966 13.4942 55.0011 12.5 55ZM12.5 60C12.2528 60 12.0111 59.9267 11.8055 59.7893C11.6 59.652 11.4398 59.4568 11.3452 59.2284C11.2505 58.9999 11.2258 58.7486 11.274 58.5061C11.3223 58.2637 11.4413 58.0409 11.6161 57.8661C11.7909 57.6913 12.0137 57.5723 12.2561 57.524C12.4986 57.4758 12.7499 57.5005 12.9784 57.5952C13.2068 57.6898 13.402 57.85 13.5393 58.0555C13.6767 58.2611 13.75 58.5028 13.75 58.75C13.7496 59.0814 13.6178 59.3991 13.3835 59.6335C13.1491 59.8678 12.8314 59.9996 12.5 60Z" fill="#70B52D"/>
<path d="M30.9911 38.3839C31.1072 38.5 31.245 38.5921 31.3967 38.6549C31.5483 38.7177 31.7109 38.7501 31.875 38.7501C32.0392 38.7501 32.2018 38.7177 32.3534 38.6549C32.5051 38.5921 32.6429 38.5 32.759 38.3839L37.759 33.3839C37.9934 33.1495 38.1251 32.8316 38.1251 32.5C38.1251 32.1685 37.9934 31.8506 37.759 31.6161C37.5245 31.3817 37.2066 31.25 36.875 31.25C36.5435 31.25 36.2256 31.3817 35.9911 31.6161L30.9911 36.6161C30.8751 36.7322 30.783 36.87 30.7202 37.0217C30.6573 37.1733 30.625 37.3359 30.625 37.5C30.625 37.6642 30.6573 37.8267 30.7202 37.9784C30.783 38.1301 30.8751 38.2679 30.9911 38.3839Z" fill="#70B52D"/>
<path d="M20 38.75C20.1642 38.7503 20.3268 38.718 20.4785 38.6552C20.6302 38.5924 20.768 38.5002 20.884 38.3839L34.634 24.6339C34.8684 24.3995 35.0001 24.0816 35.0001 23.75C35.0001 23.4185 34.8684 23.1006 34.634 22.8661C34.3995 22.6317 34.0816 22.5 33.75 22.5C33.4185 22.5 33.1006 22.6317 32.8661 22.8661L19.1161 36.6161C18.9413 36.7909 18.8223 37.0137 18.774 37.2562C18.7258 37.4986 18.7505 37.75 18.8452 37.9784C18.9398 38.2068 19.1 38.402 19.3056 38.5394C19.5111 38.6767 19.7528 38.75 20 38.75Z" fill="#70B52D"/>
<path d="M18.75 53.75C19.4404 53.75 20 53.1904 20 52.5C20 51.8096 19.4404 51.25 18.75 51.25C18.0596 51.25 17.5 51.8096 17.5 52.5C17.5 53.1904 18.0596 53.75 18.75 53.75Z" fill="#70B52D"/>
</svg>
