<svg width="80" height="80" viewBox="0 0 80 80" fill="none" xmlns="http://www.w3.org/2000/svg">
<circle cx="40" cy="40" r="40" fill="white"/>
<g clip-path="url(#clip0_30_2606)">
<path d="M54.6401 37.4855L56.4657 35.6335C57.5162 34.562 57.8736 32.99 57.3897 31.5695C56.9595 30.2151 55.8031 29.2184 54.4001 28.9927L45.6729 27.6719C44.9683 27.558 44.3676 27.0988 44.0729 26.4487L40.1385 18.1599C39.5484 16.845 38.2413 15.999 36.8001 15.999C35.3588 15.999 34.0518 16.845 33.4617 18.1599L29.5265 26.4471C29.2307 27.0994 28.6273 27.5597 27.9201 27.6727L19.2001 28.9927C17.797 29.2184 16.6407 30.2151 16.2105 31.5695C15.7265 32.99 16.0839 34.562 17.1345 35.6335L23.3961 41.9751C23.9216 42.5239 24.1587 43.2877 24.0361 44.0375L22.5481 53.0455C22.2822 54.5343 22.8964 56.0433 24.1265 56.9231C25.2475 57.7414 26.7429 57.8302 27.9529 57.1503L35.8401 52.8359C36.1912 52.6415 36.5939 52.5605 36.9929 52.6039C38.0742 59.1871 43.7734 64.0124 50.4448 63.9929C57.1161 63.9735 62.7872 59.1151 63.8301 52.5257C64.873 45.9363 60.9794 39.5642 54.6401 37.4855ZM35.0721 51.4335L27.1841 55.7463C26.5091 56.1248 25.6754 56.0748 25.0505 55.6183C24.3221 55.0905 23.9623 54.1909 24.1257 53.3063L25.6145 44.2935C25.8171 43.0412 25.4178 41.7665 24.5369 40.8535L18.2737 34.5103C17.6482 33.8655 17.4377 32.9242 17.7289 32.0743C17.9649 31.288 18.6295 30.7057 19.4401 30.5751L28.1529 29.2559C29.3884 29.0664 30.4465 28.27 30.9705 27.1351L34.9065 18.8471C35.2315 18.0901 35.9762 17.5995 36.8001 17.5995C37.6239 17.5995 38.3686 18.0901 38.6937 18.8471L42.6305 27.1367C43.1531 28.2689 44.2078 29.0642 45.4401 29.2551L54.1601 30.5751C54.9706 30.7057 55.6353 31.288 55.8713 32.0743C56.1625 32.9242 55.952 33.8655 55.3265 34.5103L52.8409 37.0311C48.8711 36.288 44.7767 37.3547 41.6742 39.9404C38.5717 42.5261 36.7845 46.3612 36.8001 50.3999C36.8001 50.6063 36.8217 50.8071 36.8313 51.0103C36.2182 50.9972 35.6121 51.143 35.0721 51.4335ZM50.4001 62.3999C43.7727 62.3999 38.4001 57.0274 38.4001 50.3999C38.4001 43.7725 43.7727 38.3999 50.4001 38.3999C57.0275 38.3999 62.4001 43.7725 62.4001 50.3999C62.3926 57.0243 57.0244 62.3925 50.4001 62.3999Z" fill="#2065AC"/>
<path d="M48.566 49.8345C48.2536 49.5222 47.7472 49.5222 47.4348 49.8345L45.6004 51.6689L43.766 49.8345C43.4521 49.5313 42.9531 49.5357 42.6446 49.8442C42.336 50.1528 42.3316 50.6518 42.6348 50.9657L44.4692 52.8001L42.6348 54.6345C42.4268 54.8354 42.3434 55.1328 42.4167 55.4125C42.4899 55.6922 42.7083 55.9106 42.988 55.9839C43.2677 56.0571 43.5652 55.9737 43.766 55.7657L45.6004 53.9313L47.4348 55.7657C47.7487 56.0689 48.2477 56.0645 48.5563 55.756C48.8649 55.4474 48.8692 54.9484 48.566 54.6345L46.7316 52.8001L48.566 50.9657C48.8783 50.6533 48.8783 50.1469 48.566 49.8345Z" fill="#2065AC"/>
<path d="M54.5604 52.4001C56.3612 50.9457 58.4004 49.2961 58.4004 47.2001C58.4004 44.991 56.6095 43.2001 54.4004 43.2001C52.1913 43.2001 50.4004 44.991 50.4004 47.2001C50.4004 47.6419 50.7586 48.0001 51.2004 48.0001C51.6422 48.0001 52.0004 47.6419 52.0004 47.2001C52.0004 45.8746 53.0749 44.8001 54.4004 44.8001C55.7259 44.8001 56.8004 45.8746 56.8004 47.2001C56.8004 48.5329 55.0756 49.9265 53.5532 51.1561C51.9324 52.4665 50.4004 53.7041 50.4004 55.2001C50.4004 55.6419 50.7586 56.0001 51.2004 56.0001H57.6004C58.0422 56.0001 58.4004 55.6419 58.4004 55.2001C58.4004 54.7583 58.0422 54.4001 57.6004 54.4001H52.3692C53.0316 53.6626 53.7656 52.9927 54.5604 52.4001Z" fill="#2065AC"/>
</g>
<defs>
<clipPath id="clip0_30_2606">
<rect width="48" height="48" fill="white" transform="translate(16 16)"/>
</clipPath>
</defs>
</svg>
