<svg width="80" height="80" viewBox="0 0 80 80" fill="none" xmlns="http://www.w3.org/2000/svg">
<circle cx="40" cy="40" r="40" fill="white"/>
<path d="M61.8112 22.7212C61.1611 20.6766 60.28 19.2127 60.2426 19.1512C60.0981 18.913 59.8007 18.7892 59.5312 18.851C59.4615 18.8669 57.7976 19.2552 55.8783 20.2138C53.2872 21.5074 51.4772 23.2345 50.6433 25.2074C49.9492 26.8504 49.8495 28.859 50.342 31.0779C49.2931 29.9065 48.1131 28.8817 46.8269 28.019C46.4342 27.2431 45.3957 25.3329 43.7722 23.3364C43.2374 22.6791 42.2088 23.5039 42.7491 24.1678C43.843 25.5133 44.6664 26.8366 45.1814 27.7458L39.1766 26.5752L33.4714 18.7933C34.0254 18.801 34.5813 18.8545 35.1344 18.963C36.8881 19.3063 38.6204 20.1995 40.284 21.6173C40.9358 22.1729 41.7823 21.1617 41.139 20.6137C39.3013 19.0476 37.3663 18.0566 35.3877 17.6691C32.3672 17.078 28.8445 17.8539 25.1992 19.9139C22.4823 21.4492 20.6654 23.1356 20.5896 23.2065C20.3466 23.4336 20.3078 23.8462 20.5113 24.1115C20.7778 24.6581 21.7874 26.6298 23.468 28.7527C24.4587 30.0043 25.5035 31.0754 26.5843 31.9557C26.2772 32.2131 25.9784 32.4822 25.6892 32.7654C24.1445 34.2763 22.9618 36.0586 22.1854 38.007C21.499 39.7286 21.1299 41.5806 21.1093 43.4895C21.0752 46.6109 21.9797 49.6215 23.7254 52.1961C25.4308 54.7109 27.8148 56.6417 30.6196 57.7796C31.4046 58.0974 31.9009 56.8766 31.1154 56.558C30.0991 56.1457 29.1444 55.6175 28.2639 54.9894C28.3765 54.3648 28.6377 52.117 27.1446 49.7901C26.9356 49.4646 27.5605 48.1864 27.9334 47.4228C28.3185 46.6359 28.7159 45.8224 28.9016 45.0564C29.0988 44.2426 28.8769 43.5595 28.2603 43.0802C27.8076 42.7284 27.2152 42.5463 26.6931 42.3856C26.3539 42.2812 25.9694 42.1631 25.832 42.0486C25.5491 41.8116 25.0872 40.9357 24.7158 40.2323C24.3038 39.452 23.9116 38.7093 23.5112 38.252C24.4123 36.1119 25.8598 34.2181 27.6725 32.7693C29.3284 33.8973 31.2184 34.6757 33.2272 34.8333C30.8976 36.6384 30.1439 38.9436 31.2211 41.1579C32.479 43.7435 35.0682 43.3304 37.3526 42.9665C37.7478 42.9033 38.1568 42.8382 38.5484 42.7893C38.6954 42.7709 38.7396 42.811 38.7693 42.8371C39.2694 43.2821 39.2546 45.4071 39.2439 46.9589C39.2293 49.1054 39.2156 51.1329 40.0151 52.1739C40.423 52.7045 40.9973 52.9759 41.6705 52.9759C42.0739 52.9759 42.5123 52.8786 42.9721 52.6814C44.9603 51.83 47.0271 49.2674 46.7118 47.2399C46.4363 45.4673 46.254 44.2961 46.6838 43.3521C47.0812 42.4784 48.042 41.6696 49.9341 40.6374C50.1607 41.6578 50.275 42.7193 50.2632 43.8083C50.2228 47.5256 48.7369 51.0047 46.0796 53.6043C43.1097 56.5096 38.9357 57.9444 34.8068 57.4893C33.9655 57.3981 33.8202 58.7072 34.6626 58.8C39.1821 59.2977 43.7516 57.7266 47.0013 54.5469C49.9108 51.7006 51.5373 47.8922 51.5815 43.8223C51.6403 38.4261 48.8715 33.6454 44.6566 30.8914C45.5275 30.2704 46.1762 29.7335 46.536 29.4217C48.0728 30.5242 49.4359 31.8824 50.57 33.4647C53.2924 37.264 54.3721 41.8956 53.6107 46.5071C52.0383 56.0265 43.0149 62.4928 33.4939 60.9198C28.8821 60.1582 24.8433 57.6467 22.1208 53.8474C19.3982 50.0483 18.3185 45.4162 19.0801 40.8049C19.2169 39.9752 17.9169 39.7574 17.7796 40.5902C16.9603 45.5491 18.1218 50.53 21.0489 54.6156C23.9764 58.7006 28.3202 61.4016 33.2791 62.2209C34.3162 62.392 35.3544 62.4766 36.3855 62.4766C40.2829 62.4766 44.0743 61.2664 47.3051 58.9513C51.3912 56.0238 54.0925 51.6809 54.9112 46.7219C55.5113 43.0882 55.0469 39.4426 53.6044 36.1462C54.2702 35.9498 55.4031 35.5686 56.644 34.949C59.2346 33.6553 61.0449 31.9283 61.8785 29.9554C62.7129 27.982 62.6895 25.4804 61.8112 22.7212ZM23.5496 40.8475C24.0402 41.7775 24.5041 42.6564 24.9861 43.0596C25.3275 43.345 25.8026 43.4911 26.3055 43.6457C27.594 44.0418 27.7437 44.2362 27.6201 44.7457C27.4684 45.3722 27.1026 46.1204 26.7491 46.8436C26.0682 48.2366 25.4253 49.5517 26.0347 50.502C26.8991 51.849 27.0471 53.175 27.0323 53.9998C23.1058 50.4592 21.507 44.8669 22.9695 39.784C23.1634 40.1164 23.3672 40.5025 23.5496 40.8475ZM55.4443 27.8927L53.5709 23.3526C54.4825 22.5001 55.5402 21.8585 56.4411 21.4066C57.2084 21.0216 57.9385 20.7337 58.5241 20.5297L55.4443 27.8927ZM59.7394 21.0408C60.0012 21.6033 60.3047 22.3287 60.564 23.1485C60.8482 24.0483 61.1091 25.1634 61.1611 26.3266L56.7706 28.138L59.7394 21.0408ZM51.8576 25.7207C52.052 25.2609 52.3033 24.8347 52.5936 24.4411L54.7264 29.6088L52.8125 34.1851C52.5437 33.6147 52.227 32.8654 51.9584 32.0142C51.4192 30.31 50.9644 27.8342 51.8576 25.7207ZM56.081 33.7561C55.3424 34.1269 54.6376 34.4076 54.0636 34.61L56.0497 29.862L61.105 27.776C61.0317 28.3423 60.8919 28.9037 60.6642 29.4421C59.7713 31.5555 57.6789 32.9549 56.081 33.7561ZM32.3101 33.3809C32.0772 33.3353 31.8473 33.2796 31.6207 33.2161L38.9168 27.868L44.9244 29.0389C42.7359 30.7632 37.41 34.3801 32.3101 33.3809ZM25.6422 29.2564C24.0819 27.5746 22.9382 25.7765 22.2815 24.6251L29.9266 26.1157L25.6422 29.2564ZM26.9925 20.461L30.1911 24.8239L22.4966 23.324C23.4653 22.5591 25.0644 21.4108 26.9925 20.461ZM32.0984 25.1958L28.2205 19.9062C29.3814 19.4291 30.6276 19.0537 31.905 18.8867L37.2696 26.2036L32.0984 25.1958ZM31.688 26.459L37.1556 27.5247L30.1384 32.6682C28.8151 32.0571 27.6242 31.1784 26.5821 30.2018L31.688 26.459ZM49.576 39.3322C47.1993 40.5984 46.0356 41.5929 45.4836 42.8061C44.8906 44.1088 45.1078 45.5071 45.4086 47.4423C45.5863 48.5835 44.23 50.7086 42.453 51.4697C41.7954 51.7512 41.3272 51.7179 41.0605 51.3705C40.5367 50.6888 40.551 48.6256 40.5622 46.968C40.5779 44.6746 40.5916 42.694 39.6454 41.8522C39.3051 41.5495 38.8698 41.4216 38.3861 41.4809C37.9717 41.5325 37.5511 41.5995 37.1449 41.6643C34.7216 42.0505 33.1967 42.2052 32.4068 40.5811C31.1269 37.9507 33.7177 36.0023 34.8911 35.2868C35.13 35.1412 35.3517 34.9696 35.5577 34.7784C38.3935 34.4395 41.0731 33.2227 43.461 31.6986C46.324 33.4092 48.5218 36.1163 49.576 39.3322Z" fill="#2065AC"/>
</svg>
