<svg width="150" height="150" viewBox="0 0 150 150" fill="none" xmlns="http://www.w3.org/2000/svg">
<path d="M75 140.976C113.66 140.976 145 110.515 145 72.9394C145 35.3641 113.66 4.90326 75 4.90326C36.3401 4.90326 5 35.3641 5 72.9394C5 110.515 36.3401 140.976 75 140.976Z" stroke="#70B52D" stroke-width="8.94444" stroke-miterlimit="10"/>
<path d="M49.0603 9.72961C41.3125 12.4775 34.2021 16.5088 28.0117 21.5706" stroke="white" stroke-miterlimit="10"/>
<path d="M46.2329 7.02716L45.9307 7.84066L48.8221 9.85635L47.1464 13.6708L47.7115 14.1408L49.7487 9.49478L46.2329 7.02716Z" fill="white"/>
<path d="M92.9143 7.17593C86.4479 5.25967 79.5807 4.22925 72.4637 4.22925C71.2283 4.22925 69.9928 4.25634 68.7705 4.31962" stroke="white" stroke-miterlimit="10"/>
<path d="M91.2924 3L90.7601 3.53329L92.6658 7.1308L89.9189 9.48996L90.2672 10.2493L93.6121 7.38389L91.2924 3Z" fill="white"/>
<path d="M128.5 29.4842C124.274 24.4043 119.306 19.93 113.76 16.215" stroke="white" stroke-miterlimit="10"/>
<path d="M128.526 24.7477L127.869 24.8652L128.29 29.2852L125.057 29.5383L125.089 30.4422L129.032 30.1349L128.526 24.7477Z" fill="white"/>
<path d="M99.208 137.676C106.956 134.928 114.066 130.897 120.257 125.835" stroke="white" stroke-miterlimit="10"/>
<path d="M102.04 140.378L102.342 139.574L99.451 137.549L101.127 133.735L100.568 133.265L98.5244 137.92L102.04 140.378Z" fill="white"/>
<path d="M54.792 138.815C61.2584 140.731 68.1256 141.762 75.2426 141.762C76.4781 141.762 77.7135 141.734 78.9358 141.671" stroke="white" stroke-miterlimit="10"/>
<path d="M56.4259 143L56.9582 142.467L55.0459 138.86L57.7993 136.51L57.4511 135.742L54.0996 138.607L56.4259 143Z" fill="white"/>
<path d="M20.8076 116.507C25.0331 121.587 30.0012 126.061 35.5476 129.776" stroke="white" stroke-miterlimit="10"/>
<path d="M20.7821 121.243L21.4327 121.126L21.0121 116.706L24.2519 116.462L24.2125 115.558L20.2695 115.865L20.7821 121.243Z" fill="white"/>
</svg>
