<svg width="80" height="80" viewBox="0 0 80 80" fill="none" xmlns="http://www.w3.org/2000/svg">
<circle cx="40" cy="40" r="40" fill="white"/>
<path d="M33.1034 34.9251C30.0989 40.0284 32.5649 44.1126 33.3883 45.2419C32.3813 47.0944 31.6054 49.131 31.3343 51.271C31.2726 51.7583 31.6181 52.2035 32.1054 52.2652C32.1434 52.2705 32.1809 52.2726 32.2183 52.2726C32.6598 52.2726 33.0433 51.944 33.1003 51.4946C34.0618 43.899 42.4481 37.3362 42.5325 37.2708C42.9213 36.9701 42.993 36.411 42.6929 36.0223C42.3922 35.6335 41.8336 35.5607 41.4449 35.8614C41.2007 36.0497 37.3042 39.0969 34.3963 43.5556C33.6203 42.2248 32.5491 39.3754 34.6373 35.8281C35.9375 33.618 37.9625 33.2667 40.3076 32.8595C42.0288 32.5615 43.9361 32.2303 45.6504 31.0724C46.2006 33.7051 47.0435 39.5996 44.52 43.0693C43.2615 44.7999 41.2629 45.7209 38.5796 45.8058C38.0886 45.8211 37.7025 46.2315 37.7183 46.7226C37.7336 47.2047 38.1287 47.585 38.6076 47.585H38.6361C41.8996 47.4821 44.3639 46.3138 45.9627 44.1132C49.7774 38.8606 47.1542 29.6282 47.0408 29.2374C46.9527 28.9367 46.7133 28.703 46.41 28.6245C46.1051 28.5464 45.7833 28.6324 45.5602 28.8539C43.981 30.4163 42.0494 30.7517 40.0033 31.1062C37.4561 31.5477 34.8219 32.0045 33.1034 34.9251Z" fill="#70B52D" stroke="#70B52D" stroke-width="0.7"/>
<path d="M32.244 57.4685C32.3574 57.5171 32.4761 57.5398 32.5922 57.5398C32.9382 57.5398 33.2673 57.3367 33.4119 56.998C33.6044 56.546 33.3939 56.0233 32.9414 55.8307C25.927 52.8421 21.7637 45.7365 22.5807 38.1478C23.5154 29.4682 30.7835 22.9813 39.2895 22.7862L37.0915 24.5564C36.7086 24.8649 36.6484 25.4251 36.9565 25.8081C37.1321 26.0264 37.3901 26.1398 37.6501 26.1398C37.8463 26.1398 38.0436 26.0755 38.2082 25.9431L42.2544 22.6844C42.4385 22.5362 42.5556 22.3215 42.5809 22.0862C42.6062 21.851 42.5371 21.6162 42.3894 21.4327L39.1302 17.387C38.8221 17.004 38.262 16.9439 37.8785 17.2519C37.4956 17.5605 37.4354 18.1207 37.744 18.5036L39.7521 20.9965C30.151 20.9595 21.8607 28.2086 20.8111 37.9568C19.9091 46.3299 24.5039 54.1708 32.244 57.4685Z" fill="#70B52D" stroke="#70B52D" stroke-width="0.7"/>
<path d="M46.2843 24.0826C53.296 26.9821 57.6249 34.2823 56.8121 41.8362C55.8764 50.5147 48.6052 56.9969 40.1028 57.1957L42.3003 55.4266C42.6832 55.1175 42.7434 54.5583 42.4353 54.1749C42.1267 53.7914 41.5671 53.7318 41.1836 54.0398L37.1368 57.2986C36.9528 57.4468 36.8351 57.6615 36.8098 57.8962C36.7845 58.1309 36.8536 58.3662 37.0018 58.5503L40.2616 62.596C40.4378 62.8143 40.6952 62.9278 40.9547 62.9278C41.1509 62.9278 41.3482 62.8629 41.5133 62.731C41.8962 62.4219 41.9564 61.8617 41.6478 61.4793L39.6381 58.9849C39.6619 58.9849 39.6856 58.987 39.7093 58.987C49.2777 58.986 57.5337 51.7506 58.5818 42.0267C59.4785 33.6926 54.7017 25.637 46.9647 22.4374C46.5111 22.2507 45.9894 22.4659 45.8022 22.92C45.6144 23.3742 45.8301 23.8943 46.2843 24.0826Z" fill="#70B52D" stroke="#70B52D" stroke-width="0.7"/>
</svg>
