<svg width="80" height="80" viewBox="0 0 80 80" fill="none" xmlns="http://www.w3.org/2000/svg">
<circle cx="40" cy="40" r="40" fill="white"/>
<g clip-path="url(#clip0_24_3096)">
<path d="M44.4442 59.6735L42.9387 63.5844C42.8424 63.8348 42.6017 63.9999 42.3335 63.9999H37.6663C37.3982 63.9999 37.1574 63.8348 37.0611 63.5844L35.6823 60.0033C33.2676 59.4852 30.9932 58.5422 28.9108 57.1959L25.4019 58.7551C25.1561 58.8632 24.8694 58.8104 24.6798 58.6208L21.3795 55.3205C21.1898 55.1309 21.1362 54.8437 21.2452 54.5988L22.8035 51.09C21.4581 49.0098 20.5147 46.7344 19.9957 44.3172L16.4155 42.9388C16.1651 42.8425 16 42.6017 16 42.3336V37.6664C16 37.3983 16.1651 37.1575 16.4155 37.0612L19.9962 35.6828C20.5143 33.2669 21.4577 30.9919 22.804 28.9109L21.2453 25.4012C21.1364 25.1562 21.19 24.869 21.3796 24.6795L24.6794 21.3792C24.869 21.1892 25.1557 21.1359 25.4015 21.2449L28.9108 22.8041C30.9927 21.4578 33.2672 20.5148 35.6823 19.9967L37.0611 16.4156C37.1575 16.1651 37.3983 16 37.6664 16H42.3336C42.6017 16 42.8425 16.1651 42.9388 16.4155L44.4447 20.3277C44.5735 20.6622 44.4071 21.0372 44.0727 21.1659C43.7395 21.2939 43.3632 21.1283 43.2345 20.7939L41.8882 17.2973H38.1119L36.7656 20.7939C36.6858 21.0021 36.5043 21.1541 36.2854 21.1972C33.7913 21.6871 31.4523 22.6567 29.3331 24.079C29.1482 24.2036 28.9117 24.2235 28.7086 24.1335L25.2817 22.6115L22.6119 25.2817L24.1335 28.7087C24.2238 28.9122 24.2031 29.1482 24.079 29.3332C22.6563 31.4514 21.6867 33.7906 21.1967 36.2859C21.1537 36.5046 21.0017 36.6862 20.7934 36.7661L17.2973 38.1119V41.888L20.7927 43.2339C21.0009 43.3137 21.1529 43.4953 21.196 43.7141C21.6872 46.2108 22.6567 48.5503 24.0786 50.6676C24.2027 50.8526 24.2235 51.0887 24.1331 51.2922L22.612 54.7183L25.2822 57.3885L28.7087 55.8665C28.9119 55.7766 29.1483 55.7964 29.3333 55.921C31.4528 57.3438 33.792 58.3133 36.2856 58.8028C36.5043 58.8458 36.6859 58.9979 36.7658 59.2061L38.1121 62.7027H41.8882L43.2341 59.2073C43.3629 58.8728 43.74 58.7065 44.0723 58.8353C44.4067 58.9641 44.573 59.3395 44.4442 59.6735ZM34.9633 48.3438C35.0685 48.4075 35.1842 48.4375 35.2986 48.4375C35.5178 48.4375 35.7323 48.326 35.8539 48.1246C36.0392 47.818 35.9413 47.4193 35.6347 47.2339C33.079 45.6884 31.5532 42.9843 31.5532 40C31.5532 37.0157 33.079 34.3116 35.6347 32.7661C35.9413 32.5807 36.0392 32.182 35.8539 31.8754C35.6689 31.5689 35.2695 31.4704 34.9633 31.6562C32.0157 33.4383 30.2559 36.5579 30.2559 40C30.2559 43.4421 32.0156 46.5617 34.9633 48.3438ZM64 40C64 41.6639 62.6462 43.0177 60.9823 43.0177C59.5413 43.0177 58.3345 42.0015 58.0366 40.6487H40.6487V43.5959H47.2263C47.3982 43.5959 47.5634 43.6643 47.685 43.7859L50.0747 46.1762H51.6857C51.9835 44.8232 53.1903 43.8071 54.6314 43.8071C56.2952 43.8071 57.6491 45.1609 57.6491 46.8248C57.6491 48.4887 56.2952 49.8425 54.6314 49.8425C53.1904 49.8425 51.9836 48.8263 51.6857 47.4735H49.8062C49.6343 47.4735 49.4691 47.405 49.3475 47.2834L46.9578 44.8933H40.6487V47.8409H45.9831C46.155 47.8409 46.3202 47.9093 46.4417 48.0309L51.0642 52.6533C51.1858 52.7749 51.2542 52.9401 51.2542 53.112V55.4274C52.053 55.6039 52.7787 56.0985 53.2188 56.8607C53.6221 57.5587 53.7293 58.3721 53.5207 59.1503C53.3121 59.929 52.8125 60.5798 52.1145 60.9827C51.6496 61.2513 51.1335 61.3885 50.6106 61.3885C50.3484 61.3885 50.0844 61.3539 49.8247 61.2842C49.046 61.0756 48.3952 60.5763 47.9924 59.8784C47.1604 58.4375 47.6558 56.5882 49.0967 55.7559C49.3718 55.5971 49.6619 55.4874 49.9569 55.4227V53.3805L45.7145 49.1381H40.6487V53.7964C40.6487 54.1546 40.3581 54.4451 40 54.4451C32.0351 54.4451 25.5549 47.9649 25.5549 40C25.5549 32.0351 32.0351 25.5549 40 25.5549C40.3581 25.5549 40.6487 25.8454 40.6487 26.2036V30.8619H45.7145L49.9569 26.6195V24.5734C49.659 24.5074 49.3686 24.4011 49.0967 24.244C47.6558 23.4117 47.1604 21.5624 47.9924 20.1215C48.3952 19.4235 49.046 18.9243 49.8247 18.7157C50.603 18.5072 51.4163 18.6139 52.1144 19.0172C52.8124 19.4201 53.3116 20.0709 53.5202 20.8496C53.7292 21.6283 53.622 22.4412 53.2187 23.1392C52.8158 23.8373 52.165 24.3364 51.3863 24.5455C51.3425 24.5572 51.2982 24.5621 51.2541 24.5717V26.8879C51.2541 27.0598 51.1857 27.225 51.0641 27.3466L46.4417 31.969C46.3201 32.0906 46.1549 32.159 45.983 32.159H40.6486V35.1066H46.7956L49.619 32.2827C49.7406 32.1611 49.9058 32.0927 50.0777 32.0927H51.6856C51.9834 30.7397 53.1903 29.7236 54.6313 29.7236C56.2952 29.7236 57.649 31.0774 57.649 32.7413C57.649 34.4052 56.2952 35.759 54.6313 35.759C53.1903 35.759 51.9835 34.7428 51.6856 33.39H50.3462L47.5228 36.2139C47.4012 36.3355 47.236 36.4039 47.0642 36.4039H40.6487V39.3512H58.0366C58.3344 37.9982 59.5413 36.9821 60.9823 36.9821C62.6462 36.9823 64 38.3361 64 40ZM52.9109 32.7416C52.9109 33.6901 53.6828 34.462 54.6313 34.462C55.5798 34.462 56.3517 33.6901 56.3517 32.7416C56.3517 31.7931 55.5798 31.0212 54.6313 31.0212C53.6828 31.0212 52.9109 31.793 52.9109 32.7416ZM49.7453 23.1208C50.1439 23.3505 50.6081 23.4122 51.0506 23.2922C51.4944 23.1736 51.8657 22.8886 52.0953 22.4907C52.325 22.0929 52.3863 21.6292 52.2672 21.1854C52.1485 20.7416 51.8635 20.3703 51.4656 20.1407C51.2004 19.9874 50.9061 19.9093 50.6079 19.9093C50.4588 19.9093 50.3085 19.9292 50.1603 19.9688C49.7164 20.0875 49.3452 20.3725 49.1155 20.7704C48.6415 21.5916 48.924 22.6461 49.7453 23.1208ZM39.3513 26.8678C32.4016 27.207 26.8522 32.9674 26.8522 40C26.8522 47.0326 32.4017 52.793 39.3513 53.1322V26.8678ZM50.6022 56.6495C50.3108 56.6495 50.0156 56.7234 49.7453 56.8792C48.924 57.3539 48.6414 58.4084 49.1157 59.2297C49.3454 59.6275 49.7166 59.9126 50.1604 60.0313C50.6042 60.15 51.0676 60.0896 51.4657 59.8594C51.864 59.6298 52.1486 59.2585 52.2677 58.8147C52.3863 58.3709 52.3251 57.9076 52.0953 57.5094C51.7771 56.9578 51.1976 56.6495 50.6022 56.6495ZM52.9109 46.8247C52.9109 47.7732 53.6828 48.5451 54.6313 48.5451C55.5798 48.5451 56.3517 47.7732 56.3517 46.8247C56.3517 45.8762 55.5798 45.1043 54.6313 45.1043C53.6828 45.1043 52.9109 45.8762 52.9109 46.8247ZM62.7027 40C62.7027 39.0515 61.9308 38.2796 60.9823 38.2796C60.0338 38.2796 59.2619 39.0515 59.2619 40C59.2619 40.9485 60.0338 41.7204 60.9823 41.7204C61.9308 41.7204 62.7027 40.9485 62.7027 40Z" fill="#70B52D" stroke="#70B52D"/>
</g>
<defs>
<clipPath id="clip0_24_3096">
<rect width="49" height="48" fill="white" transform="translate(16 16)"/>
</clipPath>
</defs>
</svg>
