<svg width="80" height="82" viewBox="0 0 80 82" fill="none" xmlns="http://www.w3.org/2000/svg">
<ellipse cx="40" cy="40.7663" rx="40" ry="40.7663" fill="white"/>
<path d="M55.594 53.5538C52.8416 56.9609 48.993 59.4456 44.5845 60.4719" stroke="#70B52D" stroke-width="2" stroke-miterlimit="10" stroke-linecap="round" stroke-linejoin="round"/>
<path d="M59.458 36.2487C59.8292 37.7716 60.026 39.3628 60.026 41C60.026 42.637 59.8293 44.2281 59.4581 45.7509" stroke="#70B52D" stroke-width="2" stroke-miterlimit="10" stroke-linecap="round" stroke-linejoin="round"/>
<path d="M44.6016 21.5322C49.0147 22.5635 52.8655 25.0567 55.6158 28.4733" stroke="#70B52D" stroke-width="2" stroke-miterlimit="10" stroke-linecap="round" stroke-linejoin="round"/>
<path d="M32.1392 22.6274C33.2257 22.1599 34.3619 21.7859 35.5378 21.5157" stroke="#70B52D" stroke-width="2" stroke-miterlimit="10" stroke-linecap="round" stroke-linejoin="round"/>
<path d="M24.4521 28.4735C25.8098 26.7869 27.4355 25.3254 29.2647 24.1536" stroke="#70B52D" stroke-width="2" stroke-miterlimit="10" stroke-linecap="round" stroke-linejoin="round"/>
<path d="M20.6301 45.8309C20.2462 44.2838 20.0425 42.6657 20.0425 40.9999C20.0425 39.3627 20.2393 37.7716 20.6105 36.2487" stroke="#70B52D" stroke-width="2" stroke-miterlimit="10" stroke-linecap="round" stroke-linejoin="round"/>
<path d="M35.4565 60.4654C31.0668 59.4372 27.234 56.9624 24.4883 53.5714" stroke="#70B52D" stroke-width="2" stroke-miterlimit="10" stroke-linecap="round" stroke-linejoin="round"/>
<path d="M47.2461 44.9182L54.5108 48.3938" stroke="#70B52D" stroke-width="2" stroke-miterlimit="10" stroke-linecap="round" stroke-linejoin="round"/>
<path d="M25.5474 33.648L32.8228 37.0819" stroke="#70B52D" stroke-width="2" stroke-miterlimit="10" stroke-linecap="round" stroke-linejoin="round"/>
<path d="M32.8226 44.9182L25.4077 48.2435" stroke="#70B52D" stroke-width="2" stroke-miterlimit="10" stroke-linecap="round" stroke-linejoin="round"/>
<path d="M54.6076 33.648L47.2461 37.0819" stroke="#70B52D" stroke-width="2" stroke-miterlimit="10" stroke-linecap="round" stroke-linejoin="round"/>
<path d="M40.0342 49.2952V56.0343" stroke="#70B52D" stroke-width="2" stroke-miterlimit="10" stroke-linecap="round" stroke-linejoin="round"/>
<path d="M40.0342 25.8799V32.6834" stroke="#70B52D" stroke-width="2" stroke-miterlimit="10" stroke-linecap="round" stroke-linejoin="round"/>
<path d="M46.1357 36.0925L41.2335 33.2622C40.4913 32.8338 39.577 32.8338 38.8349 33.2622L33.9326 36.0925C33.1905 36.521 32.7334 37.3128 32.7334 38.1697V43.8304C32.7334 44.6873 33.1906 45.4791 33.9326 45.9075L38.8349 48.7379C39.577 49.1663 40.4913 49.1663 41.2335 48.7379L46.1357 45.9075C46.8778 45.4791 47.335 44.6872 47.335 43.8304V38.1697C47.3351 37.3128 46.8778 36.521 46.1357 36.0925Z" stroke="#70B52D" stroke-width="2" stroke-miterlimit="10" stroke-linecap="round" stroke-linejoin="round"/>
<path d="M40.0341 25.6922C42.4343 25.6922 44.3801 23.7463 44.3801 21.3461C44.3801 18.9458 42.4343 17 40.0341 17C37.6338 17 35.688 18.9458 35.688 21.3461C35.688 23.7463 37.6338 25.6922 40.0341 25.6922Z" stroke="#70B52D" stroke-width="2" stroke-miterlimit="10" stroke-linecap="round" stroke-linejoin="round"/>
<path d="M40.0341 65C42.4343 65 44.3801 63.0542 44.3801 60.6539C44.3801 58.2537 42.4343 56.3079 40.0341 56.3079C37.6338 56.3079 35.688 58.2537 35.688 60.6539C35.688 63.0542 37.6338 65 40.0341 65Z" stroke="#70B52D" stroke-width="2" stroke-miterlimit="10" stroke-linecap="round" stroke-linejoin="round"/>
<path d="M58.7225 36.0745C61.1228 36.0745 63.0686 34.1287 63.0686 31.7284C63.0686 29.3281 61.1228 27.3823 58.7225 27.3823C56.3223 27.3823 54.3765 29.3281 54.3765 31.7284C54.3765 34.1287 56.3223 36.0745 58.7225 36.0745Z" stroke="#70B52D" stroke-width="2" stroke-miterlimit="10" stroke-linecap="round" stroke-linejoin="round"/>
<path d="M58.3536 54.6022C56.126 54.415 54.3765 52.5476 54.3765 50.2716C54.3765 47.8713 56.3223 45.9255 58.7225 45.9255C61.1228 45.9255 63.0686 47.8713 63.0686 50.2716C63.0686 51.6303 62.4452 52.8433 61.4687 53.6403" stroke="#70B52D" stroke-width="2" stroke-miterlimit="10" stroke-linecap="round" stroke-linejoin="round"/>
<path d="M21.3461 36.0745C23.7463 36.0745 25.6922 34.1287 25.6922 31.7284C25.6922 29.3281 23.7463 27.3823 21.3461 27.3823C18.9458 27.3823 17 29.3281 17 31.7284C17 34.1287 18.9458 36.0745 21.3461 36.0745Z" stroke="#70B52D" stroke-width="2" stroke-miterlimit="10" stroke-linecap="round" stroke-linejoin="round"/>
<path d="M21.3461 54.6177C23.7463 54.6177 25.6922 52.6719 25.6922 50.2716C25.6922 47.8713 23.7463 45.9255 21.3461 45.9255C18.9458 45.9255 17 47.8713 17 50.2716C17 52.6719 18.9458 54.6177 21.3461 54.6177Z" stroke="#70B52D" stroke-width="2" stroke-miterlimit="10" stroke-linecap="round" stroke-linejoin="round"/>
</svg>
