<svg width="80" height="80" viewBox="0 0 80 80" fill="none" xmlns="http://www.w3.org/2000/svg">
<circle cx="40" cy="40" r="40" fill="white"/>
<g clip-path="url(#clip0_345_157)">
<path fill-rule="evenodd" clip-rule="evenodd" d="M39.9883 23.0222C41.5173 23.0222 42.8213 22.0423 43.3067 20.6776L43.5284 20.7172C45.4786 21.0731 47.3561 21.7225 49.1104 22.6478C49.1402 22.6684 49.1714 22.6874 49.2042 22.7049C54.1949 25.359 57.7911 30.0561 59.0707 35.5917C59.1853 36.1004 59.7045 36.4124 60.1962 36.2946C60.7011 36.1779 61.0158 35.674 60.8991 35.169C59.5057 29.1408 55.6032 24.0194 50.1842 21.101C50.1542 21.0801 50.1227 21.0608 50.0896 21.0431C48.1365 19.9992 46.0423 19.2686 43.862 18.8706L43.4385 18.795C42.5046 14.693 36.5744 15.2565 36.4668 19.5009C36.4669 21.4425 38.0465 23.0222 39.9883 23.0222ZM39.9883 17.856C40.8952 17.856 41.633 18.5938 41.633 19.5007C41.5504 21.6799 38.4258 21.6792 38.3434 19.5007C38.3435 18.5938 39.0813 17.856 39.9883 17.856ZM51.9042 45.6125L50.8215 47.488C50.2034 48.5586 48.9363 49.0894 47.74 48.7789L45.4356 48.1812C44.9729 48.0614 44.4921 48.339 44.3649 48.7999L43.7296 51.0946C43.4007 52.285 42.3076 53.1168 41.0715 53.1168H38.9059C37.6706 53.1168 36.5774 52.2855 36.2471 51.0951L35.6118 48.8005C35.4843 48.339 35.0039 48.0616 34.5402 48.1815L32.2365 48.779C31.0403 49.0894 29.7732 48.5585 29.1551 47.488L28.0722 45.6122C27.4543 44.5422 27.628 43.1796 28.4946 42.2988L30.1648 40.6014C30.4998 40.2605 30.4998 39.7053 30.1644 39.364L28.4949 37.6684C27.6286 36.7865 27.455 35.424 28.072 34.3542L29.155 32.4781C29.7729 31.408 31.0402 30.8777 32.2366 31.188L34.5406 31.7846C35.0042 31.9053 35.4843 31.6277 35.6117 31.1668L36.247 28.8723C36.577 27.681 37.6704 26.8491 38.9059 26.8491H41.0715C42.3079 26.8491 43.401 27.6814 43.7297 28.8731L44.3648 31.1664C44.4923 31.6277 44.9727 31.9045 45.4355 31.7846L47.7404 31.1878C48.9363 30.8776 50.2036 31.4079 50.8215 32.478L51.9043 34.3537C52.5215 35.4238 52.348 36.7864 51.4825 37.6676L49.8126 39.3646C49.477 39.7057 49.477 40.2605 49.8126 40.6015L49.8128 40.6017L51.4821 42.2991C52.3485 43.1798 52.5223 44.5425 51.9042 45.6125ZM41.9209 50.5946L42.5562 48.2998C42.9543 46.8584 44.4573 45.9903 45.9058 46.3647L48.2109 46.9626C48.5935 47.0617 48.9984 46.892 49.1961 46.5498L50.2789 44.6742C50.4765 44.3321 50.4209 43.8965 50.1439 43.615L48.4746 41.9175C47.425 40.8507 47.425 39.1151 48.4748 38.0483L50.144 36.3519C50.4206 36.0703 50.4762 35.634 50.2788 35.2916L49.1961 33.4163C48.9988 33.0745 48.5938 32.905 48.2111 33.0043L45.9062 33.6012C44.4577 33.9769 42.9547 33.1093 42.5559 31.6668L41.9208 29.3729C41.8156 28.9915 41.4664 28.7256 41.0713 28.7256H38.9057C38.5106 28.7256 38.1609 28.9919 38.0553 29.3731L37.4201 31.6672C37.0214 33.1092 35.5184 33.9773 34.0695 33.6011L31.7654 33.0044C31.3822 32.9051 30.9774 33.0745 30.7799 33.4164L29.6972 35.2919C29.4999 35.634 29.5555 36.0704 29.8327 36.3525L31.5022 38.0482C32.5509 39.1154 32.5509 40.8508 31.5027 41.9173L29.8321 43.6151C29.5553 43.8966 29.4998 44.3321 29.6972 44.6741L30.7801 46.5499C30.9778 46.8921 31.3832 47.0619 31.7652 46.9627L34.0697 46.3649C35.4852 45.9885 37.0268 46.8484 37.4205 48.3005L38.0555 50.594C38.1611 50.9745 38.5108 51.2404 38.9059 51.2404H41.0715C41.4665 51.2404 41.8158 50.9749 41.9209 50.5946ZM35.2935 39.9834C35.2935 37.3944 37.3998 35.2881 39.9888 35.2881C42.5772 35.2881 44.6831 37.3944 44.6831 39.9833C44.4481 46.2014 35.5294 46.2021 35.2935 39.9834ZM37.1701 39.9834C37.1701 41.537 38.4345 42.8011 39.9888 42.8011C41.5424 42.8011 42.8065 41.5371 42.8065 39.9834C42.6654 36.2497 37.3118 36.2497 37.1701 39.9834ZM36.684 59.282C37.1806 57.9385 38.4743 56.9781 39.9883 56.9781C41.93 56.9781 43.5097 58.5578 43.5098 60.4994C43.3986 64.7708 37.4177 65.3011 36.5297 61.1588L36.1311 61.0921L36.1263 61.0914L36.1174 61.0898C33.9406 60.6925 31.8465 59.9618 29.8932 58.918C15.0779 51.1161 14.7621 29.5756 29.3517 21.3519L28.2268 20.9931C27.7332 20.8356 27.4606 20.3077 27.6181 19.814C27.7756 19.3203 28.3033 19.0478 28.7972 19.2053L32.0873 20.255C32.5893 20.3982 32.8869 20.9445 32.7274 21.4441L31.6295 24.8857C31.5023 25.2846 31.1332 25.5391 30.7359 25.5391C30.6414 25.5391 30.5452 25.5247 30.4504 25.4944C29.9567 25.337 29.6841 24.809 29.8417 24.3153L30.2636 22.9924C16.9715 30.5022 17.2602 50.1434 30.7758 57.262C32.557 58.2138 34.4645 58.8798 36.4471 59.2424L36.684 59.282ZM38.3434 60.4996C38.3434 61.4065 39.0813 62.1443 39.9883 62.1443C40.8952 62.1443 41.6331 61.4065 41.633 60.4996C41.5507 58.321 38.4261 58.3204 38.3434 60.4996ZM60.267 43.2496C59.7593 43.1435 59.2625 43.4683 59.1561 43.9754C59.017 44.6392 58.8437 45.298 58.6411 45.9331C57.1731 50.5347 54.0525 54.4139 49.9312 56.8464L50.3413 55.5609C50.4987 55.0671 50.2262 54.5392 49.7325 54.3818C49.2391 54.2242 48.7109 54.4967 48.5534 54.9905L47.4554 58.4322C47.297 58.9303 47.5931 59.4792 48.0954 59.6213L51.3856 60.671C51.8659 60.8283 52.4084 60.5606 52.5647 60.0623C52.7222 59.5686 52.4496 59.0407 51.9559 58.8832L50.7988 58.5141C55.3577 55.8519 58.81 51.5783 60.4291 46.5035C60.651 45.8076 60.8407 45.0866 60.9929 44.3605C61.0992 43.8532 60.7743 43.3558 60.267 43.2496ZM60.2854 38.7783C60.7879 38.6767 61.2873 39.0148 61.3888 39.5149C61.4905 40.0156 61.1519 40.5186 60.6522 40.6183C59.4236 40.8029 59.0782 39.0799 60.2854 38.7783Z" fill="#70B52D"/>
<path d="M43.3067 20.6776L43.3507 20.4315L43.1421 20.3943L43.0712 20.5939L43.3067 20.6776ZM43.5284 20.7172L43.5733 20.4713L43.5724 20.4711L43.5284 20.7172ZM49.1104 22.6478L49.2525 22.4421L49.2403 22.4336L49.2271 22.4267L49.1104 22.6478ZM49.2042 22.7049L49.0866 22.9255L49.0868 22.9256L49.2042 22.7049ZM59.0707 35.5917L59.3146 35.5368L59.3143 35.5354L59.0707 35.5917ZM60.1962 36.2946L60.1399 36.051L60.1379 36.0515L60.1962 36.2946ZM60.8991 35.169L61.1427 35.1127L61.1427 35.1127L60.8991 35.169ZM50.1842 21.101L50.0413 21.3061L50.0531 21.3143L50.0657 21.3211L50.1842 21.101ZM50.0896 21.0431L49.9717 21.2636L49.972 21.2638L50.0896 21.0431ZM43.862 18.8706L43.9069 18.6247L43.9059 18.6245L43.862 18.8706ZM43.4385 18.795L43.1948 18.8505L43.2315 19.012L43.3946 19.0411L43.4385 18.795ZM36.4668 19.5009L36.2168 19.4946L36.2168 19.5009L36.4668 19.5009ZM41.633 19.5007L41.883 19.5102V19.5007H41.633ZM38.3434 19.5007L38.0932 19.5007L38.0936 19.5102L38.3434 19.5007ZM50.8215 47.488L51.038 47.613L51.038 47.613L50.8215 47.488ZM51.9042 45.6125L51.6877 45.4875L51.6877 45.4875L51.9042 45.6125ZM47.74 48.7789L47.8028 48.5369L47.8028 48.5369L47.74 48.7789ZM45.4356 48.1812L45.4984 47.9392L45.4983 47.9392L45.4356 48.1812ZM44.3649 48.7999L44.6058 48.8666L44.6059 48.8664L44.3649 48.7999ZM43.7296 51.0946L43.4886 51.0279L43.4886 51.028L43.7296 51.0946ZM36.2471 51.0951L36.0062 51.1618L36.0062 51.1619L36.2471 51.0951ZM35.6118 48.8005L35.3708 48.8671L35.3708 48.8672L35.6118 48.8005ZM34.5402 48.1815L34.4776 47.9395L34.4774 47.9395L34.5402 48.1815ZM32.2365 48.779L32.1737 48.537L32.1737 48.537L32.2365 48.779ZM29.1551 47.488L28.9386 47.613L28.9386 47.613L29.1551 47.488ZM28.0722 45.6122L28.2887 45.4872L28.2887 45.4872L28.0722 45.6122ZM28.4946 42.2988L28.3164 42.1234L28.3164 42.1234L28.4946 42.2988ZM30.1648 40.6014L30.343 40.7767L30.3431 40.7766L30.1648 40.6014ZM30.1644 39.364L30.3427 39.1888L30.3425 39.1886L30.1644 39.364ZM28.4949 37.6684L28.3165 37.8436L28.3167 37.8438L28.4949 37.6684ZM28.072 34.3542L27.8555 34.2292L27.8554 34.2293L28.072 34.3542ZM29.155 32.4781L28.9385 32.3531L28.9385 32.3531L29.155 32.4781ZM32.2366 31.188L32.1738 31.43L32.1739 31.43L32.2366 31.188ZM34.5406 31.7846L34.6036 31.5427L34.6033 31.5426L34.5406 31.7846ZM35.6117 31.1668L35.3707 31.1001L35.3707 31.1003L35.6117 31.1668ZM36.247 28.8723L36.0061 28.8056L36.0061 28.8056L36.247 28.8723ZM43.7297 28.8731L43.4887 28.9395L43.4888 28.9398L43.7297 28.8731ZM44.3648 31.1664L44.6058 31.0998L44.6057 31.0997L44.3648 31.1664ZM45.4355 31.7846L45.3728 31.5426L45.3728 31.5426L45.4355 31.7846ZM47.7404 31.1878L47.803 31.4298L47.8031 31.4298L47.7404 31.1878ZM50.8215 32.478L51.038 32.3531L51.038 32.353L50.8215 32.478ZM51.9043 34.3537L52.1209 34.2288L52.1208 34.2287L51.9043 34.3537ZM51.4825 37.6676L51.6607 37.8429L51.6609 37.8427L51.4825 37.6676ZM49.8126 39.3646L49.9908 39.5399L49.9908 39.5399L49.8126 39.3646ZM49.8126 40.6015L49.6344 40.7768L49.6358 40.7782L49.8126 40.6015ZM49.8128 40.6017L49.9911 40.4264L49.9896 40.4249L49.8128 40.6017ZM51.4821 42.2991L51.3038 42.4743L51.3038 42.4744L51.4821 42.2991ZM42.5562 48.2998L42.7971 48.3665L42.7972 48.3664L42.5562 48.2998ZM41.9209 50.5946L41.6799 50.5279L41.6799 50.528L41.9209 50.5946ZM45.9058 46.3647L45.9685 46.1228L45.9684 46.1227L45.9058 46.3647ZM48.2109 46.9626L48.1482 47.2046L48.1482 47.2047L48.2109 46.9626ZM49.1961 46.5498L49.4126 46.6748L49.4126 46.6748L49.1961 46.5498ZM50.2789 44.6742L50.0624 44.5492L50.0624 44.5492L50.2789 44.6742ZM50.1439 43.615L49.9657 43.7903L49.9657 43.7904L50.1439 43.615ZM48.4746 41.9175L48.6528 41.7422L48.6528 41.7422L48.4746 41.9175ZM48.4748 38.0483L48.653 38.2237L48.653 38.2237L48.4748 38.0483ZM50.144 36.3519L50.3222 36.5272L50.3224 36.5271L50.144 36.3519ZM50.2788 35.2916L50.4954 35.1667L50.4953 35.1666L50.2788 35.2916ZM49.1961 33.4163L49.4127 33.2913L49.4126 33.2912L49.1961 33.4163ZM48.2111 33.0043L48.2738 33.2464L48.2739 33.2463L48.2111 33.0043ZM45.9062 33.6012L45.8436 33.3592L45.8435 33.3592L45.9062 33.6012ZM42.5559 31.6668L42.7969 31.6002L42.7969 31.6001L42.5559 31.6668ZM41.9208 29.3729L41.6798 29.4394L41.6798 29.4396L41.9208 29.3729ZM38.0553 29.3731L37.8144 29.3064L37.8144 29.3064L38.0553 29.3731ZM37.4201 31.6672L37.1791 31.6004L37.1791 31.6005L37.4201 31.6672ZM34.0695 33.6011L34.1323 33.3591L34.1321 33.3591L34.0695 33.6011ZM31.7654 33.0044L31.7027 33.2464L31.7028 33.2465L31.7654 33.0044ZM30.7799 33.4164L30.5634 33.2914L30.5634 33.2915L30.7799 33.4164ZM29.6972 35.2919L29.4807 35.1669L29.4807 35.167L29.6972 35.2919ZM29.8327 36.3525L29.6544 36.5277L29.6546 36.5279L29.8327 36.3525ZM31.5022 38.0482L31.6805 37.873L31.6803 37.8728L31.5022 38.0482ZM31.5027 41.9173L31.6809 42.0927L31.681 42.0926L31.5027 41.9173ZM29.8321 43.6151L29.654 43.4398L29.6539 43.4398L29.8321 43.6151ZM29.6972 44.6741L29.4807 44.7991L29.4807 44.7991L29.6972 44.6741ZM30.7801 46.5499L30.5636 46.6749L30.5637 46.6749L30.7801 46.5499ZM31.7652 46.9627L31.7024 46.7207L31.7023 46.7208L31.7652 46.9627ZM34.0697 46.3649L34.1325 46.6069L34.134 46.6065L34.0697 46.3649ZM37.4205 48.3005L37.1792 48.3659L37.1795 48.3672L37.4205 48.3005ZM38.0555 50.594L37.8146 50.6607L37.8146 50.6608L38.0555 50.594ZM35.2935 39.9834H35.0433L35.0436 39.9929L35.2935 39.9834ZM44.6831 39.9833L44.9331 39.9927V39.9833H44.6831ZM37.1701 39.9834L36.9201 39.9739V39.9834H37.1701ZM42.8065 39.9834H43.0567L43.0563 39.9739L42.8065 39.9834ZM36.684 59.282L36.6428 59.5286L36.8468 59.5627L36.9185 59.3687L36.684 59.282ZM43.5098 60.4994L43.7598 60.5059L43.7598 60.4994L43.5098 60.4994ZM36.5297 61.1588L36.7742 61.1064L36.7386 60.9403L36.571 60.9123L36.5297 61.1588ZM36.1311 61.0921L36.1723 60.8455L36.1696 60.8451L36.1311 61.0921ZM36.1263 61.0914L36.0822 61.3375L36.0878 61.3384L36.1263 61.0914ZM36.1174 61.0898L36.0725 61.3357L36.0732 61.3358L36.1174 61.0898ZM29.8932 58.918L30.011 58.6975L30.0097 58.6968L29.8932 58.918ZM29.3517 21.3519L29.4744 21.5697L29.9741 21.288L29.4277 21.1137L29.3517 21.3519ZM28.2268 20.9931L28.3028 20.7549L28.3028 20.7549L28.2268 20.9931ZM27.6181 19.814L27.8563 19.89L27.8563 19.8899L27.6181 19.814ZM28.7972 19.2053L28.8732 18.9671L28.8732 18.9671L28.7972 19.2053ZM32.0873 20.255L32.0113 20.4933L32.0187 20.4954L32.0873 20.255ZM32.7274 21.4441L32.4893 21.3681L32.4893 21.3681L32.7274 21.4441ZM31.6295 24.8857L31.3913 24.8098L31.3913 24.8098L31.6295 24.8857ZM30.4504 25.4944L30.5266 25.2563L30.5264 25.2562L30.4504 25.4944ZM29.8417 24.3153L30.0798 24.3913L30.0798 24.3913L29.8417 24.3153ZM30.2636 22.9924L30.5018 23.0684L30.6954 22.4613L30.1406 22.7748L30.2636 22.9924ZM30.7758 57.262L30.8937 57.0415L30.8923 57.0408L30.7758 57.262ZM36.4471 59.2424L36.4021 59.4884L36.4059 59.489L36.4471 59.2424ZM38.3434 60.4996L38.0934 60.4901V60.4996H38.3434ZM41.633 60.4996L41.8832 60.4996L41.8829 60.4901L41.633 60.4996ZM59.1561 43.9754L58.9115 43.9241L58.9115 43.9241L59.1561 43.9754ZM60.267 43.2496L60.3182 43.0049L60.3182 43.0049L60.267 43.2496ZM58.6411 45.9331L58.8793 46.0091L58.8793 46.0091L58.6411 45.9331ZM49.9312 56.8464L49.693 56.7704L49.4937 57.3948L50.0582 57.0616L49.9312 56.8464ZM50.3413 55.5609L50.5795 55.6369L50.5795 55.6368L50.3413 55.5609ZM49.7325 54.3818L49.6565 54.6199L49.6565 54.62L49.7325 54.3818ZM48.5534 54.9905L48.7916 55.0665L48.7916 55.0664L48.5534 54.9905ZM47.4554 58.4322L47.2172 58.3562L47.2172 58.3564L47.4554 58.4322ZM48.0954 59.6213L48.1715 59.383L48.1635 59.3807L48.0954 59.6213ZM51.3856 60.671L51.4634 60.4334L51.4616 60.4328L51.3856 60.671ZM52.5647 60.0623L52.3265 59.9864L52.3262 59.9875L52.5647 60.0623ZM51.9559 58.8832L51.8799 59.1214L51.88 59.1214L51.9559 58.8832ZM50.7988 58.5141L50.6727 58.2982L50.1876 58.5815L50.7228 58.7523L50.7988 58.5141ZM60.4291 46.5035L60.6672 46.5795L60.6672 46.5795L60.4291 46.5035ZM60.9929 44.3605L61.2376 44.4118L61.2376 44.4118L60.9929 44.3605ZM61.3888 39.5149L61.6338 39.4652L61.6338 39.4652L61.3888 39.5149ZM60.2854 38.7783L60.2358 38.533L60.2248 38.5358L60.2854 38.7783ZM60.6522 40.6183L60.6894 40.8659L60.7011 40.8635L60.6522 40.6183ZM43.0712 20.5939C42.62 21.8624 41.4079 22.7722 39.9883 22.7722V23.2722C41.6268 23.2722 43.0226 22.2223 43.5422 20.7614L43.0712 20.5939ZM43.5724 20.4711L43.3507 20.4315L43.2628 20.9238L43.4845 20.9633L43.5724 20.4711ZM49.2271 22.4267C47.4502 21.4896 45.5486 20.8318 43.5733 20.4713L43.4835 20.9632C45.4087 21.3145 47.2619 21.9555 48.9938 22.8689L49.2271 22.4267ZM49.3218 22.4842C49.2974 22.4713 49.2743 22.4572 49.2525 22.4421L48.9683 22.8535C49.006 22.8795 49.0455 22.9036 49.0866 22.9255L49.3218 22.4842ZM59.3143 35.5354C58.0185 29.9297 54.3765 25.1724 49.3216 22.4841L49.0868 22.9256C54.0132 25.5455 57.5637 30.1824 58.8271 35.648L59.3143 35.5354ZM60.1379 36.0515C59.7799 36.1373 59.3981 35.9075 59.3146 35.5368L58.8268 35.6466C58.9724 36.2932 59.6291 36.6876 60.2545 36.5377L60.1379 36.0515ZM60.6555 35.2253C60.7411 35.5958 60.5103 35.9654 60.1399 36.051L60.2525 36.5382C60.8919 36.3903 61.2905 35.7522 61.1427 35.1127L60.6555 35.2253ZM50.0657 21.3211C55.421 24.2053 59.2782 29.2668 60.6555 35.2253L61.1427 35.1127C59.7332 29.0148 55.7853 23.8336 50.3028 20.8809L50.0657 21.3211ZM49.972 21.2638C49.9963 21.2767 50.0194 21.2909 50.0413 21.3061L50.3272 20.8959C50.289 20.8693 50.249 20.8448 50.2071 20.8225L49.972 21.2638ZM43.8171 19.1166C45.9719 19.5099 48.0415 20.2319 49.9717 21.2636L50.2074 20.8226C48.2314 19.7665 46.1126 19.0273 43.9069 18.6247L43.8171 19.1166ZM43.3946 19.0411L43.818 19.1168L43.9059 18.6245L43.4825 18.5489L43.3946 19.0411ZM36.7167 19.5072C36.8168 15.5601 42.3255 15.0323 43.1948 18.8505L43.6823 18.7395C42.6838 14.3538 36.332 14.9529 36.2169 19.4946L36.7167 19.5072ZM39.9883 22.7722C38.1846 22.7722 36.7169 21.3044 36.7168 19.5009L36.2168 19.5009C36.2169 21.5805 37.9085 23.2722 39.9883 23.2722V22.7722ZM41.883 19.5007C41.883 18.4558 41.0333 17.606 39.9883 17.606V18.106C40.7572 18.106 41.383 18.7319 41.383 19.5007H41.883ZM38.0936 19.5102C38.1881 22.009 41.788 22.0104 41.8829 19.5102L41.3832 19.4912C41.3127 21.3493 38.6635 21.3494 38.5932 19.4913L38.0936 19.5102ZM39.9883 17.606C38.9432 17.606 38.0935 18.4558 38.0934 19.5007L38.5934 19.5007C38.5935 18.7319 39.2194 18.106 39.9883 18.106V17.606ZM51.038 47.613L52.1207 45.7375L51.6877 45.4875L50.605 47.363L51.038 47.613ZM47.6772 49.0209C48.9824 49.3596 50.3637 48.7809 51.038 47.613L50.605 47.363C50.0431 48.3363 48.8903 48.8192 47.8028 48.5369L47.6772 49.0209ZM45.3728 48.4232L47.6772 49.0209L47.8028 48.5369L45.4984 47.9392L45.3728 48.4232ZM44.6059 48.8664C44.6967 48.5372 45.0423 48.3376 45.3729 48.4232L45.4983 47.9392C44.9035 47.7852 44.2875 48.1407 44.1239 48.7333L44.6059 48.8664ZM43.9705 51.1613L44.6058 48.8666L44.1239 48.7331L43.4886 51.0279L43.9705 51.1613ZM41.0715 53.3668C42.42 53.3668 43.6117 52.46 43.9705 51.1612L43.4886 51.028C43.1897 52.11 42.1953 52.8668 41.0715 52.8668V53.3668ZM38.9059 53.3668H41.0715V52.8668H38.9059V53.3668ZM36.0062 51.1619C36.3665 52.4605 37.5582 53.3668 38.9059 53.3668V52.8668C37.783 52.8668 36.7883 52.1104 36.488 51.0282L36.0062 51.1619ZM35.3708 48.8672L36.0062 51.1618L36.488 51.0283L35.8527 48.7338L35.3708 48.8672ZM34.6028 48.4235C34.9345 48.3378 35.2797 48.5373 35.3708 48.8671L35.8527 48.734C35.689 48.1408 35.0733 47.7854 34.4776 47.9395L34.6028 48.4235ZM32.2992 49.021L34.603 48.4235L34.4774 47.9395L32.1737 48.537L32.2992 49.021ZM28.9386 47.613C29.6129 48.7808 30.9942 49.3596 32.2993 49.021L32.1737 48.537C31.0864 48.8192 29.9335 48.3362 29.3716 47.363L28.9386 47.613ZM27.8557 45.7372L28.9386 47.613L29.3716 47.363L28.2887 45.4872L27.8557 45.7372ZM28.3164 42.1234C27.3709 43.0844 27.1816 44.5699 27.8557 45.7372L28.2887 45.4872C27.727 44.5145 27.885 43.2748 28.6728 42.4741L28.3164 42.1234ZM29.9866 40.426L28.3164 42.1234L28.6728 42.4741L30.343 40.7767L29.9866 40.426ZM29.9861 39.5392C30.2259 39.7833 30.2258 40.1826 29.9865 40.4261L30.3431 40.7766C30.7737 40.3384 30.7736 39.6273 30.3427 39.1888L29.9861 39.5392ZM28.3167 37.8438L29.9863 39.5394L30.3425 39.1886L28.673 37.493L28.3167 37.8438ZM27.8554 34.2293C27.1823 35.3964 27.3717 36.8816 28.3165 37.8436L28.6732 37.4932C27.8856 36.6913 27.7277 35.4515 28.2885 34.4791L27.8554 34.2293ZM28.9385 32.3531L27.8555 34.2292L28.2885 34.4792L29.3715 32.6031L28.9385 32.3531ZM32.2993 30.946C30.9943 30.6075 29.6127 31.1856 28.9385 32.3531L29.3715 32.6032C29.9332 31.6304 31.0862 31.1479 32.1738 31.43L32.2993 30.946ZM34.6033 31.5426L32.2992 30.9459L32.1739 31.43L34.4779 32.0266L34.6033 31.5426ZM35.3707 31.1003C35.2797 31.4295 34.9349 31.6289 34.6036 31.5427L34.4776 32.0266C35.0735 32.1817 35.689 31.8258 35.8526 31.2334L35.3707 31.1003ZM36.0061 28.8056L35.3707 31.1001L35.8526 31.2336L36.4879 28.939L36.0061 28.8056ZM38.9059 26.5991C37.558 26.5991 36.3661 27.5061 36.0061 28.8056L36.4879 28.939C36.7879 27.856 37.7828 27.0991 38.9059 27.0991V26.5991ZM41.0715 26.5991H38.9059V27.0991H41.0715V26.5991ZM43.9707 28.8066C43.612 27.5065 42.4204 26.5991 41.0715 26.5991V27.0991C42.1955 27.0991 43.1899 27.8563 43.4887 28.9395L43.9707 28.8066ZM44.6057 31.0997L43.9707 28.8063L43.4888 28.9398L44.1239 31.2331L44.6057 31.0997ZM45.3728 31.5426C45.042 31.6283 44.6969 31.4293 44.6058 31.0998L44.1238 31.233C44.2878 31.826 44.9035 32.1808 45.4982 32.0266L45.3728 31.5426ZM47.6777 30.9458L45.3728 31.5426L45.4982 32.0266L47.803 31.4298L47.6777 30.9458ZM51.038 32.353C50.3639 31.1855 48.9823 30.6074 47.6776 30.9458L47.8031 31.4298C48.8904 31.1478 50.0434 31.6303 50.605 32.603L51.038 32.353ZM52.1208 34.2287L51.038 32.3531L50.605 32.603L51.6878 34.4787L52.1208 34.2287ZM51.6609 37.8427C52.6051 36.8815 52.7942 35.3961 52.1209 34.2288L51.6877 34.4786C52.2489 35.4514 52.091 36.6913 51.3042 37.4924L51.6609 37.8427ZM49.9908 39.5399L51.6607 37.8429L51.3043 37.4922L49.6344 39.1892L49.9908 39.5399ZM49.9908 40.4261C49.7509 40.1824 49.7509 39.7837 49.9908 39.5399L49.6344 39.1892C49.2031 39.6276 49.203 40.3385 49.6344 40.7768L49.9908 40.4261ZM49.9896 40.4249L49.9894 40.4247L49.6358 40.7782L49.636 40.7784L49.9896 40.4249ZM51.6603 42.1238L49.9911 40.4264L49.6346 40.7769L51.3038 42.4743L51.6603 42.1238ZM52.1207 45.7375C52.795 44.5701 52.6055 43.0846 51.6603 42.1237L51.3038 42.4744C52.0915 43.275 52.2496 44.5148 51.6877 45.4875L52.1207 45.7375ZM42.3153 48.2331L41.6799 50.5279L42.1618 50.6613L42.7971 48.3665L42.3153 48.2331ZM45.9684 46.1227C44.3879 45.7141 42.7497 46.6602 42.3152 48.2333L42.7972 48.3664C43.1589 47.0566 44.5267 46.2664 45.8432 46.6068L45.9684 46.1227ZM48.2737 46.7206L45.9685 46.1228L45.843 46.6067L48.1482 47.2046L48.2737 46.7206ZM48.9796 46.4248C48.8381 46.6697 48.5474 46.7915 48.2736 46.7206L48.1482 47.2047C48.6396 47.3319 49.1588 47.1143 49.4126 46.6748L48.9796 46.4248ZM50.0624 44.5492L48.9795 46.4248L49.4126 46.6748L50.4954 44.7992L50.0624 44.5492ZM49.9657 43.7904C50.1639 43.9917 50.2038 44.3044 50.0624 44.5492L50.4953 44.7992C50.7492 44.3598 50.678 43.8013 50.3221 43.4397L49.9657 43.7904ZM48.2963 42.0928L49.9657 43.7903L50.3222 43.4397L48.6528 41.7422L48.2963 42.0928ZM48.2966 37.873C47.1511 39.037 47.1511 40.9287 48.2964 42.0929L48.6528 41.7422C47.6989 40.7726 47.6989 39.1931 48.653 38.2237L48.2966 37.873ZM49.9658 36.1765L48.2966 37.873L48.653 38.2237L50.3222 36.5272L49.9658 36.1765ZM50.0622 35.4164C50.2036 35.6618 50.1635 35.9753 49.9657 36.1767L50.3224 36.5271C50.6777 36.1653 50.7488 35.6063 50.4954 35.1667L50.0622 35.4164ZM48.9796 33.5413L50.0623 35.4166L50.4953 35.1666L49.4127 33.2913L48.9796 33.5413ZM48.2739 33.2463C48.548 33.1752 48.8386 33.297 48.9796 33.5413L49.4126 33.2912C49.159 32.852 48.6397 32.6348 48.1483 32.7624L48.2739 33.2463ZM45.9689 33.8432L48.2738 33.2464L48.1484 32.7623L45.8436 33.3592L45.9689 33.8432ZM42.315 31.7334C42.7501 33.3076 44.3883 34.2532 45.969 33.8432L45.8435 33.3592C44.527 33.7006 43.1593 32.9111 42.7969 31.6002L42.315 31.7334ZM41.6798 29.4396L42.315 31.7335L42.7969 31.6001L42.1617 29.3062L41.6798 29.4396ZM41.0713 28.9756C41.3538 28.9756 41.6045 29.1663 41.6798 29.4394L42.1618 29.3064C42.0267 28.8166 41.5789 28.4756 41.0713 28.4756V28.9756ZM38.9057 28.9756H41.0713V28.4756H38.9057V28.9756ZM38.2962 29.4398C38.3719 29.1668 38.6231 28.9756 38.9057 28.9756V28.4756C38.398 28.4756 37.9499 28.8171 37.8144 29.3064L38.2962 29.4398ZM37.661 31.7339L38.2962 29.4398L37.8144 29.3064L37.1791 31.6004L37.661 31.7339ZM34.0066 33.8431C35.5878 34.2536 37.226 33.3074 37.661 31.7338L37.1791 31.6005C36.8168 32.911 35.4491 33.701 34.1323 33.3591L34.0066 33.8431ZM31.7028 33.2465L34.0068 33.8431L34.1321 33.3591L31.8281 32.7624L31.7028 33.2465ZM30.9964 33.5415C31.1375 33.2971 31.428 33.1752 31.7027 33.2464L31.8282 32.7624C31.3364 32.6349 30.8172 32.852 30.5634 33.2914L30.9964 33.5415ZM29.9137 35.4169L30.9964 33.5414L30.5634 33.2915L29.4807 35.1669L29.9137 35.4169ZM30.0111 36.1773C29.8125 35.9752 29.7726 35.6616 29.9138 35.4169L29.4807 35.167C29.2272 35.6065 29.2986 36.1656 29.6544 36.5277L30.0111 36.1773ZM31.6803 37.8728L30.0109 36.1771L29.6546 36.5279L31.324 38.2236L31.6803 37.8728ZM31.681 42.0926C32.8248 40.9287 32.8248 39.0374 31.6805 37.873L31.3238 38.2235C32.277 39.1934 32.277 40.7728 31.3244 41.7421L31.681 42.0926ZM30.0103 43.7905L31.6809 42.0927L31.3245 41.742L29.654 43.4398L30.0103 43.7905ZM29.9137 44.5491C29.7725 44.3044 29.8123 43.9918 30.0104 43.7904L29.6539 43.4398C29.2982 43.8015 29.2271 44.3598 29.4807 44.7991L29.9137 44.5491ZM30.9966 46.4249L29.9137 44.5491L29.4807 44.7991L30.5636 46.6749L30.9966 46.4249ZM31.7023 46.7208C31.4293 46.7916 31.1382 46.6698 30.9966 46.4248L30.5637 46.6749C30.8175 47.1143 31.337 47.3322 31.828 47.2047L31.7023 46.7208ZM34.007 46.1229L31.7024 46.7207L31.8279 47.2047L34.1325 46.6069L34.007 46.1229ZM37.6617 48.2351C37.2316 46.6484 35.5521 45.712 34.0055 46.1233L34.134 46.6065C35.4183 46.265 36.822 47.0485 37.1792 48.3659L37.6617 48.2351ZM38.2964 50.5273L37.6614 48.2338L37.1795 48.3672L37.8146 50.6607L38.2964 50.5273ZM38.9059 50.9904C38.6231 50.9904 38.3719 50.7994 38.2964 50.5272L37.8146 50.6608C37.9502 51.1496 38.3985 51.4904 38.9059 51.4904V50.9904ZM41.0715 50.9904H38.9059V51.4904H41.0715V50.9904ZM41.6799 50.528C41.6048 50.7997 41.3543 50.9904 41.0715 50.9904V51.4904C41.5788 51.4904 42.0267 51.15 42.1618 50.6611L41.6799 50.528ZM39.9888 35.0381C37.2617 35.0381 35.0435 37.2563 35.0435 39.9834H35.5435C35.5435 37.5325 37.5378 35.5381 39.9888 35.5381V35.0381ZM44.9331 39.9833C44.9331 37.2564 42.7153 35.0381 39.9888 35.0381V35.5381C42.4391 35.5381 44.4331 37.5324 44.4331 39.9833H44.9331ZM35.0436 39.9929C35.2918 46.5321 44.6858 46.5318 44.9329 39.9927L44.4333 39.9739C44.2104 45.871 35.7671 45.8722 35.5433 39.9739L35.0436 39.9929ZM39.9888 42.5511C38.5725 42.5511 37.4201 41.3989 37.4201 39.9834H36.9201C36.9201 41.6752 38.2965 43.0511 39.9888 43.0511V42.5511ZM42.5565 39.9834C42.5565 41.3991 41.4043 42.5511 39.9888 42.5511V43.0511C41.6805 43.0511 43.0565 41.6752 43.0565 39.9834H42.5565ZM37.4199 39.9929C37.5494 36.5792 42.4277 36.5805 42.5567 39.9928L43.0563 39.9739C42.9031 35.9188 37.0741 35.9201 36.9203 39.9739L37.4199 39.9929ZM39.9883 56.7281C38.366 56.7281 36.9811 57.7572 36.4495 59.1954L36.9185 59.3687C37.3801 58.1199 38.5826 57.2281 39.9883 57.2281V56.7281ZM43.7598 60.4994C43.7597 58.4198 42.0681 56.7281 39.9883 56.7281V57.2281C41.7919 57.2281 43.2597 58.6959 43.2598 60.4994L43.7598 60.4994ZM36.2853 61.2112C37.2346 65.6401 43.6408 65.076 43.7598 60.5059L43.2599 60.4929C43.1565 64.4655 37.6007 64.9621 36.7742 61.1064L36.2853 61.2112ZM36.0898 61.3387L36.4885 61.4054L36.571 60.9123L36.1723 60.8455L36.0898 61.3387ZM36.0878 61.3384L36.0926 61.3391L36.1696 60.8451L36.1648 60.8444L36.0878 61.3384ZM36.0732 61.3358L36.0822 61.3375L36.1705 60.8453L36.1615 60.8437L36.0732 61.3358ZM29.7753 59.1384C31.7515 60.1945 33.8702 60.9338 36.0725 61.3357L36.1622 60.8438C34.011 60.4512 31.9415 59.7291 30.011 58.6975L29.7753 59.1384ZM29.2289 21.1341C14.4667 29.4551 14.7864 51.2451 29.7767 59.1392L30.0097 58.6968C15.3694 50.9871 15.0574 29.6961 29.4744 21.5697L29.2289 21.1341ZM28.1509 21.2312L29.2757 21.59L29.4277 21.1137L28.3028 20.7549L28.1509 21.2312ZM27.38 19.738C27.1805 20.3633 27.5257 21.0318 28.1509 21.2312L28.3028 20.7549C27.9407 20.6394 27.7407 20.2522 27.8563 19.89L27.38 19.738ZM28.8732 18.9671C28.2477 18.7676 27.5794 19.1128 27.38 19.738L27.8563 19.8899C27.9718 19.5279 28.3589 19.3279 28.7213 19.4435L28.8732 18.9671ZM32.1633 20.0168L28.8732 18.9671L28.7212 19.4435L32.0113 20.4932L32.1633 20.0168ZM32.9656 21.5201C33.1684 20.8845 32.792 20.196 32.1559 20.0146L32.0187 20.4954C32.3866 20.6003 32.6053 21.0044 32.4893 21.3681L32.9656 21.5201ZM31.8677 24.9617L32.9656 21.5201L32.4893 21.3681L31.3913 24.8098L31.8677 24.9617ZM30.7359 25.7891C31.2389 25.7891 31.7064 25.4672 31.8677 24.9617L31.3913 24.8098C31.2981 25.102 31.0276 25.2891 30.7359 25.2891V25.7891ZM30.3743 25.7325C30.4941 25.7709 30.616 25.7891 30.7359 25.7891V25.2891C30.6668 25.2891 30.5963 25.2786 30.5266 25.2563L30.3743 25.7325ZM29.6035 24.2393C29.404 24.8645 29.7492 25.5332 30.3745 25.7326L30.5264 25.2562C30.1642 25.1407 29.9643 24.7534 30.0798 24.3913L29.6035 24.2393ZM30.0254 22.9164L29.6035 24.2394L30.0798 24.3913L30.5018 23.0684L30.0254 22.9164ZM30.8923 57.0408C17.5517 50.0144 17.2668 30.6225 30.3866 23.2101L30.1406 22.7748C16.6762 30.3819 16.9688 50.2725 30.6593 57.4832L30.8923 57.0408ZM36.4921 58.9965C34.535 58.6385 32.6521 57.9812 30.8937 57.0415L30.658 57.4825C32.462 58.4465 34.3941 59.121 36.4021 59.4883L36.4921 58.9965ZM36.7252 59.0354L36.4883 58.9958L36.4059 59.489L36.6428 59.5286L36.7252 59.0354ZM39.9883 61.8943C39.2194 61.8943 38.5934 61.2684 38.5934 60.4996H38.0934C38.0934 61.5445 38.9432 62.3943 39.9883 62.3943V61.8943ZM41.383 60.4996C41.3831 61.2684 40.7572 61.8943 39.9883 61.8943V62.3943C41.0333 62.3943 41.8831 61.5445 41.883 60.4996L41.383 60.4996ZM38.5932 60.5091C38.6637 58.6507 41.313 58.6511 41.3832 60.509L41.8829 60.4901C41.7884 57.9909 38.1884 57.9902 38.0936 60.4901L38.5932 60.5091ZM59.4008 44.0267C59.4788 43.6548 59.8431 43.4164 60.2159 43.4943L60.3182 43.0049C59.6754 42.8705 59.0461 43.2818 58.9115 43.9241L59.4008 44.0267ZM58.8793 46.0091C59.0845 45.3657 59.26 44.6987 59.4008 44.0267L58.9115 43.9241C58.774 44.5797 58.6029 45.2303 58.4029 45.8572L58.8793 46.0091ZM50.0582 57.0616C54.232 54.5982 57.3925 50.6697 58.8793 46.0091L58.4029 45.8572C56.9538 50.3998 53.873 54.2295 49.8041 56.6311L50.0582 57.0616ZM50.1031 55.4849L49.693 56.7704L50.1693 56.9223L50.5795 55.6369L50.1031 55.4849ZM49.6565 54.62C50.0186 54.7355 50.2186 55.1227 50.1031 55.4849L50.5795 55.6368C50.7789 55.0116 50.4337 54.343 49.8085 54.1436L49.6565 54.62ZM48.7916 55.0664C48.9071 54.7043 49.2945 54.5044 49.6565 54.6199L49.8085 54.1436C49.1836 53.9441 48.5147 54.2892 48.3152 54.9145L48.7916 55.0664ZM47.6936 58.5082L48.7916 55.0665L48.3153 54.9145L47.2172 58.3562L47.6936 58.5082ZM48.1635 59.3807C47.7968 59.2771 47.5781 58.8713 47.6937 58.5079L47.2172 58.3564C47.0159 58.9893 47.3893 59.6814 48.0274 59.8619L48.1635 59.3807ZM51.4616 60.4328L48.1714 59.3831L48.0195 59.8595L51.3096 60.9092L51.4616 60.4328ZM52.3262 59.9875C52.2122 60.3509 51.8132 60.548 51.4634 60.4334L51.3078 60.9086C51.9185 61.1086 52.6046 60.7702 52.8032 60.1372L52.3262 59.9875ZM51.88 59.1214C52.242 59.2369 52.442 59.6241 52.3265 59.9864L52.8029 60.1383C53.0023 59.513 52.6571 58.8445 52.0319 58.6451L51.88 59.1214ZM50.7228 58.7523L51.8799 59.1214L52.0319 58.6451L50.8748 58.2759L50.7228 58.7523ZM60.1909 46.4276C58.5908 51.443 55.1786 55.667 50.6727 58.2982L50.9249 58.73C55.5367 56.0369 59.0293 51.7136 60.6672 46.5795L60.1909 46.4276ZM60.7482 44.3093C60.5977 45.0271 60.4102 45.7399 60.1909 46.4276L60.6672 46.5795C60.8918 45.8753 61.0837 45.1461 61.2376 44.4118L60.7482 44.3093ZM60.2158 43.4943C60.5878 43.5722 60.8262 43.937 60.7482 44.3093L61.2376 44.4118C61.3722 43.7694 60.9607 43.1394 60.3182 43.0049L60.2158 43.4943ZM61.6338 39.4652C61.5053 38.8322 60.876 38.4038 60.2358 38.5333L60.3349 39.0234C60.6999 38.9496 61.0693 39.1974 61.1438 39.5646L61.6338 39.4652ZM60.7011 40.8635C61.3351 40.737 61.7633 40.1029 61.6338 39.4652L61.1438 39.5646C61.2176 39.9283 60.9687 40.3002 60.6032 40.3732L60.7011 40.8635ZM60.2248 38.5358C58.7073 38.9149 59.1487 41.097 60.6893 40.8656L60.615 40.3711C59.6986 40.5088 59.4492 39.2449 60.346 39.0209L60.2248 38.5358Z" fill="#70B52D"/>
</g>
<defs>
<clipPath id="clip0_345_157">
<rect width="48" height="48" fill="white" transform="translate(16 16)"/>
</clipPath>
</defs>
</svg>
